<svg width="74" height="30" viewBox="0 0 74 30" fill="none" xmlns="http://www.w3.org/2000/svg">
<g clip-path="url(#clip0_116_849)">
<mask id="mask0_116_849" style="mask-type:luminance" maskUnits="userSpaceOnUse" x="0" y="12" width="35" height="19">
<path d="M34.6875 12.9058H0V30.0003H34.6875V12.9058Z" fill="white"/>
</mask>
<g mask="url(#mask0_116_849)">
<mask id="mask1_116_849" style="mask-type:luminance" maskUnits="userSpaceOnUse" x="-1239" y="-494" width="1395" height="714">
<path d="M155.269 -493.145H-1238.01V219.968H155.269V-493.145Z" fill="white"/>
</mask>
<g mask="url(#mask1_116_849)">
<mask id="mask2_116_849" style="mask-type:luminance" maskUnits="userSpaceOnUse" x="0" y="12" width="36" height="19">
<path d="M35.5134 12.1514H0V30.5867H35.5134V12.1514Z" fill="white"/>
</mask>
<g mask="url(#mask2_116_849)">
<mask id="mask3_116_849" style="mask-type:luminance" maskUnits="userSpaceOnUse" x="0" y="12" width="35" height="18">
<path fill-rule="evenodd" clip-rule="evenodd" d="M1.81933 19.6097C1.73674 20.1125 1.81933 21.2019 2.0671 21.7884C2.48005 22.794 3.30594 23.2967 4.3796 23.2967C5.61844 23.2967 6.52692 22.8778 7.10505 22.4588L7.35279 23.9671C6.60951 24.4699 5.37067 24.8889 3.96665 24.8889C1.24121 24.8889 0.0849609 22.794 0.0849609 20.2801C0.0849609 16.7606 2.39746 12.9059 5.70103 12.9059C7.68317 12.9059 8.75683 14.2467 8.75683 15.8388C8.59163 18.8555 5.61844 19.6935 1.81933 19.6097ZM5.36987 14.4146C3.71808 14.4146 2.47924 16.2582 1.98371 18.1017C4.70915 18.1017 6.93906 17.6827 6.93906 15.923C6.93906 14.9174 6.27835 14.4146 5.36987 14.4146ZM17.3445 19.3581C17.0141 21.3693 16.8489 23.3804 16.9316 24.7212H15.2798C15.2798 24.0508 15.3623 22.9614 15.5275 21.7045H15.445C14.2887 24.0508 12.8846 24.9726 11.4807 24.9726C9.66369 24.9726 8.50747 23.3804 8.50747 21.1179C8.50747 17.0956 11.1503 12.9058 15.6101 12.9058C16.6012 12.9058 17.6748 13.0733 18.3355 13.3247L17.3445 19.3581ZM15.1996 14.4146C12.5567 14.4146 10.4094 17.5151 10.3269 20.6994C10.3269 21.9563 10.7398 23.2133 12.0612 23.2133C13.5478 23.2133 15.2822 21.0346 15.7778 18.0179L16.3558 14.4984C16.1907 14.4984 15.7778 14.4146 15.1996 14.4146ZM24.8618 14.9172C24.5314 14.6658 23.8707 14.4144 23.0448 14.4144C21.9711 14.4144 21.2278 15.1686 21.2278 16.1742C21.2278 17.0121 21.7234 17.5149 22.6318 18.1015C23.7881 18.8556 24.5314 19.8612 24.5314 21.1182C24.5314 23.5483 22.797 24.8891 20.5671 24.8891C19.4934 24.8891 18.5023 24.47 18.0068 24.1349L18.5023 22.7103C18.9979 23.0455 19.9064 23.4645 20.7323 23.4645C21.8886 23.4645 22.7145 22.6265 22.7145 21.621C22.7145 20.6992 22.3841 20.1964 21.3104 19.526C20.1541 18.7719 19.4934 17.7663 19.4934 16.5931C19.4934 14.582 21.0627 12.9898 23.21 12.9898C24.1184 12.9898 24.9443 13.2413 25.3573 13.5764L24.8618 14.9172ZM30.8899 21.872C29.8163 24.3859 28.7426 26.397 27.3386 27.9053C26.1824 29.2461 24.9435 29.7489 24.3654 29.9165L23.9524 28.2405C24.3654 28.073 25.1087 27.7378 25.852 27.1512C26.5127 26.5645 27.256 25.6428 27.8342 24.4697C27.9167 24.302 27.9167 24.1345 27.9167 23.9668L25.852 13.157H27.669L28.6601 19.358C28.9078 20.6988 28.9904 21.5368 29.1556 22.3747H29.2381C29.486 21.6205 29.8163 20.8664 30.3119 19.5256L32.9547 13.0733H34.689L30.8899 21.872Z" fill="white"/>
</mask>
<g mask="url(#mask3_116_849)">
<mask id="mask4_116_849" style="mask-type:luminance" maskUnits="userSpaceOnUse" x="0" y="12" width="36" height="19">
<path d="M35.5134 12.1514H0V30.5867H35.5134V12.1514Z" fill="white"/>
</mask>
<g mask="url(#mask4_116_849)">
<path d="M38.8146 8.71582H-4.13184V34.1901H38.8146V8.71582Z" fill="white"/>
</g>
</g>
</g>
</g>
</g>
<mask id="mask5_116_849" style="mask-type:luminance" maskUnits="userSpaceOnUse" x="26" y="6" width="24" height="22">
<path fill-rule="evenodd" clip-rule="evenodd" d="M30.6398 27.1498C30.6398 27.1498 35.2648 19.4405 36.0907 15.8372C36.9165 12.2339 36.9991 10.3066 33.7782 9.97137C30.4746 9.63618 26.7581 9.97137 26.7581 9.97137C26.7581 9.97137 31.9612 6.6195 38.8161 6.87089C45.7536 7.03848 49.7179 9.97137 49.7179 9.97137C49.7179 9.97137 48.2313 10.558 45.8362 10.7255C43.4411 10.977 42.5326 11.4797 42.6978 14.2451C42.863 17.0103 43.854 18.9376 43.854 18.9376C43.854 18.9376 39.9724 16.3399 37.5773 18.9376C35.1822 21.5353 34.6866 22.7086 33.2826 24.3845C31.9612 26.0604 30.6398 27.1498 30.6398 27.1498Z" fill="white"/>
</mask>
<g mask="url(#mask5_116_849)">
<mask id="mask6_116_849" style="mask-type:luminance" maskUnits="userSpaceOnUse" x="-1239" y="-494" width="1395" height="714">
<path d="M155.269 -493.147H-1238.01V219.966H155.269V-493.147Z" fill="white"/>
</mask>
<g mask="url(#mask6_116_849)">
<path d="M53.9332 2.59619H22.6318V31.3386H53.9332V2.59619Z" fill="#136BB5"/>
</g>
</g>
<mask id="mask7_116_849" style="mask-type:luminance" maskUnits="userSpaceOnUse" x="35" y="0" width="7" height="7">
<path fill-rule="evenodd" clip-rule="evenodd" d="M38.5677 0C40.2195 0 41.5409 1.34075 41.5409 3.0167C41.5409 4.69264 40.2195 6.03339 38.5677 6.03339C36.9159 6.03339 35.5945 4.69264 35.5945 3.0167C35.5945 1.34075 36.9985 0 38.5677 0Z" fill="white"/>
</mask>
<g mask="url(#mask7_116_849)">
<mask id="mask8_116_849" style="mask-type:luminance" maskUnits="userSpaceOnUse" x="-1239" y="-494" width="1395" height="714">
<path d="M155.269 -493.146H-1238.01V219.967H155.269V-493.146Z" fill="white"/>
</mask>
<g mask="url(#mask8_116_849)">
<path d="M45.6736 -4.19043H31.4683V10.2227H45.6736V-4.19043Z" fill="#F8A81B"/>
</g>
</g>
<mask id="mask9_116_849" style="mask-type:luminance" maskUnits="userSpaceOnUse" x="43" y="12" width="32" height="19">
<path d="M74.0009 12.9058H43.7732V30.0003H74.0009V12.9058Z" fill="white"/>
</mask>
<g mask="url(#mask9_116_849)">
<mask id="mask10_116_849" style="mask-type:luminance" maskUnits="userSpaceOnUse" x="-1239" y="-494" width="1395" height="714">
<path d="M155.269 -493.145H-1238.01V219.968H155.269V-493.145Z" fill="white"/>
</mask>
<g mask="url(#mask10_116_849)">
<mask id="mask11_116_849" style="mask-type:luminance" maskUnits="userSpaceOnUse" x="43" y="12" width="32" height="19">
<path d="M74.3312 12.1514H43.7732V30.5867H74.3312V12.1514Z" fill="white"/>
</mask>
<g mask="url(#mask11_116_849)">
<mask id="mask12_116_849" style="mask-type:luminance" maskUnits="userSpaceOnUse" x="43" y="12" width="32" height="18">
<path fill-rule="evenodd" clip-rule="evenodd" d="M48.6516 24.8875C47.5779 24.8875 46.8346 24.6362 46.4216 24.3848H46.3391L45.5132 29.3288H43.7788L45.8435 17.1783C46.0912 15.7537 46.2564 14.2454 46.4216 13.0722H47.9909L47.6605 15.2509H47.743C48.6516 13.7425 50.0555 12.8208 51.377 12.8208C53.6069 12.8208 54.5154 14.8319 54.5154 17.0106C54.598 21.1167 52.0377 24.8875 48.6516 24.8875ZM50.7989 14.4972C49.3948 14.4972 47.6605 16.2569 47.165 19.525L46.6694 22.7093C47.0823 23.1283 47.8257 23.3797 48.6516 23.3797C50.8814 23.3797 52.781 20.1954 52.781 17.1787C52.781 15.9217 52.2855 14.4972 50.7989 14.4972ZM63.6002 19.3573C63.2698 21.3685 63.1046 23.3796 63.1873 24.7203H61.5355C61.5355 24.0499 61.618 22.9606 61.7832 21.7037H61.7007C60.5444 24.0499 59.223 24.9717 57.7364 24.9717C55.9194 24.9717 54.7632 23.3796 54.7632 21.117C54.7632 17.0948 57.406 12.9049 61.8659 12.9049C62.8569 12.9049 63.9305 13.0725 64.5912 13.3239L63.6002 19.3573ZM61.452 14.4131C58.8092 14.4131 56.6619 17.5136 56.6619 20.6979C56.6619 21.9549 57.0749 23.2118 58.3963 23.2118C59.8829 23.2118 61.6172 21.033 62.1128 18.0164L62.6909 14.4968C62.4431 14.4968 62.0302 14.4131 61.452 14.4131ZM70.2081 21.8711C69.1345 24.385 68.0608 26.3962 66.6568 27.9045C65.5006 29.2453 64.2617 29.748 63.6836 29.9156L63.2706 28.2397C63.6836 28.0721 64.4269 27.7369 65.1702 27.1503C65.831 26.5637 66.5742 25.642 67.1524 24.4688C67.2349 24.3012 67.2349 24.1337 67.2349 23.966L65.1702 13.1562H66.9872L67.9783 19.3572C68.226 20.698 68.3086 21.5359 68.4738 22.3739H68.5564C68.8042 21.6197 69.1345 20.8656 69.6301 19.5248L72.1903 13.0724H74.0072L70.2081 21.8711Z" fill="white"/>
</mask>
<g mask="url(#mask12_116_849)">
<mask id="mask13_116_849" style="mask-type:luminance" maskUnits="userSpaceOnUse" x="43" y="12" width="32" height="19">
<path d="M74.3368 12.1514H43.7788V30.5867H74.3368V12.1514Z" fill="white"/>
</mask>
<g mask="url(#mask13_116_849)">
<path d="M78.4861 8H39.9995V33.4743H78.4861V8Z" fill="white"/>
</g>
</g>
</g>
</g>
</g>
</g>
<defs>
<clipPath id="clip0_116_849">
<rect width="74" height="30" fill="white"/>
</clipPath>
</defs>
</svg>
