<svg width="20" height="20" viewBox="0 0 20 20" fill="none" xmlns="http://www.w3.org/2000/svg">
<path d="M9.23243 1.99796V3.99597H8.15758H7.05713L8.54145 5.51445L10.0002 7.05957L11.4589 5.51445L12.9432 3.99597H11.8428H10.7679V1.99796V-3.71933e-05H10.0002H9.23243V1.99796Z" fill="#08083B"/>
<path d="M0.326296 4.31568C-0.108765 4.76857 -0.108765 19.2075 0.326296 19.6603C0.761356 20.1132 19.2386 20.1132 19.6737 19.6603C20.1088 19.2075 20.1088 4.76857 19.6737 4.31568C19.469 4.10256 18.4709 3.996 16.9098 3.996C14.5298 3.996 14.4274 4.02264 13.7364 4.76857L12.9942 5.56777L14.4786 5.64769L15.9373 5.72761L13.0454 7.93873C11.254 9.29737 10.2303 10.1066 10 10C9.76967 9.92008 8.20857 8.92441 6.74984 7.77889L4.08829 5.72761L5.54703 5.64769L7.00576 5.56777L6.2636 4.76857C5.57262 4.02264 5.47025 3.996 3.09021 3.996C1.52911 3.996 0.53103 4.10256 0.326296 4.31568ZM6.11004 10.7093C8.02943 12.2011 9.79527 13.4266 10 13.4266C10.2047 13.4266 11.9706 12.2011 13.89 10.7093C15.8349 9.21745 17.4728 7.99201 17.5496 7.99201C17.6264 7.99201 17.6775 10.3363 17.6775 13.1868V18.3816H10H2.32246V13.1868C2.32246 10.3363 2.37364 7.99201 2.45042 7.99201C2.52719 7.99201 4.16507 9.21745 6.11004 10.7093Z" fill="#08083B"/>
</svg>
