<svg width="26" height="27" viewBox="0 0 26 27" fill="none" xmlns="http://www.w3.org/2000/svg">
<g clip-path="url(#clip0_19_418)">
<path d="M10.0345 5.56353V10.7635H0.449611H-9.13525V13.3635V15.9635H0.449611H10.0345V21.1635V26.3635H12.6485H15.2626V21.1635V15.9635H24.8475H34.4323V13.3635V10.7635H24.8475H15.2626V5.56353V0.363525H12.6485H10.0345V5.56353Z" fill="#C11515"/>
<path d="M24.0924 4.5927C20.2236 6.90381 17.0518 8.84514 17.0286 8.91447C17.0054 8.98381 17.5049 9.03003 18.3763 9.03003H19.7705L26.962 4.74292C30.9121 2.38559 34.1652 0.432697 34.1884 0.409586C34.2117 0.386475 33.5378 0.363363 32.6781 0.374919L31.1213 0.386475L24.0924 4.5927Z" fill="#C11515"/>
<path d="M-9.13525 1.38041V2.2933L-3.4889 5.66753L2.16908 9.04175L3.65619 9.00708L5.15491 8.97241L-1.71134 4.87019C-5.4872 2.61686 -8.70539 0.698636 -8.85642 0.617747L-9.13525 0.467525V1.38041Z" fill="#C11515"/>
<path d="M-1.73452 22.007L-8.90283 26.3057L-7.40411 26.3403L-5.917 26.375L1.15837 22.1457C5.05041 19.823 8.24536 17.8817 8.2686 17.8123C8.29183 17.743 7.79226 17.6968 6.87444 17.7083L5.44542 17.7199L-1.73452 22.007Z" fill="#C11515"/>
<path d="M20.1539 17.743C20.212 17.8007 33.898 25.9705 34.2233 26.1439C34.4208 26.2479 34.4325 26.1901 34.4325 25.3465V24.4336L28.7861 21.0594L23.1397 17.6967H21.6294C20.7929 17.6967 20.1307 17.7198 20.1539 17.743Z" fill="#C11515"/>
<path d="M1.66941 3.7263C4.77142 5.57519 7.52489 7.21608 7.80372 7.37786L8.29168 7.66675V4.01519V0.363636H2.16898H-3.96533L1.66941 3.7263Z" fill="#08083B"/>
<path d="M17.0054 4.01519V7.66675L17.5049 7.37786C17.7722 7.21608 20.5256 5.57519 23.6276 3.7263L29.2624 0.363636H23.1397H17.0054V4.01519Z" fill="#08083B"/>
<path d="M-9.13525 6.24538V9.03027H-4.45319H0.217251L-3.96524 6.53427C-6.2656 5.15916 -8.36846 3.91116 -8.63568 3.74938L-9.13525 3.4605V6.24538Z" fill="#08083B"/>
<path d="M29.7268 6.25694L25.0796 9.03027H29.7617H34.4321V6.25694C34.4321 4.73161 34.4205 3.48361 34.4089 3.48361C34.3856 3.48361 32.2828 4.73161 29.7268 6.25694Z" fill="#08083B"/>
<path d="M-9.13525 20.4817V23.2666L-8.63568 22.9777C-8.36846 22.8159 -6.2656 21.5679 -3.96524 20.1928L0.217251 17.6968H-4.45319H-9.13525V20.4817Z" fill="#08083B"/>
<path d="M29.2621 20.1928C31.5624 21.5679 33.6653 22.8159 33.9441 22.9777L34.4321 23.2666V20.4817V17.6968H29.7617H25.0796L29.2621 20.1928Z" fill="#08083B"/>
<path d="M2.13413 22.7235L-3.96533 26.3635H2.16898H8.29168V22.7235C8.29168 20.7244 8.28006 19.0835 8.26844 19.0835C8.2452 19.0835 5.49173 20.7244 2.13413 22.7235Z" fill="#08083B"/>
<path d="M17.0054 22.712V26.3635H23.1397H29.2624L23.6276 23.0009C20.5256 21.152 17.7722 19.5111 17.5049 19.3493L17.0054 19.0604V22.712Z" fill="#08083B"/>
<path d="M-1.8159 4.69676L5.44536 9.03009H3.67942H1.91348L-3.52375 5.78298C-6.50958 3.99187 -8.99584 2.51276 -9.04231 2.4781C-9.1004 2.45498 -9.13525 2.63987 -9.13525 2.89409V3.35632L-4.42996 6.16432L0.275341 8.97232L-4.42996 9.00698L-9.13525 9.03009V9.89676V10.7634H0.449611H10.0345V5.56343V0.363428H9.16312H8.29177L8.26854 4.04965L8.23368 7.73587L2.07613 4.04965L-4.08142 0.374984L-6.57929 0.363428H-9.07716L-1.8159 4.69676Z" fill="white"/>
<path d="M15.2622 5.56343V10.7634H24.8471H34.4319V9.89676V9.03009L29.7266 9.00698L25.0213 8.97232L29.7266 6.16432L34.4319 3.35632V1.91187C34.4319 1.12609 34.3971 0.478984 34.3622 0.478984C34.3274 0.478984 31.0743 2.39721 27.1358 4.75454L19.9675 9.03009H18.4804C17.2721 9.03009 17.0049 8.99543 17.0049 8.85676C17.0049 8.76432 19.8746 6.98476 23.9409 4.55809L30.8768 0.421206L30.1565 0.386539L29.4362 0.351872L23.2438 4.04965L17.063 7.73587L17.0281 4.04965L17.0049 0.363428H16.1336H15.2622V5.56343Z" fill="white"/>
<path d="M-9.13525 16.8301V17.6968L-4.42996 17.7199L0.275341 17.7546L-4.42996 20.5626L-9.13525 23.3706V24.815C-9.13525 25.6008 -9.1004 26.2479 -9.06555 26.2479C-9.03069 26.2479 -5.77765 24.3297 -1.83914 21.9723L5.32918 17.6968H6.81629C8.02456 17.6968 8.29177 17.7314 8.29177 17.8701C8.29177 17.9626 5.42212 19.7421 1.35582 22.1688L-5.58014 26.3057L-4.85982 26.3403L-4.13951 26.375L2.0529 22.6772L8.23368 18.991L8.26854 22.6772L8.29177 26.3634H9.16312H10.0345V21.1634V15.9634H0.449611H-9.13525V16.8301Z" fill="white"/>
<path d="M15.2622 21.1635V26.3635H16.1336H17.0049L17.0281 22.6773L17.063 18.9911L23.2205 22.6773L29.3781 26.352L31.876 26.3635H34.3738L27.1126 22.0302L19.8513 17.6969H21.6173H23.3832L28.8204 20.944C31.8063 22.7351 34.2925 24.2142 34.3506 24.2489C34.3971 24.272 34.4319 24.0871 34.4319 23.8329V23.3706L29.7266 20.5626L25.0213 17.7546L29.7266 17.72L34.4319 17.6969V16.8302V15.9635H24.8471H15.2622V21.1635Z" fill="white"/>
</g>
<defs>
<clipPath id="clip0_19_418">
<rect y="0.363525" width="26" height="26" rx="13" fill="white"/>
</clipPath>
</defs>
</svg>
