<svg width="104" height="73" viewBox="0 0 104 73" fill="none" xmlns="http://www.w3.org/2000/svg">
<path d="M49.7435 1.18081L49.7435 1.18088L49.7313 1.18356C49.3638 1.26457 48.5686 1.52038 48.0158 1.74231L48.0136 1.74318C44.9288 2.97326 42.4784 6.00566 41.7426 9.58678L41.7426 9.58685C41.6199 10.1835 41.571 11.1442 41.6096 12.1651C41.6481 13.1843 41.7697 14.1526 41.9391 14.7632L41.9397 14.7651C43.0008 18.6181 45.7357 21.352 49.6397 22.4457L49.6401 22.4458C50.1647 22.593 51.1097 22.6774 52.1447 22.6623C53.1759 22.6473 54.1406 22.5358 54.7006 22.3681C58.3472 21.2689 61.1072 18.3922 62.0828 14.6824C62.2525 14.0231 62.3495 13.037 62.3495 11.9821C62.3495 10.9311 62.2532 9.89594 62.0775 9.14635C61.8131 8.03605 61.1049 6.4199 60.4764 5.46483C60.2239 5.08272 59.7587 4.54 59.2175 3.99916C58.6775 3.45958 58.1218 2.98175 57.713 2.70822L57.7115 2.70721C56.7199 2.04118 55.3587 1.44351 54.2088 1.18213L54.2088 1.18216L54.2006 1.18023C53.73 1.06908 52.8889 0.999969 51.9783 0.999969C51.0683 0.999969 50.2224 1.06896 49.7435 1.18081Z" stroke="#08083B" stroke-width="2"/>
<path d="M10.891 17.5844C7.55719 18.3297 5.39219 21.2558 5.37891 24.9824C5.37891 25.9762 5.63127 26.5421 6.33523 27.0804C6.8798 27.5082 8.00879 27.5634 8.72603 27.1908C9.50969 26.7905 9.86831 26.197 10.0144 25.01C10.2933 22.6498 11.3161 21.5319 13.2022 21.5181C14.4108 21.5181 15.0085 21.7389 15.593 22.429C16.1774 23.1191 16.4297 23.9058 16.4165 24.9272C16.4032 26.1418 15.9516 26.8457 14.185 28.3088C11.7544 30.3239 11.4489 30.876 11.2762 33.5536L11.1832 34.9062H13.3217H15.4468L15.5398 34.1747C15.7391 32.4909 16.018 32.0354 17.7978 30.5585C19.5511 29.0955 20.3347 28.2122 20.8262 27.1908C21.1981 26.4041 21.2512 26.128 21.291 24.8996C21.3176 24.1267 21.2778 23.1467 21.1848 22.7189C20.5207 19.3649 17.4392 17.3498 13.0295 17.3912C12.2857 17.3912 11.3294 17.474 10.891 17.5844Z" fill="#08083B"/>
<path d="M87.6098 19.7785C85.6174 21.8489 85.2987 22.2492 85.2987 22.608C85.2987 22.8426 85.4049 23.1601 85.5378 23.3119C85.7635 23.5742 85.8831 23.588 86.68 23.5052C87.4637 23.4223 87.6363 23.4499 88.1145 23.7398C89.0974 24.3057 89.456 25.6583 88.938 26.8453C87.9286 29.1641 84.9932 30.075 84.0103 28.3774C83.7978 28.0323 83.7446 27.6872 83.7446 26.8039C83.7446 25.7549 83.7181 25.6583 83.3993 25.3961C83.2001 25.2304 82.9211 25.1062 82.775 25.1062C82.5094 25.1062 78.3919 29.2055 78.4583 29.3987C78.538 29.592 90.8374 42.4971 90.9436 42.4971C91.01 42.4971 91.9531 41.5447 93.0422 40.3853C95.1275 38.177 95.2736 37.9423 94.822 37.2798C94.6361 37.0038 94.5166 36.9762 93.6001 36.99C93.0422 36.99 92.4312 36.9348 92.2453 36.8657C91.2093 36.4517 90.8374 34.9058 91.4484 33.5946C92.4976 31.3448 95.2471 30.5581 96.3362 32.2006C96.5753 32.5594 96.6284 32.8355 96.6284 33.6774C96.6284 34.961 96.8277 35.3199 97.5316 35.3199C97.9965 35.3199 98.1692 35.1681 100.254 33.0011C101.476 31.7175 102.473 30.6133 102.473 30.5443C102.473 30.4753 101.397 29.3021 100.082 27.9357C97.6512 25.4099 97.4918 25.1752 97.877 24.6093C98.0363 24.4023 98.209 24.3471 98.8466 24.3747C99.8959 24.4161 100.653 24.1953 101.105 23.6984C101.45 23.3257 101.476 23.2153 101.476 22.2353C101.476 20.9379 101.131 20.1098 100.188 19.1436C98.6606 17.584 96.5089 17.5564 95.7252 19.1022C95.5791 19.3783 95.526 19.8476 95.5393 20.5515C95.5526 21.7109 95.3666 22.0697 94.7822 22.0697C94.5166 22.0697 93.9321 21.5452 92.1789 19.7233L89.9209 17.377L87.6098 19.7785Z" fill="#00B0F2"/>
<path d="M42.1263 26.6601L42.1208 26.6609M42.1263 26.6601L42.1274 26.6599L42.1208 26.6609M42.1263 26.6601C42.1204 26.6612 42.1839 26.6546 42.3711 26.6466C42.5421 26.6393 42.7744 26.6322 43.0636 26.6256C43.641 26.6124 44.4286 26.6012 45.3713 26.5926C47.2559 26.5754 49.7489 26.5685 52.3959 26.5754L52.7527 26.5763C57.8423 26.5895 60.2898 26.5959 61.7257 26.7037C62.4417 26.7575 62.8587 26.8339 63.2023 26.9348C63.531 27.0312 63.8167 27.1555 64.2823 27.358C64.3263 27.3771 64.3718 27.3969 64.4192 27.4175L64.4258 27.4203C65.6718 27.9506 66.8796 28.8151 68.0702 30.0389C69.0687 31.0768 69.7776 32.0328 72.4535 36.1416L72.4543 36.1429C73.9158 38.3796 76.1749 41.8318 79.0054 46.1126L79.0056 46.1129L80.1744 47.8796L80.471 48.3278H81.0084H90.0404C92.5876 48.3278 94.9271 48.3416 96.6827 48.3657C97.5611 48.3777 98.2896 48.3923 98.8236 48.4088C99.0911 48.4171 99.3047 48.4258 99.4617 48.4345C99.601 48.4423 99.6615 48.4487 99.673 48.4494C99.6764 48.4497 99.6753 48.4494 99.6705 48.4485L99.6797 48.4502L99.6891 48.4518C101.099 48.6904 102.101 49.448 102.657 50.6257L102.658 50.6266C102.865 51.0635 102.919 51.2075 102.951 51.3852C102.99 51.6019 103 51.8977 103 52.6417C103 53.3929 102.99 53.6884 102.951 53.905C102.919 54.0834 102.865 54.2268 102.658 54.6703M42.1263 26.6601L77.2981 56.8423M42.1208 26.6609C40.4702 26.9095 38.5539 27.7456 37.107 28.8404C35.5953 30.0099 34.6366 31.1523 31.9056 35.3541L31.905 35.355C30.7877 37.07 29.5119 39.0155 28.6887 40.2709C28.4446 40.6431 28.2403 40.9547 28.0917 41.1816L28.0918 41.1816L28.0882 41.1869C27.4411 42.1613 26.1954 44.0753 25.3329 45.4129L25.3314 45.4152L23.7375 47.872L23.4418 48.3278H22.8986H13.7604C11.1201 48.3278 8.76737 48.3416 7.02853 48.3656C6.15848 48.3777 5.44607 48.3923 4.92963 48.4088C4.67077 48.4171 4.4667 48.4257 4.31904 48.4344C4.1866 48.4422 4.13787 48.4482 4.13775 48.4474C4.13773 48.4472 4.13981 48.4467 4.14369 48.4459L4.13503 48.4476C2.88589 48.6896 1.89859 49.4599 1.34162 50.6277C1.13445 51.0652 1.07971 51.2103 1.04805 51.3813C1.00999 51.587 1 51.8638 1 52.5726C1 53.2337 1.01208 53.5359 1.04826 53.7566C1.07853 53.9413 1.12904 54.0921 1.28437 54.4409C1.73059 55.4287 2.05109 55.808 2.66271 56.2327C2.70856 56.2635 2.7506 56.2919 2.78942 56.3182C3.08082 56.5152 3.19126 56.5899 3.37497 56.6574C3.58736 56.7355 3.93957 56.8118 4.73274 56.8627C6.23959 56.9594 8.99439 56.9502 14.6441 56.9314C14.9799 56.9303 15.326 56.9291 15.6827 56.9279C15.6828 56.9279 15.6829 56.9279 15.6831 56.9279L26.8945 56.8872L27.4279 56.6655C27.7555 56.5161 28.2989 56.1914 28.5932 55.9657C28.598 55.9619 28.6028 55.9582 28.6076 55.9544C28.8114 55.794 28.9673 55.6713 29.8088 54.4801C30.6808 53.2456 32.2264 50.9567 35.2589 46.4649C35.7391 45.751 36.1837 45.1014 36.5113 44.6318C36.6745 44.3978 36.8118 44.2041 36.9109 44.0683C36.9591 44.0024 37.0053 43.9405 37.0436 43.8922C37.0595 43.8722 37.0909 43.833 37.1281 43.7936L37.1292 43.7924C37.1418 43.779 37.1959 43.7214 37.2738 43.6644L37.2759 43.6629C37.3039 43.6423 37.4347 43.5462 37.6298 43.4987C37.7401 43.4718 37.9538 43.44 38.2015 43.5278C38.4037 43.5995 38.5579 43.7256 38.6655 43.868C38.6742 43.8796 38.6826 43.8912 38.6908 43.903C38.774 44.023 38.8087 44.1264 38.8153 44.1461C38.8157 44.1473 38.816 44.1482 38.8162 44.1487C38.8387 44.2128 38.8508 44.2673 38.8567 44.2956C38.8692 44.356 38.8765 44.4133 38.8809 44.4524C38.8903 44.5362 38.8977 44.6388 38.904 44.7491C38.9169 44.9743 38.9285 45.2922 38.9391 45.6912C38.9605 46.4921 38.9789 47.6533 38.9938 49.1275C39.0238 52.0771 39.0404 56.2971 39.0404 61.4326C39.0404 61.4329 39.0404 61.4333 39.0404 61.4337L39.0525 72H52.0664H65.081M42.1208 26.6609L68.0361 45.2625M71.857 52.7107C70.7443 51.0621 69.973 49.9168 69.3696 49.0207C68.4675 47.6812 67.9404 46.8984 67.2082 45.8233M71.857 52.7107L67.1456 44.2527L67.1415 45.7246L67.2082 45.8233M71.857 52.7107C72.9461 54.3393 74.1415 55.9956 74.5134 56.3683C75.2307 57.1274 76.0807 57.5967 77.0769 57.8175C77.4753 57.9141 81.7921 57.9555 89.1239 57.9279L100.547 57.8865M71.857 52.7107L103.562 50.1987M67.2082 45.8233L68.0369 45.2637L68.0361 45.2625M67.2082 45.8233L68.0347 45.2605L66.9743 43.6902L65.1546 40.9956L65.1456 44.2471L65.1058 58.6291L65.1058 58.63L65.081 72M68.0361 45.2625C68.769 46.3386 69.298 47.1242 70.2014 48.4657C70.805 49.362 71.5757 50.5063 72.6859 52.1512L72.6882 52.1548C73.2267 52.9599 73.7906 53.7707 74.2638 54.4236C74.7594 55.1073 75.1025 55.5429 75.2212 55.6619L75.2309 55.6716L75.2403 55.6815C75.8164 56.2913 76.487 56.6625 77.2933 56.8412L77.2981 56.8423M68.0361 45.2625L77.2981 56.8423M65.081 72H66.0792V73L65.0792 72.9982L65.081 72ZM103.562 50.1987C103.973 51.0682 104 51.2062 104 52.6417C104 54.0909 103.973 54.2151 103.562 55.0985M103.562 50.1987C102.858 48.708 101.569 47.7557 99.8559 47.4658C99.4176 47.383 95.1407 47.3278 90.0404 47.3278H81.0084L79.8396 45.5611M103.562 50.1987L79.8396 45.5611M103.562 55.0985C103.03 56.2026 102.287 57.0032 101.277 57.5139L100.547 57.8865M103.562 55.0985L102.655 54.676C102.656 54.6741 102.657 54.6722 102.658 54.6703M103.562 55.0985L102.661 54.6649C102.66 54.6667 102.659 54.6685 102.658 54.6703M100.547 57.8865L100.092 56.9957L100.305 56.8874M100.547 57.8865L100.543 56.8865L100.305 56.8874M100.305 56.8874L89.1203 56.9279L89.1201 56.9279C85.456 56.9417 82.5488 56.9383 80.5097 56.9193C79.4894 56.9099 78.6911 56.8966 78.1259 56.8798C77.8425 56.8715 77.6243 56.8624 77.4687 56.853C77.3354 56.8449 77.2863 56.8383 77.2862 56.8393C77.2861 56.8396 77.2904 56.8405 77.2981 56.8423M100.305 56.8874L100.823 56.6231L100.826 56.6215C101.613 56.2233 102.21 55.5995 102.658 54.6703M77.2981 56.8423L77.3029 56.8433L77.3125 56.8457C77.3069 56.8443 77.302 56.8432 77.2981 56.8423ZM79.8396 45.5611C77.0105 41.2824 74.7525 37.8318 73.2914 35.5959L79.8396 45.5611Z" stroke="#08083B" stroke-width="2"/>
<path d="M12.6844 36.4103C10.5194 37.1004 9.76233 39.6538 11.1968 41.3929C13.0032 43.5875 16.4167 42.3315 16.4433 39.4606C16.4566 37.3764 14.5439 35.8306 12.6844 36.4103Z" fill="#08083B"/>
</svg>
