<svg width="90" height="74" viewBox="0 0 90 74" fill="none" xmlns="http://www.w3.org/2000/svg">
<path d="M46.6586 0.171341C43.1384 0.486847 38.91 1.83301 35.8689 3.64191C29.5784 7.36489 24.7876 14.285 23.517 21.4575L23.267 22.8878H16.2266C9.18626 22.8878 9.18626 22.8878 8.87382 23.3505C8.4364 23.9816 8.45723 24.276 8.95714 24.7808C9.3529 25.1805 9.64451 25.2015 16.2266 25.2015H23.0587L23.1837 27.7676C23.2462 29.1979 23.3712 30.5651 23.4337 30.8175L23.5795 31.3013H16.3516C9.68617 31.3013 9.08211 31.3223 8.83216 31.6589C8.4364 32.1847 8.47806 32.6475 8.91548 33.0471C9.26958 33.3626 10.1028 33.4047 16.6849 33.4047H24.0586L24.4543 34.6246C24.6626 35.2767 25.2042 36.6018 25.6416 37.5483C26.0999 38.4948 26.454 39.3152 26.454 39.3783C26.454 39.4414 22.6005 39.5045 17.9138 39.5045C9.64451 39.5045 9.3529 39.5255 8.95714 39.9251C8.4364 40.451 8.41557 41.0189 8.91548 41.4606C9.26958 41.7761 10.2486 41.8182 18.6637 41.8182H28.0162L29.9742 43.9426C31.0365 45.0994 32.4737 46.4456 33.1611 46.9294L34.4109 47.8128L21.8506 47.8759C10.5402 47.918 9.26958 47.96 8.91548 48.2755C8.39474 48.7383 8.4364 49.5165 9.01962 49.9162C9.43621 50.2107 11.0817 50.2317 24.0169 50.2317L38.5768 50.2107L39.9515 50.7365C42.7635 51.8092 44.534 52.1458 47.8251 52.272C53.4074 52.4823 57.5317 51.4937 62.0308 48.8224L63.5722 47.918L64.1971 48.4438C65.2386 49.3483 66.4467 49.0538 66.4467 47.918C66.4467 47.2659 64.4679 45.1836 63.8638 45.1836C63.6555 45.1836 62.8432 45.6043 62.0933 46.1091C58.0316 48.8014 53.9073 50.0213 48.9291 50.0424C43.0135 50.0424 38.2018 48.2335 33.6402 44.3212C31.6197 42.5754 31.4322 42.3861 29.8492 40.1986C26.8706 36.1391 25.3917 31.4696 25.3917 26.148C25.3917 19.9641 27.5371 14.4953 31.7238 9.95204C39.8057 1.1389 53.0741 -0.165199 62.8015 6.90214C72.2582 13.7802 75.3201 26.737 69.9877 37.1066C69.4462 38.1583 68.7171 39.4203 68.3422 39.9251C67.9881 40.43 67.6965 40.9979 67.6965 41.2292C67.6965 41.4396 68.1964 42.1337 68.8004 42.7647C70.0502 44.0688 70.7793 44.2581 71.3208 43.4588C71.7791 42.8068 71.7374 42.5754 71.0084 41.734L70.3835 40.9979L71.2167 39.6727C72.9664 36.8542 74.4453 32.353 74.7577 28.8193C75.5492 19.6486 72.029 11.3613 64.8637 5.59805C63.5722 4.5674 62.864 4.12569 60.4061 2.7585C58.0732 1.4544 54.5114 0.486847 51.012 0.171341C49.6997 0.0661736 48.5958 -0.0179634 48.5333 0.00307083C48.4708 0.00307083 47.6376 0.0872078 46.6586 0.171341Z" fill="#08083B"/>
<path d="M0.354102 2.94797C0.0208296 3.20037 0 5.51408 0 38.2426V73.2638L0.437421 73.6214C0.854012 73.979 2.45789 74 27.6825 74C48.8661 74 54.5734 73.9369 54.99 73.7266L55.5108 73.4531L55.5733 65.0186L55.6149 56.563L55.0942 56.2054C54.6151 55.8899 54.5318 55.8899 54.0527 56.2054L53.532 56.542V64.2193V71.8966H27.8075H2.08296V38.4529V5.00927H15.7055C30.557 5.00927 29.9946 5.05134 29.9946 3.85242C29.9946 2.67452 30.3278 2.69556 14.8931 2.69556C3.8743 2.69556 0.624887 2.75866 0.354102 2.94797Z" fill="#08083B"/>
<path d="M46.5542 6.6288C38.3265 7.76463 31.6611 13.9275 29.8697 22.0886C29.4531 23.9817 29.3907 28.1674 29.7864 29.9342C30.6613 34.1199 32.3693 37.296 35.2229 40.1566C39.0139 43.9427 43.5547 45.8568 48.8455 45.8778C54.3653 45.9199 59.3019 43.8375 63.0304 39.9042C66.0923 36.644 67.842 32.8789 68.3627 28.3356C69.4251 19.2911 63.8427 10.478 55.1776 7.53326C52.6989 6.67087 49.0121 6.29226 46.5542 6.6288ZM51.6574 9.00562C57.7188 9.97317 62.9471 14.2851 65.1133 20.1114C67.5087 26.4636 65.9882 33.573 61.2182 38.4529C55.6359 44.1741 46.9708 45.3099 40.2012 41.1873C37.4725 39.5466 35.4312 37.4433 33.994 34.8771C29.5156 26.8422 31.8485 16.8933 39.4097 11.7821C40.2428 11.2352 41.3676 10.5621 41.8884 10.3307C44.7212 9.00562 48.4289 8.50081 51.6574 9.00562Z" fill="#08083B"/>
<path d="M72.7164 44.7423C71.8416 45.0578 71.2167 45.5205 69.7378 46.9929C67.3216 49.4118 66.9883 50.0428 67.1133 52.041C67.1966 53.324 67.3216 53.7237 67.8215 54.3757C69.0921 56.0584 80.0901 66.9118 80.9233 67.2904C81.9023 67.7532 83.2354 67.7953 84.4226 67.4377C85.5474 67.1011 89.0468 63.7357 89.6092 62.4737C90.1299 61.2958 90.1299 59.5711 89.6092 58.3932C89.3176 57.7411 87.4221 55.7008 82.9854 51.2417C77.1115 45.3733 76.6949 44.9947 75.6326 44.6792C74.2162 44.2585 74.112 44.2585 72.7164 44.7423ZM75.0702 46.8667C75.3618 46.9718 78.2988 49.8114 81.6107 53.1558C87.922 59.55 88.1511 59.8445 87.6721 61.1276C87.5679 61.4431 87.0055 62.1582 86.4431 62.7472C85.8807 63.3151 85.4225 63.883 85.4433 64.0092C85.4641 64.1143 85.0684 64.535 84.5685 64.9347C83.7353 65.5657 83.5478 65.6288 82.6313 65.5236L81.5898 65.4395L75.3826 59.1504C69.1754 52.8613 69.1546 52.8403 69.1546 51.9568C69.1546 50.842 69.5503 50.0428 70.446 49.2855C70.821 48.97 71.5292 48.339 72.0082 47.8973C73.2788 46.7194 74.0287 46.467 75.0702 46.8667Z" fill="#08083B"/>
<path d="M8.87364 56.6683C8.41539 57.1311 8.45705 57.72 8.99862 58.2038C9.43604 58.6245 9.68599 58.6455 27.7036 58.6455C45.9086 58.6455 45.9711 58.6455 46.5335 58.2038C47.1584 57.699 47.2209 57.1731 46.7001 56.6894C46.346 56.3528 44.7213 56.3318 27.7452 56.3318C11.1649 56.3318 9.16525 56.3739 8.87364 56.6683Z" fill="#08083B"/>
<path d="M47.3258 13.5071C46.0969 13.9067 45.097 14.727 44.4305 15.9049C43.8889 16.8094 43.8473 17.1249 43.7639 19.3545L43.7015 21.8365H42.9308C42.5142 21.8365 42.0559 21.9416 41.9101 22.0889C41.7226 22.2782 41.6602 24.2764 41.6602 29.7662C41.6602 36.8756 41.681 37.1911 42.0559 37.4014C42.66 37.7169 55.6576 37.6959 55.9909 37.3594C56.345 37.0018 56.345 22.4464 55.9909 22.0889C55.8451 21.9416 55.3868 21.8365 54.9494 21.8365H54.1579V19.712C54.1579 18.5342 54.0537 17.209 53.9079 16.7673C53.5955 15.6946 52.4499 14.3695 51.3876 13.8226C50.3253 13.2547 48.4922 13.1285 47.3258 13.5071ZM50.0545 15.8208C50.4294 15.968 50.9918 16.4097 51.3042 16.7673C51.8458 17.4194 51.8666 17.5666 51.8666 19.6489V21.8365H48.9505H46.0344V19.7541C46.0344 17.9662 46.0969 17.6087 46.5134 16.9777C47.0134 16.1994 48.1381 15.5263 48.9088 15.5263C49.1588 15.5263 49.6795 15.6525 50.0545 15.8208ZM53.9496 29.7241V35.2981H48.9505H43.9514V29.7241V24.1502H48.9505H53.9496V29.7241Z" fill="#00B0F2"/>
<path d="M47.4705 25.8961C46.0333 26.8847 45.8875 28.8408 47.1789 30.1028C47.8663 30.7759 47.908 30.9021 47.908 32.1852C47.908 33.6786 48.1163 34.0361 48.9703 34.0361C49.8243 34.0361 50.1992 33.342 50.1992 31.8066C50.1992 30.839 50.2825 30.4814 50.5117 30.3763C50.6783 30.3132 51.0116 29.9556 51.2407 29.577C52.7196 27.095 49.8451 24.2765 47.4705 25.8961ZM49.2827 27.9574C49.491 28.315 49.0119 28.7146 48.7203 28.4201C48.4704 28.1677 48.637 27.726 48.9494 27.726C49.0536 27.726 49.1994 27.8312 49.2827 27.9574Z" fill="#00B0F2"/>
<path d="M75.4025 59.1713C78.5477 62.3474 81.1722 64.9556 81.2347 64.9556C81.2972 64.9556 78.756 62.3474 75.6107 59.1713C72.4655 55.9952 69.841 53.387 69.7785 53.387C69.716 53.387 72.2572 55.9952 75.4025 59.1713Z" fill="#ECECEC"/>
<path d="M70.1337 49.7694C69.4047 50.5266 69.1339 51.4942 69.3838 52.3776C69.5088 52.8824 71.196 54.7334 75.6744 59.2346L81.7774 65.3765H82.7147C83.4438 65.3765 83.8812 65.2292 84.5477 64.7455C85.4851 64.0513 85.5059 63.6938 84.6311 63.6938C83.7979 63.6938 71.321 51.1156 71.0085 49.9798C70.9044 49.538 70.7794 49.1805 70.7378 49.1805C70.7169 49.1805 70.4461 49.4539 70.1337 49.7694Z" fill="#ECECEC"/>
<path d="M2.0835 68.3211V71.6865H27.808H53.5325V68.3211V64.9557H27.808H2.0835V68.3211Z" fill="#ECECEC"/>
</svg>
