<svg width="64" height="73" viewBox="0 0 64 73" fill="none" xmlns="http://www.w3.org/2000/svg">
<path d="M41.2774 7.7855C41.2162 5.49362 41.1204 3.56301 41.034 3.03486C41.0363 3.03409 41.0387 3.03326 41.0411 3.03235L41.2774 7.7855ZM41.2774 7.7855C41.3498 11.1626 41.4946 12.8856 41.7119 13.2302L41.2774 7.7855ZM0.292004 2.3698L0.292047 2.36958C0.472971 1.44407 1.07896 0.81456 2.10086 0.460899C2.12787 0.45163 2.19343 0.438522 2.30858 0.424492C2.41962 0.410965 2.56567 0.397766 2.74529 0.384995C3.1043 0.359474 3.59171 0.336037 4.18994 0.314697C5.38609 0.272041 7.02039 0.237961 8.9462 0.21212C12.7976 0.160446 17.8116 0.141777 22.8109 0.153267C27.8101 0.164749 32.794 0.206383 36.585 0.275284C38.4806 0.309738 40.0771 0.350998 41.2279 0.398666C41.8035 0.422508 42.2662 0.447899 42.5984 0.474716C42.7648 0.488144 42.8965 0.501778 42.9926 0.515465C43.0407 0.522316 43.0779 0.528915 43.105 0.535034C43.1312 0.540955 43.1403 0.544777 43.1397 0.544357C43.2685 0.613991 43.5525 0.833755 43.9657 1.18414C44.3753 1.53145 44.8988 1.99573 45.497 2.5394C46.6932 3.62656 48.185 5.02837 49.6553 6.44061C51.1256 7.85287 52.5736 9.27474 53.6823 10.402C54.2368 10.9657 54.7055 11.4549 55.0495 11.8319C55.2216 12.0205 55.3614 12.18 55.4648 12.306C55.5715 12.4363 55.6301 12.5199 55.65 12.5607L55.6505 12.5617C55.8433 12.9503 55.9556 13.3245 56.0183 14.3507C56.0813 15.3817 56.0935 17.0534 56.0935 20.0303C56.0935 23.6801 56.0868 25.5 55.8996 26.5603C55.8072 27.0836 55.6727 27.4085 55.4805 27.6731C55.2849 27.9425 55.0238 28.1586 54.6526 28.4597L0.292004 2.3698ZM0.292004 2.3698C0.292165 2.36898 0.290239 2.38389 0.287814 2.4274C0.285646 2.46628 0.283431 2.51988 0.281192 2.5883C0.27672 2.72498 0.272245 2.91784 0.267794 3.16431C0.258895 3.6571 0.25013 4.36205 0.241645 5.2559C0.224676 7.0435 0.208837 9.58535 0.195259 12.6938C0.168104 18.9108 0.15 27.3935 0.15 36.6401C0.15 51.8833 0.162072 60.3078 0.216372 65.0277C0.243528 67.3882 0.281225 68.8195 0.333053 69.7131C0.385086 70.6102 0.450942 70.9481 0.525097 71.1354C0.575189 71.2547 0.613767 71.3656 0.6482 71.4653L0.651377 71.4745C0.685138 71.5723 0.714275 71.6567 0.747794 71.7346C0.814401 71.8893 0.894791 72.0096 1.04795 72.1136C1.20697 72.2216 1.4545 72.3188 1.86882 72.4014C2.28191 72.4838 2.84937 72.5495 3.63977 72.6017C6.44598 72.7872 11.9908 72.7993 23.2009 72.8236C24.634 72.8268 26.1597 72.8301 27.7842 72.834C37.826 72.857 44.2522 72.857 48.2583 72.8225C50.2615 72.8053 51.6582 72.7794 52.5988 72.7436C53.0693 72.7257 53.424 72.7054 53.6827 72.6826C53.9458 72.6593 54.0976 72.6344 54.1705 72.6113C54.7181 72.4375 55.2462 72.0441 55.5654 71.5884L55.566 71.5876L56.0935 70.8455V59.6824C56.0935 55.5816 56.0754 52.7747 56.0332 50.9934C56.0121 50.1022 55.985 49.4705 55.9514 49.0627C55.9345 48.8578 55.9164 48.7148 55.8979 48.6251C55.8974 48.6225 55.8968 48.6199 55.8963 48.6174C55.8747 48.6256 55.8496 48.6368 55.8209 48.6519C55.7456 48.6916 55.6575 48.7516 55.5598 48.8302C55.3646 48.9872 55.1433 49.2084 54.9269 49.4595C54.4909 49.9654 54.0979 50.5652 53.9737 50.9711C53.9595 51.024 53.9433 51.1305 53.9269 51.2974C53.9107 51.4629 53.8952 51.6785 53.8805 51.9419C53.8512 52.4684 53.8256 53.1809 53.8045 54.0547C53.7623 55.8019 53.7382 58.1898 53.7382 61.0149V70.2731V70.4231H53.5882H28.2424H2.89666H2.74666V70.2731V36.6171V2.96109V2.81109H2.89666H21.8456C27.0595 2.81109 31.8147 2.80534 35.2814 2.79386C37.0148 2.78812 38.4259 2.78094 39.411 2.77232C39.9036 2.76802 40.2893 2.76336 40.5555 2.75835C40.6886 2.75584 40.7911 2.75326 40.8618 2.75062C40.8974 2.74929 40.9237 2.74799 40.9415 2.74677C40.946 2.74645 40.9496 2.74617 40.9523 2.74593C40.9536 2.74582 40.9548 2.74571 40.9557 2.74561C41.0382 2.72738 41.0931 2.77818 41.1109 2.79902C41.1299 2.8213 41.1403 2.84506 41.1454 2.85796C41.1569 2.88665 41.1653 2.92144 41.172 2.95522C41.1861 3.02563 41.1996 3.12608 41.2127 3.25005C41.2391 3.49957 41.2657 3.86065 41.2914 4.30499C41.3428 5.19444 41.3911 6.42519 41.4273 7.78149L41.4274 7.78229C41.4636 9.46988 41.5178 10.7414 41.5898 11.6329C41.6259 12.0789 41.6662 12.4271 41.7104 12.6835C41.7559 12.9482 41.8023 13.0924 41.8388 13.1502L41.8389 13.1501L41.842 13.1556C41.9826 13.4008 42.1111 13.5738 42.3028 13.7078C42.4963 13.8429 42.7674 13.9474 43.2081 14.0274C44.0956 14.1884 45.6075 14.2403 48.4014 14.2978L48.4016 14.2978L53.7121 14.4127L53.8565 14.4158L53.8589 14.5602L53.9796 21.8887L54.0952 28.9099M0.292004 2.3698L54.0952 28.9099M54.0952 28.9099L54.6524 28.4599L54.0952 28.9099ZM47.5392 8.48383L47.5395 8.48412L50.6051 11.5855L50.8576 11.841H50.4984H47.2155H43.9327H43.7827V11.691V8.58957C43.7827 7.73721 43.8069 6.95822 43.8464 6.39092C43.8661 6.10796 43.8899 5.87418 43.9171 5.7093C43.9305 5.62798 43.9457 5.55685 43.964 5.5033C43.9727 5.47753 43.9852 5.44666 44.004 5.41937C44.0184 5.3983 44.065 5.33816 44.1499 5.33816C44.1844 5.33816 44.212 5.34916 44.2237 5.35413C44.2388 5.36054 44.253 5.36835 44.2652 5.37563C44.2897 5.39032 44.3174 5.40986 44.3468 5.43201C44.406 5.47678 44.4831 5.54082 44.5747 5.62055C44.7584 5.78054 45.0084 6.01051 45.3061 6.29243C45.902 6.85666 46.6937 7.63314 47.5392 8.48383Z" fill="#08083B" stroke="white" stroke-width="0.3"/>
<path d="M5.51431 9.70112L5.51416 9.70134C5.45145 9.79584 5.39478 9.94565 5.34747 10.1451C5.30059 10.3427 5.26459 10.5814 5.23921 10.8483C5.18847 11.382 5.18088 12.0211 5.21088 12.6537C5.2409 13.2864 5.30838 13.9095 5.40677 14.4114C5.45599 14.6625 5.51252 14.881 5.57506 15.0543C5.63844 15.23 5.70411 15.3479 5.76595 15.4095C5.81252 15.4533 5.92089 15.5034 6.09938 15.5504C6.27315 15.5962 6.49675 15.635 6.7554 15.6663C7.27228 15.7289 7.91982 15.7604 8.56888 15.7604C9.21795 15.7604 9.86549 15.7289 10.3824 15.6663C10.641 15.635 10.8646 15.5962 11.0384 15.5504C11.2177 15.5032 11.3263 15.4528 11.3725 15.4089C11.447 15.3379 11.5212 15.2122 11.5898 15.0329C11.6577 14.8556 11.7168 14.635 11.7661 14.3834C11.8646 13.8803 11.9224 13.2624 11.9358 12.639C11.9493 12.0157 11.9185 11.3905 11.8415 10.873C11.803 10.6142 11.7532 10.3843 11.6924 10.196C11.6311 10.006 11.5612 9.86619 11.4867 9.78063L11.4865 9.78041L5.51431 9.70112ZM5.51431 9.70112C5.51529 9.70023 5.51783 9.69807 5.52278 9.69489C5.53285 9.68842 5.54867 9.68038 5.57178 9.67146C5.6181 9.65358 5.68393 9.63581 5.76914 9.61896C5.93896 9.58537 6.17237 9.55791 6.4507 9.53685C7.00655 9.49479 7.73062 9.479 8.45908 9.48759C9.1875 9.49618 9.91773 9.52913 10.4858 9.58405C10.7702 9.61155 11.0116 9.64433 11.1911 9.68175C11.281 9.7005 11.3528 9.71989 11.4056 9.73937C11.432 9.74908 11.4519 9.7582 11.4662 9.7663C11.4732 9.77031 11.4783 9.77371 11.4818 9.77638L5.51431 9.70112ZM10.2379 13.7583V13.8583H10.1379H8.68958H7.24125H7.14125V13.7583V12.4947V11.2312V11.1312H7.24125H8.68958H10.1379H10.2379V11.2312V12.4947V13.7583Z" fill="#08083B" stroke="white" stroke-width="0.2"/>
<path d="M16.1789 13.659L16.1789 13.659L16.1802 13.6594C16.2294 13.6757 16.349 13.6942 16.5434 13.7124C16.7333 13.7301 16.9844 13.7466 17.2885 13.7619C17.8965 13.7926 18.7129 13.8181 19.6689 13.8386C21.5805 13.8795 24.0475 13.9 26.5155 13.9C28.9836 13.9 31.4521 13.8795 33.3667 13.8386C34.3241 13.8181 35.1423 13.7926 35.7526 13.7619C36.0578 13.7466 36.3101 13.7301 36.5013 13.7123C36.6965 13.6943 36.8178 13.6757 36.8691 13.6593C37.4998 13.4532 37.8391 13.016 37.8926 12.5754C37.9459 12.137 37.7196 11.6688 37.1628 11.3875C36.8891 11.2564 36.6714 11.1818 35.2919 11.1428C33.9126 11.1037 31.3885 11.1 26.5126 11.1C21.6131 11.1 19.089 11.1037 17.7156 11.1428C16.342 11.1818 16.1361 11.2564 15.8622 11.3876C15.28 11.6774 15.0506 12.1459 15.1088 12.5798C15.1675 13.0168 15.5224 13.452 16.1789 13.659Z" fill="#08083B" stroke="white" stroke-width="0.2"/>
<path d="M6.08197 20.3288L6.07505 20.3343L6.06794 20.3396C5.93633 20.4377 5.88307 20.4891 5.84992 20.535C5.82272 20.5727 5.78997 20.6334 5.76207 20.7757C5.69843 21.1004 5.68994 21.6585 5.68994 22.8333C5.68994 23.9258 5.70961 24.5038 5.76973 24.8421C5.79824 25.0026 5.83026 25.072 5.85 25.1041C5.86548 25.1292 5.88687 25.1546 5.95154 25.198L5.95873 25.2029L5.96575 25.2079C5.96194 25.2052 5.96277 25.2055 5.96964 25.2083C5.98791 25.2156 6.04882 25.2402 6.1788 25.2697C6.33627 25.3054 6.54486 25.3379 6.79468 25.3651C7.29283 25.4194 7.91815 25.4491 8.55049 25.4519C9.18281 25.4547 9.80961 25.4307 10.3107 25.3805C10.562 25.3553 10.7725 25.3244 10.9323 25.2897C11.073 25.2591 11.1364 25.2332 11.1529 25.2264C11.1536 25.2261 11.1542 25.2259 11.1547 25.2256C11.1619 25.2168 11.1964 25.1755 11.2429 25.0659C11.2994 24.9327 11.3534 24.7468 11.3993 24.5124C11.4909 24.0454 11.5393 23.4461 11.5393 22.8275C11.5393 22.2097 11.4911 21.5937 11.3984 21.0946C11.352 20.8447 11.2965 20.6351 11.2355 20.4738C11.1792 20.3247 11.1295 20.2474 11.102 20.2149C11.0603 20.1856 10.9317 20.1225 10.5641 20.0757C10.1694 20.0254 9.58113 20.0021 8.69007 20.0021C7.7067 20.0021 7.12767 20.0202 6.74138 20.0772C6.38377 20.1299 6.22982 20.2103 6.08197 20.3288Z" stroke="#08083B"/>
<path d="M16.1386 21.3196L16.1381 21.3198C15.5003 21.5349 15.1581 21.976 15.1068 22.4178C15.0559 22.857 15.2891 23.3261 15.8646 23.6103L15.8646 23.6103L15.8653 23.6107C16.1387 23.7485 16.3282 23.8249 18.3915 23.8625C20.4476 23.9 24.3464 23.9 32.0164 23.9H47.5883L48.2537 23.4809C48.2539 23.4808 48.2541 23.4807 48.2542 23.4806C48.7774 23.1438 48.9616 22.7085 48.8827 22.3192C48.8028 21.9253 48.4458 21.5381 47.8005 21.3201C47.6581 21.2754 47.426 21.2375 46.9436 21.2074C46.462 21.1773 45.7383 21.1553 44.6176 21.1394C42.3767 21.1075 38.5548 21.1 31.9213 21.1C25.5855 21.1075 21.7635 21.1188 19.4599 21.1506C18.3079 21.1666 17.537 21.1876 17.0219 21.2159C16.502 21.2444 16.2542 21.2799 16.1386 21.3196Z" fill="#08083B" stroke="white" stroke-width="0.2"/>
<path d="M5.26506 33.7145L5.26509 33.7149C5.3075 34.3088 5.34484 34.7475 5.42647 35.0767C5.50717 35.4022 5.62792 35.6068 5.82845 35.7446C6.03426 35.8859 6.33777 35.9668 6.80724 36.0099C7.27512 36.0528 7.89178 36.0572 8.71375 36.0572C9.57304 36.0572 10.2093 36.0571 10.6829 36.0065C11.1579 35.9557 11.446 35.8558 11.6274 35.6756C11.8079 35.4963 11.9012 35.2189 11.9373 34.7634C11.9733 34.3087 11.9511 33.6998 11.9209 32.8762C11.8846 32.1107 11.8546 31.5401 11.7844 31.1095C11.7142 30.6787 11.6062 30.4056 11.4272 30.2224C11.2489 30.0399 10.9855 29.932 10.5693 29.8662C10.1525 29.8002 9.59968 29.7787 8.85549 29.7557L8.85546 29.7557C8.1216 29.7328 7.52227 29.7443 7.05668 29.7841C6.59061 29.8239 6.26749 29.8914 6.07795 29.9755C5.74175 30.1523 5.49452 30.521 5.35333 31.1369C5.21179 31.7543 5.18087 32.6042 5.26506 33.7145ZM10.1895 32.9808L10.1895 32.981L10.2619 34.1986L10.2682 34.3045H10.1621H8.71375H7.24128H7.14128V34.2045V32.941V31.6544V31.5494L7.2462 31.5546L8.64625 31.6235L8.64634 31.6235L10.0222 31.6924L10.1116 31.6969L10.1171 31.7862L10.1895 32.9808Z" fill="#08083B" stroke="white" stroke-width="0.2"/>
<path d="M57.505 30.6814L57.5049 30.6814C57.7297 30.535 57.9726 30.4054 58.1793 30.3126C58.2826 30.2662 58.3757 30.2297 58.4521 30.2049C58.5315 30.1791 58.5836 30.1692 58.609 30.1692C58.6592 30.1692 58.7426 30.1886 58.8598 30.2336C58.9743 30.2776 59.1118 30.3424 59.2667 30.4246C59.5762 30.5889 59.9486 30.8193 60.3328 31.0821C61.1029 31.6089 61.9096 32.2582 62.348 32.7544L62.3489 32.7554C62.9612 33.4295 63.3951 34.0306 63.6459 34.536C63.8988 35.0456 63.9555 35.4376 63.8505 35.7074L63.8484 35.7128L63.8486 35.7129C63.828 35.7766 63.7754 35.8835 63.6926 36.0276C63.611 36.1695 63.5035 36.3415 63.3774 36.5329C63.1253 36.9156 62.8007 37.3733 62.4638 37.8199L62.4631 37.8209L62.4631 37.8209L61.3488 39.336L58.0276 36.063L57.505 30.6814ZM57.505 30.6814L57.5023 30.6831M57.505 30.6814L57.5023 30.6831M57.5023 30.6831C56.8041 31.107 56.0877 31.5767 55.5434 31.9574M57.5023 30.6831L55.5434 31.9574M55.5434 31.9574C55.2711 32.1479 55.0428 32.3153 54.8818 32.4431M55.5434 31.9574L54.8818 32.4431M54.8818 32.4431C54.801 32.5071 54.7387 32.56 54.6966 32.6001M54.8818 32.4431L54.6966 32.6001M54.6966 32.6001C54.6886 32.6077 54.6816 32.6146 54.6755 32.6208M54.6966 32.6001L54.6755 32.6208M54.6755 32.6208C54.6824 32.6292 54.6902 32.6386 54.6991 32.6492C54.743 32.7012 54.8087 32.7748 54.8944 32.8682C55.0656 33.0547 55.3138 33.3168 55.6214 33.6353C56.2363 34.2721 57.0866 35.133 58.0275 36.0629L54.6755 32.6208Z" fill="#08083B" stroke="white" stroke-width="0.2"/>
<path d="M16.2705 33.7847L16.2943 33.6876C16.3187 33.6936 16.3717 33.7009 16.4579 33.7085C16.5419 33.716 16.6519 33.7233 16.7866 33.7305C17.0558 33.7448 17.4209 33.7582 17.8687 33.7708C18.7641 33.7961 19.9879 33.8178 21.4312 33.8358C24.3177 33.8719 28.0811 33.8933 31.8498 33.8987C35.6185 33.904 39.3923 33.8933 42.2997 33.8652C43.7534 33.8512 44.9902 33.8328 45.9013 33.8099C46.3569 33.7985 46.7305 33.7859 47.0089 33.7723C47.2912 33.7584 47.4668 33.7437 47.5332 33.7297L47.5336 33.7296C48.1662 33.5987 48.6072 33.2607 48.7959 32.8873C48.8899 32.7013 48.9215 32.507 48.8863 32.3217C48.8512 32.137 48.7482 31.9541 48.561 31.7924C48.3503 31.6138 48.2014 31.4887 47.8526 31.3925C47.4947 31.2938 46.9271 31.2262 45.8818 31.1816C43.7939 31.0926 39.836 31.0962 31.9243 31.1033C27.8739 31.1104 24.1394 31.1211 21.3847 31.1354C20.0073 31.1425 18.8751 31.1505 18.0709 31.1594C17.6687 31.1639 17.3489 31.1686 17.1215 31.1735C17.0078 31.1759 16.9176 31.1784 16.852 31.1809C16.8191 31.1822 16.7929 31.1835 16.7732 31.1847C16.7633 31.1853 16.7554 31.1859 16.7494 31.1865L16.7422 31.1872L16.7401 31.1875L16.7395 31.1875C16.7393 31.1876 16.7395 31.1875 16.7393 31.1876L16.7393 31.1876L16.7377 31.1878C15.7386 31.3339 15.1981 31.8695 15.1124 32.3889C15.0696 32.6483 15.137 32.9136 15.3262 33.1435C15.5163 33.3744 15.8334 33.5738 16.2945 33.6876L16.2705 33.7847ZM16.2705 33.7847C17.3189 34.0415 46.3387 34.0843 47.5539 33.8275M16.2705 33.7847C14.3645 33.314 14.6742 31.3884 16.7232 31.0889L47.5539 33.8275M47.5539 33.8275C48.8643 33.5565 49.4361 32.4154 48.626 31.7165C47.7683 30.989 47.7445 30.989 31.9241 31.0033L47.5539 33.8275Z" fill="#08083B" stroke="white" stroke-width="0.2"/>
<path d="M59.7655 40.4792L59.7656 40.479C59.8078 40.4318 59.8332 40.3848 59.8443 40.3339C59.8554 40.2826 59.8536 40.22 59.8299 40.1391C59.7812 39.9733 59.6453 39.7473 59.3796 39.423C58.8505 38.7771 57.8419 37.7825 56.1267 36.1616C55.1483 35.2419 54.5128 34.6717 54.0929 34.3599C53.8818 34.2032 53.7334 34.1182 53.6285 34.084C53.5283 34.0513 53.4885 34.0704 53.4641 34.0936C53.3877 34.1664 53.3215 34.2555 53.2749 34.3416C53.2324 34.4201 53.2108 34.4874 53.2063 34.5329L53.207 34.534C53.2153 34.5473 53.2293 34.5669 53.2499 34.5934C53.2909 34.6458 53.3527 34.7182 53.4338 34.8088C53.5957 34.9896 53.8307 35.2383 54.1215 35.5366C54.7028 36.1328 55.5045 36.9245 56.3849 37.7623C57.7743 39.0847 58.5847 39.8328 59.0804 40.2136C59.3303 40.4056 59.4886 40.4948 59.5938 40.523C59.6437 40.5364 59.6755 40.5342 59.6973 40.5276C59.719 40.521 59.7408 40.507 59.7655 40.4792Z" fill="#08083B" stroke="white" stroke-width="0.2"/>
<path d="M44.8949 42.2491L44.8946 42.2495C43.0485 43.9835 41.305 45.66 39.984 46.9603C39.3235 47.6104 38.7689 48.1662 38.3601 48.5879C37.9477 49.0132 37.6912 49.2946 37.6188 49.4007L37.6188 49.4007L37.6168 49.4035C37.2868 49.8522 36.808 50.83 36.5443 51.5828L36.5443 51.5828L36.5439 51.5839C36.2321 52.4401 35.7926 54.0209 35.4518 55.4101C35.2815 56.1042 35.1364 56.7485 35.0444 57.2286C34.9984 57.469 34.966 57.6662 34.9504 57.8073C34.9429 57.8746 34.9396 57.9264 34.9399 57.9629C34.9783 57.9622 35.033 57.9576 35.1038 57.9488C35.2473 57.9311 35.4472 57.8974 35.6899 57.8507C36.1748 57.7574 36.8242 57.6135 37.5219 57.4457C38.9186 57.1098 40.5009 56.6801 41.3398 56.3721L41.3398 56.3721L41.3423 56.3713C42.0794 56.1223 43.3258 55.4613 44.1159 54.8916L44.1159 54.8916L44.1177 54.8904C45.9432 53.6331 50.3297 49.574 54.7968 45.0928C56.3315 43.5287 57.1593 42.672 57.5625 42.1633C57.766 41.9064 57.8489 41.7529 57.869 41.6513C57.8782 41.6048 57.8737 41.5715 57.8624 41.5432C57.8505 41.5135 57.8286 41.4825 57.7921 41.445C57.7538 41.4113 57.7214 41.3915 57.6888 41.3816C57.6567 41.3719 57.6162 41.3694 57.5582 41.384C57.4354 41.4151 57.2522 41.5179 56.9506 41.7504C56.3518 42.2119 55.3362 43.144 53.4878 44.8687L53.4875 44.8689C50.3368 47.7871 47.4392 50.3839 45.2052 52.3061C44.0882 53.2671 43.1366 54.06 42.4018 54.6402C42.0345 54.9303 41.7206 55.1678 41.467 55.3468C41.2155 55.5243 41.0176 55.6484 40.8838 55.7074C40.1515 56.0326 39.535 56.172 38.9729 56.1059C38.4083 56.0395 37.9124 55.7675 37.419 55.2979C37.047 54.9439 36.8208 54.7014 36.7089 54.454C36.5933 54.1985 36.6041 53.9492 36.6653 53.6001L36.6653 53.5999C36.667 53.5904 36.6686 53.5811 36.6703 53.5717C36.7461 53.1438 36.8058 52.8072 37.0129 52.3901C37.2232 51.9666 37.5831 51.4642 38.2573 50.6887C39.6057 49.1378 42.234 46.4697 47.5067 41.1185C48.8821 39.7177 50.1186 38.4261 51.0019 37.4765C51.4436 37.0015 51.7965 36.6126 52.0341 36.3386C52.1531 36.2014 52.2421 36.0943 52.2986 36.0201C52.3099 36.0053 52.3195 35.9923 52.3277 35.9809C52.3006 35.9664 52.2712 35.9579 52.2373 35.9552C52.1746 35.9503 52.0885 35.9652 51.9668 36.0173C51.7215 36.1221 51.3644 36.3629 50.8215 36.8065C49.7388 37.6909 47.9495 39.3535 44.8949 42.2491ZM34.9434 58.0057C34.9434 58.0057 34.9432 58.005 34.9428 58.0037L34.9434 58.0057Z" fill="#08083B" stroke="white" stroke-width="0.2"/>
<path d="M46.8271 44.1333L46.8269 44.1335L39.9301 50.6973V51.964V53.1734H41.0853H42.3005L49.3443 46.4698L56.3124 39.8381L54.9968 38.7155L53.6655 37.5795L46.8271 44.1333Z" fill="#08083B" stroke="white" stroke-width="0.2"/>
<path d="M6.28056 40.695L6.28065 40.6951L6.26828 40.7008C6.05285 40.8002 5.85189 41.0154 5.7267 41.5261C5.59838 42.0495 5.5688 42.8176 5.66375 43.9019L5.66414 43.9068C5.71331 44.5385 5.752 44.9663 5.82454 45.277C5.89413 45.575 5.9781 45.687 6.06397 45.7517C6.16837 45.8303 6.36336 45.9057 6.79059 45.9486C7.2118 45.9908 7.77773 45.9956 8.56923 45.9956C9.36663 45.9956 9.93894 45.9908 10.3658 45.9485C10.799 45.9056 10.9995 45.8298 11.1073 45.7497C11.195 45.6845 11.2793 45.5731 11.3476 45.278C11.4191 44.9692 11.4551 44.5424 11.4981 43.9116L11.4981 43.9116L11.4983 43.9081C11.5809 42.8085 11.5298 41.9555 11.3824 41.3714C11.2296 40.7659 11.0185 40.6034 10.9073 40.5705C10.7146 40.526 10.3659 40.4904 9.91147 40.4718C9.46101 40.4534 8.93823 40.4526 8.42438 40.4681C7.90997 40.4836 7.41201 40.5152 7.01032 40.5603C6.80913 40.5829 6.63823 40.6082 6.5045 40.635C6.43778 40.6484 6.38441 40.6613 6.34358 40.6733C6.32339 40.6792 6.30794 40.6843 6.29663 40.6885C6.28505 40.6928 6.28025 40.6951 6.28056 40.695Z" stroke="#08083B"/>
<path d="M8.50002 44.5L7.62587 44.9856L8.51795 46.5914L9.38237 44.9706L8.50002 44.5ZM13.3824 37.4706C13.6423 36.9833 13.458 36.3775 12.9707 36.1176C12.4833 35.8577 11.8776 36.0421 11.6177 36.5294L13.3824 37.4706ZM5.12584 40.4856L7.62587 44.9856L9.37418 44.0144L6.87416 39.5144L5.12584 40.4856ZM9.38237 44.9706L13.3824 37.4706L11.6177 36.5294L7.61767 44.0294L9.38237 44.9706Z" fill="#00B0F2"/>
<path d="M8.50002 24.5L7.62587 24.9856L8.51795 26.5914L9.38237 24.9706L8.50002 24.5ZM13.3824 17.4706C13.6423 16.9833 13.458 16.3775 12.9707 16.1176C12.4833 15.8577 11.8776 16.0421 11.6177 16.5294L13.3824 17.4706ZM5.12584 20.4856L7.62587 24.9856L9.37418 24.0144L6.87416 19.5144L5.12584 20.4856ZM9.38237 24.9706L13.3824 17.4706L11.6177 16.5294L7.61767 24.0294L9.38237 24.9706Z" fill="#00B0F2"/>
<path d="M16.0237 42.3857L16.0237 42.3858L16.0224 42.3863C15.3877 42.6255 15.0974 43.0421 15.1 43.4481C15.1026 43.857 15.402 44.3043 16.0523 44.6017L16.0525 44.6018C16.2059 44.6724 16.334 44.7247 16.5886 44.7654C16.8476 44.8069 17.237 44.836 17.9113 44.8561C19.2589 44.8963 21.7262 44.9 26.5241 44.9C31.3221 44.9 33.7894 44.8963 35.137 44.8561C35.8113 44.836 36.2006 44.8069 36.4597 44.7654C36.7143 44.7247 36.8424 44.6724 36.9958 44.6018L36.996 44.6017C37.4335 44.4016 37.6983 44.1697 37.8195 43.916C37.9387 43.6668 37.9282 43.3774 37.7724 43.0383C37.649 42.7902 37.5629 42.6301 37.3452 42.5068C37.1186 42.3785 36.7409 42.2862 36.0183 42.224C34.5771 42.1001 31.8312 42.1 26.3591 42.1C21.797 42.1 19.3826 42.1037 18.0201 42.142C16.6572 42.1804 16.3599 42.2535 16.0237 42.3857Z" fill="#08083B" stroke="white" stroke-width="0.2"/>
</svg>
