<svg width="93" height="74" viewBox="0 0 93 74" fill="none" xmlns="http://www.w3.org/2000/svg">
<g clip-path="url(#clip0_19_206)">
<path d="M54.4012 0.0977478C46.1908 1.36156 39.5419 4.74857 34.0766 10.5368C32.8929 11.7754 31.2811 13.7722 30.5003 14.9349C29.0647 17.0834 26.8232 21.6078 26.8232 22.3156C26.8232 22.6189 27.2262 22.6947 29.0647 22.6947H31.3062L32.1374 20.9254C32.5655 19.9396 32.9685 19.156 33.0188 19.156C33.0692 19.156 34.2277 19.7121 35.6129 20.4198C37.6781 21.4562 38.0811 21.7595 37.9804 22.1639C37.8544 22.6189 38.0811 22.6441 44.0248 22.6694C49.7419 22.6947 50.2204 22.6694 50.3464 22.265C50.4219 22.0122 50.6486 21.077 50.8501 20.1671C51.0516 19.2571 51.5301 17.5636 51.8827 16.4009L52.5627 14.2777L54.0738 14.4546C54.9301 14.5305 56.0383 14.6063 56.5672 14.6063H57.5494V18.6505V22.6947H58.5568H59.5642V18.6505V14.6063H60.7731C61.4279 14.6063 62.5361 14.5305 63.2413 14.4546L64.5509 14.303L65.0546 15.8954C65.7346 17.9933 66.6161 21.4056 66.6161 21.987C66.6161 22.2144 66.868 22.543 67.1954 22.72C67.4976 22.8716 68.1021 23.3519 68.5302 23.7563L69.311 24.4893L71.6784 23.9332C72.988 23.6299 74.6502 23.1749 75.4058 22.9222C76.1614 22.6441 76.8414 22.4419 76.9421 22.4419C77.1436 22.4419 77.9999 25.1212 78.4281 27.118C78.7807 28.6346 79.1584 32.5271 78.9821 32.6788C78.9318 32.7546 76.791 32.8052 74.2473 32.8052H69.6384V33.8162V34.8273L74.348 34.8778L79.0577 34.9537L79.0073 36.2175C78.9066 37.9615 78.2769 41.3233 77.6725 43.2695L77.194 44.9125L76.111 44.5334C74.9273 44.1289 70.3436 42.9157 69.9154 42.9157C69.7643 42.9157 69.6384 43.3707 69.6384 43.9267C69.6384 44.8114 69.7139 44.9378 70.3436 45.0894C72.2325 45.5191 73.1643 45.7719 74.6754 46.2521C75.5821 46.5302 76.3629 46.8082 76.4132 46.8588C76.6903 47.1115 72.6354 53.7086 72.0562 53.9361C71.8799 54.0119 71.2754 53.9614 70.6961 53.8097L69.6384 53.5823V54.6944C69.6384 55.5032 69.7391 55.8066 70.0161 55.8066C70.2176 55.8066 70.3939 55.9077 70.3939 56.034C70.3939 56.1604 70.2176 56.3879 70.0161 56.5648C69.7643 56.7671 69.6384 57.3484 69.6384 58.2836V59.6991L71.2502 58.1067L72.8621 56.5143L74.0962 56.7923C76.1866 57.2979 76.2117 57.4242 74.1969 58.7133C73.2147 59.3452 71.7791 60.1793 71.0236 60.5079L69.6384 61.1398V63.44V65.7148L70.3184 65.5379C73.4665 64.7543 78.9318 61.1904 82.4829 57.6012C87.7718 52.2679 90.8193 46.1763 91.9778 38.7451C92.4563 35.5097 92.28 29.8479 91.5748 26.6125C88.7792 13.7722 78.7807 3.68697 65.8606 0.6791C63.7702 0.173576 56.3153 -0.180298 54.4012 0.0977478ZM54.2501 6.3157C53.822 7.04871 53.016 8.61583 52.4619 9.80382C51.9079 10.9918 51.4042 12.0028 51.3538 12.0534C51.2027 12.2051 46.9715 11.4973 46.9715 11.2951C46.9715 10.9412 50.6486 7.83227 52.739 6.4168C53.8975 5.63324 54.9049 5.00134 54.9553 5.00134C55.0057 5.00134 54.6783 5.60796 54.2501 6.3157ZM57.5494 8.81804V12.66L55.6353 12.5084C54.5775 12.4325 53.6457 12.3062 53.5701 12.2051C53.2931 11.927 57.0205 5.00134 57.4486 5.00134C57.499 5.00134 57.5494 6.72012 57.5494 8.81804ZM60.9242 6.82122C62.1583 8.84332 63.7198 12.0281 63.5435 12.2051C63.4679 12.2809 62.5613 12.4073 61.5035 12.4831L59.5642 12.66V8.81804C59.5642 6.72012 59.6146 5.00134 59.665 5.00134C59.7405 5.00134 60.2946 5.83545 60.9242 6.82122ZM65.4828 7.14981C67.1702 8.36307 70.1421 11.0171 70.1421 11.2951C70.1421 11.4973 65.9109 12.2051 65.7346 12.0534C65.7094 12.0028 65.2057 10.9918 64.6517 9.80382C64.0976 8.61583 63.2665 7.04871 62.8383 6.29042L62.0324 4.9255L62.9894 5.48158C63.5435 5.81017 64.6517 6.54318 65.4828 7.14981ZM49.4901 6.18932C49.0115 6.56846 47.6767 7.75644 46.5686 8.84332L44.5286 10.8401L42.9419 10.3852L41.3804 9.95547L41.9345 9.5005C43.3197 8.38835 49.1878 5.50686 50.1197 5.50686C50.2708 5.50686 49.9686 5.81017 49.4901 6.18932ZM68.7569 6.13876C70.7969 6.89705 74.0458 8.59056 75.028 9.37412L75.7584 9.98075L74.1717 10.4104L72.6102 10.8654L70.4191 8.74221C69.2354 7.57951 67.9258 6.36625 67.4976 6.06293C66.5154 5.3552 66.742 5.38048 68.7569 6.13876ZM42.7656 12.5842C42.8663 12.6853 42.2871 13.8227 41.4559 15.1118C40.6248 16.4262 39.7181 17.968 39.4915 18.5747C39.2396 19.1813 38.9626 19.6615 38.8367 19.6615C38.4841 19.6615 34.6811 17.6647 34.5048 17.3867C34.2781 17.0328 35.89 14.9096 37.8796 12.9128L39.4411 11.3709L41.0026 11.8765C41.8589 12.1545 42.6648 12.4831 42.7656 12.5842ZM80.3925 14.0502C81.0725 14.8338 81.954 15.9207 82.3318 16.4262L83.037 17.3614L80.7451 18.4988C79.4858 19.156 78.4029 19.6615 78.3273 19.6615C78.2769 19.6615 77.8236 18.9033 77.3451 17.9428C76.8666 17.0075 75.9599 15.4657 75.3303 14.5052C74.7006 13.5447 74.2221 12.7106 74.2725 12.6348C74.348 12.5842 75.1288 12.2809 75.9851 11.9523L77.5718 11.4215L78.3525 12.0028C78.7807 12.3314 79.6873 13.2414 80.3925 14.0502ZM48.2308 13.7216C49.3893 13.9238 50.3716 14.1261 50.4219 14.1766C50.4723 14.2272 50.1197 15.6426 49.6412 17.2856C49.1878 18.9285 48.7093 20.7737 48.6086 21.3551C48.5078 21.9617 48.3567 22.4419 48.2812 22.4419C46.9967 22.3661 40.927 20.6473 40.927 20.344C40.927 19.9396 42.6397 16.9317 44.0248 14.9096C44.9567 13.5447 45.3849 13.115 45.7123 13.2161C45.9389 13.2919 47.0723 13.5194 48.2308 13.7216ZM73.4162 15.4151C74.9525 17.69 76.1866 19.9396 76.1866 20.3946C76.1866 20.6473 70.0665 22.3661 68.8324 22.4419C68.7569 22.4419 68.6058 21.9617 68.505 21.3551C68.4043 20.7737 67.9258 18.9285 67.4724 17.2856C66.9939 15.6426 66.6413 14.2524 66.6665 14.2272C66.7169 14.1766 67.8754 13.9238 69.2606 13.6458C70.6458 13.3678 71.8043 13.1403 71.8295 13.115C71.8547 13.115 72.5599 14.1261 73.4162 15.4151ZM85.2029 21.3551C86.6889 24.6157 87.394 27.2697 87.8978 31.4655L88.0489 32.8052H84.6488C80.871 32.8052 80.9718 32.8557 80.9718 30.96C80.9718 29.4182 80.2666 25.6773 79.5866 23.5288L79.0073 21.6836L81.4503 20.4451C82.7851 19.7627 83.9436 19.1813 84.0192 19.1813C84.0948 19.156 84.6237 20.1418 85.2029 21.3551ZM88.0237 34.9031C88.0237 34.9284 87.8978 35.9394 87.7718 37.1021C87.394 40.1353 86.4118 43.6234 85.2785 46.1005L84.2711 48.2237L81.8029 46.9346C80.4429 46.2269 79.3095 45.595 79.2592 45.5697C79.2088 45.5191 79.4103 44.7103 79.6873 43.7498C80.3421 41.4749 80.9718 38.0626 80.9718 36.723C80.9718 34.7767 80.871 34.8273 84.6488 34.8273C86.5126 34.8273 88.0237 34.8526 88.0237 34.9031ZM80.5688 48.6281C83.2636 49.993 83.2385 49.9425 81.9036 51.6865C81.274 52.4954 80.1407 53.7845 79.3599 54.5427L77.9495 55.9077L76.1866 55.3263C75.2295 55.023 74.4236 54.6944 74.4236 54.6186C74.4236 54.5427 74.9777 53.5823 75.6577 52.5206C76.3377 51.459 77.2192 49.9425 77.5969 49.1589C77.9999 48.3501 78.4029 47.7182 78.5288 47.7182C78.6799 47.7182 79.5866 48.1226 80.5688 48.6281Z" fill="#00B0F2"/>
<path d="M9.12053 25.171C8.71757 25.6007 8.69238 27.4459 8.69238 46.3778C8.69238 66.1438 8.71757 67.1296 9.14572 67.5087C9.57387 67.8879 10.8583 67.9384 22.368 67.9384H35.137V69.0506V70.1627L33.4496 70.3397C28.7903 70.7946 25.8436 71.3002 23.9295 72.0332C22.9473 72.4123 21.7888 73.2212 21.7888 73.5245C21.7888 73.6508 28.3622 73.752 38.537 73.752C48.6616 73.752 55.2853 73.6508 55.2853 73.5245C55.2853 73.0442 53.9253 72.2101 52.2882 71.7046C50.6512 71.1991 47.2764 70.643 43.9015 70.3397L42.1889 70.1627V69.0506V67.9384H54.9075C67.2987 67.9384 67.6513 67.9131 68.1298 67.4329C68.6335 66.9274 68.6335 66.5988 68.6335 46.3778C68.6335 28.2042 68.5832 25.7777 68.2306 25.2721L67.8528 24.7161H38.6882C10.7576 24.7161 9.49831 24.7413 9.12053 25.171ZM66.8706 46.3272V65.9163H38.663H10.4554V46.3272V26.7382H38.663H66.8706V46.3272ZM62.4883 67.1549C62.2617 67.5087 61.6572 67.5087 61.4557 67.1801C61.355 67.0285 61.4305 66.7252 61.6068 66.523C61.8839 66.1944 61.9594 66.1944 62.2868 66.523C62.4883 66.7252 62.5639 67.0032 62.4883 67.1549Z" fill="#08083B"/>
<path d="M89.7893 74.8899C89.1848 75.5218 88.7315 76.0273 88.8071 76.0273C88.8826 76.0273 89.4367 75.5218 90.0411 74.8899C90.6456 74.258 91.0989 73.7525 91.0234 73.7525C90.9478 73.7525 90.3937 74.258 89.7893 74.8899Z" fill="#08083B"/>
</g>
<defs>
<clipPath id="clip0_19_206">
<rect width="93" height="74" fill="white" transform="matrix(1 0 0 -1 0 74)"/>
</clipPath>
</defs>
</svg>
