<svg width="80" height="74" viewBox="0 0 80 74" fill="none" xmlns="http://www.w3.org/2000/svg">
<path d="M39.2955 0.5508L39.2956 0.550928L39.2887 0.557503C39.1923 0.648817 39.1407 0.703899 39.1036 0.764488C39.0691 0.820919 39.0391 0.896092 39.0165 1.03301C38.9683 1.32441 38.9634 1.81624 38.9634 2.81684C38.9634 3.82551 38.9683 4.31694 39.0184 4.61387C39.0418 4.75299 39.0734 4.83517 39.1128 4.90227C39.155 4.97424 39.2131 5.04137 39.3139 5.14909C39.4913 5.33231 39.5798 5.39816 39.6608 5.42635C39.7376 5.45309 39.8425 5.45755 40.0862 5.41093L40.0861 5.41079L40.0944 5.40949C40.3411 5.37077 40.5016 5.3246 40.6156 5.25672C40.719 5.19514 40.7989 5.10678 40.8628 4.94591C40.9305 4.77568 40.9781 4.5293 41.007 4.16079C41.0357 3.79482 41.0448 3.32655 41.0448 2.72112V0.754718L40.6498 0.510591C40.3139 0.314721 40.066 0.242057 39.868 0.250891C39.6801 0.259271 39.4986 0.343032 39.2955 0.5508Z" fill="#08083B" stroke="white" stroke-width="0.5"/>
<path d="M28.1034 3.41873L28.1034 3.41881L28.0972 3.42201C27.6921 3.62919 27.5073 3.93673 27.5073 4.23637C27.5073 4.23636 27.5074 4.24082 27.5088 4.25082C27.5101 4.26055 27.5125 4.27345 27.5162 4.28987C27.5238 4.32298 27.5359 4.36511 27.5531 4.41642C27.5875 4.5191 27.6388 4.64782 27.7046 4.79666C27.8358 5.09382 28.0185 5.4578 28.2211 5.82976C28.6308 6.5822 29.1008 7.32836 29.375 7.62201C29.6319 7.88976 29.8968 8.01022 30.138 8.02072C30.3771 8.03112 30.6308 7.93534 30.873 7.69588L30.873 7.69586L30.8753 7.69361C31.017 7.55718 31.1017 7.43766 31.1472 7.31726C31.1915 7.19969 31.2058 7.06162 31.1735 6.87536C31.1058 6.48421 30.8444 5.9317 30.3177 5.03425C29.7664 4.12056 29.3804 3.61865 29.0455 3.39272C28.8881 3.28652 28.7509 3.24804 28.6152 3.25167C28.4739 3.25545 28.31 3.30561 28.1034 3.41873Z" fill="#08083B" stroke="white" stroke-width="0.5"/>
<path d="M50.8343 7.51767L50.8342 7.51765L50.8365 7.51359C50.9343 7.33616 51.3389 6.6162 51.7763 5.89518C51.9818 5.54347 52.1668 5.18497 52.2998 4.89107C52.3665 4.74363 52.4187 4.61552 52.4537 4.5145C52.4712 4.46395 52.4834 4.42293 52.491 4.39141C52.4975 4.36453 52.499 4.35123 52.4993 4.34823C52.4994 4.3474 52.4994 4.34736 52.4994 4.34803C52.4994 4.31406 52.4746 4.21486 52.4007 4.06683C52.3322 3.92954 52.2378 3.78255 52.1381 3.66278C51.9342 3.41955 51.7193 3.30001 51.5143 3.26915C51.3104 3.23847 51.083 3.29047 50.8426 3.45291C50.8071 3.4782 50.7463 3.53621 50.6614 3.63641C50.5786 3.7341 50.4832 3.85953 50.3795 4.00628C50.1722 4.29951 49.9386 4.66802 49.7163 5.04845C49.4941 5.42883 49.2853 5.81732 49.127 6.14999C48.964 6.49226 48.8692 6.74563 48.8507 6.87102C48.7693 7.49485 49.2121 8.02246 49.684 8.02246C49.9551 8.02246 50.2131 7.96221 50.4207 7.86471C50.6317 7.76561 50.7708 7.63794 50.8343 7.51767Z" fill="#08083B" stroke="white" stroke-width="0.5"/>
<mask id="path-4-inside-1_19_266" fill="white">
<path d="M38.5519 7.47497C36.9062 7.69831 36.3899 7.79403 35.7446 8.01736C30.5172 9.78815 27 13.6647 25.8867 18.8494C25.6286 20.03 25.5802 22.8696 25.8061 24.1458C25.8706 24.5766 25.919 24.9594 25.8867 24.9913C25.8706 25.0232 25.435 24.8478 24.9187 24.6244C24.4024 24.4011 23.8377 24.2256 23.6603 24.2256C23.2247 24.2256 17.6262 29.7134 17.4971 30.2718C17.4487 30.543 17.5939 31.1332 17.9811 32.0106C18.2877 32.7445 18.5458 33.3666 18.5458 33.4145C18.5458 33.4464 17.8682 33.4783 17.0292 33.4783H15.4965L14.8995 32.3935C14.5769 31.8033 14.1735 31.0694 13.996 30.7504C13.4314 29.6975 13.2055 29.5698 11.4469 29.522C9.9303 29.4582 9.86576 29.4422 9.65602 29.0434C8.3653 26.5866 5.15465 25.9166 3.05724 27.6874C1.16957 29.2827 1.12117 32.3297 2.96044 33.909C3.97688 34.8024 4.47703 34.9938 5.80001 34.9779C7.55861 34.9779 8.78479 34.276 9.51081 32.8721C9.86576 32.2021 9.86576 32.2021 10.7854 32.2021C11.818 32.2021 11.7212 32.1064 12.7699 34.1483C13.7863 36.1584 13.8347 36.1903 16.2871 36.1903H18.3361L17.8037 37.5463C17.4971 38.2802 17.1744 39.2214 17.0615 39.6043C16.884 40.2743 16.8195 40.3381 15.8998 40.721C15.3513 40.9284 14.7382 41.1676 14.5123 41.2315C13.754 41.4389 12.5924 42.0929 12.4149 42.396C12.3343 42.5715 12.2536 43.2894 12.2536 43.9913V45.2835H10.2691H8.30077L7.97809 44.6773C7.25206 43.2894 6.09042 42.5556 4.38023 42.4439C3.12178 42.3641 2.16988 42.6832 1.31478 43.4968C0.411279 44.3901 0.104734 45.0283 0.0240648 46.3205C-0.0404709 47.3095 0.00793092 47.5648 0.379011 48.3624C1.15344 49.9577 2.54096 50.7873 4.33182 50.6756C5.99362 50.5959 7.51021 49.6068 8.07489 48.2827L8.25237 47.836H10.253H12.2536V49.176C12.2536 50.8032 12.4633 51.1223 13.9476 51.6647C14.4801 51.8721 15.3513 52.2071 15.8998 52.4304L16.8679 52.8293L17.3196 54.2012C17.5778 54.951 17.9166 55.8603 18.0779 56.1953C18.2393 56.5463 18.3845 56.8494 18.3845 56.8813C18.3845 56.9132 17.4971 56.9292 16.4161 56.9292C15.1577 56.9292 14.2865 57.009 14.0444 57.1366C13.8024 57.2482 13.3184 57.9661 12.7215 59.0828L11.7857 60.8377L10.8338 60.8855C9.89803 60.9334 9.86576 60.9174 9.62375 60.4069C8.65572 58.3969 5.91295 57.4875 3.88007 58.5085C1.41158 59.7688 0.846895 63.1508 2.7991 65.129C4.12208 66.4691 6.04202 66.8041 7.67155 65.9745C8.52664 65.5438 9.43014 64.6664 9.67215 64.0123C9.81736 63.6454 9.89803 63.6294 11.2694 63.6294C12.0761 63.6294 12.8989 63.5497 13.1087 63.454C13.3507 63.3423 13.8508 62.6244 14.4962 61.4598L15.4965 59.6412H17.0292C17.8682 59.6412 18.5458 59.6731 18.5458 59.721C18.5458 59.7688 18.2877 60.4069 17.9811 61.1408C17.6746 61.8906 17.4164 62.6084 17.4164 62.768C17.4164 63.087 22.6277 68.3356 23.2731 68.6706C23.8216 68.9577 24.1604 68.878 26.3869 67.8889L28.0326 67.155L29.4523 67.8729C30.2429 68.2558 31.4691 68.7663 32.179 68.9896C32.8889 69.213 33.5826 69.532 33.7278 69.6916C33.873 69.8511 34.2603 70.7445 34.5829 71.6697C35.4703 74.1265 35.1638 73.9989 40.0201 73.9989C44.6505 73.9989 44.5214 74.0467 45.1668 72.3238C46.3123 69.3246 46.2155 69.4682 47.3287 69.1492C48.5065 68.7982 49.5875 68.3515 50.9266 67.6655C52.056 67.0753 51.8462 67.0434 54.347 68.192C55.8475 68.8939 56.1863 68.9577 56.6541 68.7344C57.3318 68.3834 62.2526 63.422 62.4301 62.8956C62.5753 62.4808 62.5269 62.2415 62.1397 61.3641C61.2846 59.4976 61.2039 59.6412 62.9786 59.6412H64.5114L65.3665 61.1886C65.8182 62.0501 66.399 62.9435 66.6411 63.1987C67.0605 63.6135 67.1573 63.6294 68.6255 63.6294H70.1744L70.3841 64.1559C70.7068 64.8897 72.0136 65.9905 72.901 66.2457C75.6599 67.0593 78.4027 65.0812 78.4027 62.2894C78.4027 60.5505 77.5153 59.2105 75.8858 58.4447C74.6112 57.8385 72.8365 57.9821 71.8039 58.7638C71.2231 59.1945 70.6261 59.9124 70.4164 60.391C70.1905 60.9015 70.1582 60.9174 69.2386 60.9174H68.2867L67.4316 59.3221C66.1409 56.8973 66.3345 57.0249 63.8176 56.9292L61.6718 56.8494L62.2849 55.3339C62.6237 54.5043 62.9464 53.595 62.9948 53.3238C63.1077 52.8133 63.382 52.6697 66.0602 51.6647C67.5445 51.1223 67.7543 50.8032 67.7543 49.176V47.836H69.771H71.7878L72.0136 48.3943C72.6429 49.8939 74.2885 50.8032 76.1117 50.6756C77.838 50.548 78.919 49.8142 79.6773 48.2508C79.9838 47.6446 80.0322 47.3095 79.9838 46.4321C79.8386 43.9913 78.1445 42.412 75.676 42.412C74.1433 42.4279 72.5783 43.417 72.0298 44.7092L71.7878 45.2835H69.771H67.7543V43.9435C67.7543 42.3163 67.5445 41.9972 66.0602 41.4548C63.1077 40.354 63.1884 40.4019 62.8496 39.3171C62.6882 38.7907 62.3494 37.8654 62.0913 37.2751L61.6557 36.2222L63.8015 36.1584C66.2377 36.1106 66.1732 36.1425 67.0605 34.4674C67.2864 34.0526 67.6575 33.3826 67.8834 32.9678L68.319 32.2021H69.2225C70.0614 32.2021 70.1421 32.234 70.3196 32.6328C70.6907 33.4943 71.8523 34.4993 72.8365 34.8343C74.7564 35.5043 77.1442 34.5153 78.0155 32.7126C78.4511 31.7873 78.4995 30.192 78.1123 29.2986C76.8377 26.4111 73.1592 25.773 71.0456 28.1022C70.7391 28.4372 70.4164 28.8839 70.3357 29.1072C70.1905 29.4741 70.1098 29.4901 68.8353 29.4901C67.0121 29.4901 66.5927 29.6496 66.0925 30.5749C65.8666 30.9897 65.4149 31.8033 65.0922 32.3935L64.5114 33.4783H62.9786C62.1397 33.4783 61.4621 33.4464 61.4621 33.3826C61.4621 33.3347 61.6879 32.7923 61.9622 32.1542C62.8173 30.1601 62.9464 30.4473 59.8325 27.3364C58.3321 25.8209 56.9123 24.4968 56.7025 24.3851C56.3476 24.1937 56.1701 24.2256 55.2182 24.5925C54.6213 24.8318 54.1211 25.0073 54.105 24.9754C54.0889 24.9594 54.1373 24.5766 54.2179 24.1458C54.4277 23.0451 54.4115 20.3012 54.2018 19.1047C53.9598 17.7965 53.3306 16.0896 52.6207 14.8133C50.9427 11.7982 47.9418 9.24575 44.8441 8.2088C42.9403 7.57069 40.133 7.25163 38.5519 7.47497ZM41.94 10.2508C43.5695 10.5379 45.5217 11.2399 46.1994 11.7982C46.2962 11.878 46.7802 12.2449 47.2803 12.6278C50.5233 15.0526 52.2657 19.5673 51.5397 23.6513C51.2654 25.1668 50.9589 25.9007 49.8134 27.831C48.8131 29.506 48.0386 31.1651 47.5223 32.7604C47.1351 33.9888 47.0545 34.3079 46.8447 35.5522C46.7963 35.8553 46.7318 36.2541 46.6995 36.4296C46.6672 36.6051 46.635 36.9401 46.635 37.1794L46.6188 37.6261H45.0861H43.5534V31.883V26.1399L44.4892 26.124C46.4414 26.0921 47.3449 25.773 48.4097 24.6882C49.9424 23.1567 50.1038 21.0829 48.8615 19.2642C47.0706 16.6798 43.0371 16.9032 41.4399 19.679C41.1494 20.1895 41.0526 20.6362 41.0042 21.8646L40.9397 23.4279H39.9878H39.0359V22.0719C39.0359 20.0459 38.3905 18.8813 36.7126 17.9242C35.196 17.0468 32.905 17.4137 31.5498 18.7378C30.7108 19.5833 30.4204 20.349 30.4204 21.7529C30.4204 23.0132 30.6624 23.7789 31.3239 24.5447C31.7918 25.0871 32.8243 25.7092 33.5665 25.9007C34.5668 26.1719 34.3571 26.1399 35.4864 26.1399H36.4545V31.883V37.6261H34.9379H33.4213L33.3084 36.6211C32.9857 33.7176 31.9047 30.6227 30.3397 28.1341C29.6137 26.9535 28.7586 25.103 28.5488 24.2256C28.1455 22.5505 28.2907 19.7747 28.8554 18.1316C29.533 16.2012 30.2106 15.1164 31.6143 13.7126C32.3726 12.9468 33.1309 12.2449 33.3084 12.1492C35.2767 10.9846 36.3093 10.5698 37.9872 10.2667C39.4554 9.99554 40.4557 9.99554 41.94 10.2508ZM35.4864 20.3171C36.1318 20.6521 36.4061 21.2424 36.4383 22.4229L36.4706 23.4279H35.4058C33.7924 23.4279 33.0825 22.9015 33.0663 21.7369C33.0663 20.4607 34.3248 19.7269 35.4864 20.3171ZM46.1348 20.349C46.9415 20.8117 47.1674 21.8007 46.6672 22.6462C46.3284 23.2046 45.7153 23.4279 44.5053 23.4279H43.5534V22.726C43.5534 21.6093 43.7309 21.0509 44.231 20.5405C44.7796 19.9981 45.4411 19.9342 46.1348 20.349ZM40.972 31.883V37.6261H40.0039H39.0359V31.883V26.1399H40.0039H40.972V31.883ZM26.0804 27.9267C27.5969 28.5808 27.5969 28.5967 28.2584 29.6975C29.1781 31.2609 29.775 32.6328 30.1784 34.0367L30.5172 35.2491L29.3878 36.4137C28.0003 37.8654 27.3872 38.7268 26.5966 40.4019C24.6606 44.5018 24.7896 49.3994 26.9516 53.4036C31.582 61.9703 43.0694 63.8049 50.2167 57.1047C54.7503 52.8612 56.0572 46.0174 53.4112 40.4019C52.6045 38.6949 51.9753 37.8016 50.6039 36.3977L49.4907 35.265L49.8295 34.0367C50.2328 32.6328 50.8298 31.2609 51.7494 29.6975L52.4109 28.5808L54.1373 27.831L55.8797 27.0812L57.7997 28.9796L59.7196 30.878L58.8968 32.6807C58.445 33.6857 58.0739 34.6269 58.0739 34.7865C58.0739 34.946 58.4773 35.8553 58.9613 36.8125C59.768 38.3918 60.8167 41.1198 60.8167 41.6303C60.8167 42.061 61.4137 42.4279 63.2529 43.1458L65.1729 43.8797V46.5598V49.2399L63.4627 49.8939C62.5269 50.2608 61.7041 50.548 61.6395 50.548C61.333 50.548 60.849 51.3616 60.5908 52.3028C60.252 53.5312 59.3485 55.6849 58.6063 56.977C58.3159 57.5035 58.0739 58.0778 58.0739 58.2692C58.0739 58.4607 58.445 59.4338 58.8968 60.4388L59.7196 62.2415L57.7835 64.1399L55.8636 66.0543L54.0405 65.2407C53.024 64.794 52.0398 64.4271 51.8462 64.4271C51.6526 64.4271 51.0718 64.6664 50.5394 64.9535C49.2325 65.6874 47.0545 66.5807 45.8121 66.9157C45.2313 67.0753 44.6344 67.2986 44.4892 67.4262C44.3278 67.5539 43.8761 68.511 43.4566 69.548L42.7144 71.4464H40.0039H37.2934L36.5513 69.548C36.1318 68.511 35.68 67.5539 35.5187 67.4262C35.3735 67.2986 34.7765 67.0753 34.1957 66.9157C32.9534 66.5807 30.7753 65.6874 29.4685 64.9535C28.9361 64.6664 28.3552 64.4271 28.1616 64.4271C27.968 64.4271 26.9839 64.794 25.9674 65.2407L24.1443 66.0543L22.2243 64.1399L20.2883 62.2415L21.1111 60.4388C21.5629 59.4338 21.9339 58.4926 21.9339 58.333C21.9339 58.1735 21.5306 57.2642 21.0466 56.2911C20.5464 55.3179 19.8849 53.7705 19.5784 52.8293C19.2718 51.888 18.933 51.0266 18.8524 50.9149C18.7556 50.8032 17.8198 50.3885 16.7549 49.9737L14.835 49.2399V46.5598V43.8797L16.7549 43.1458C18.5942 42.4279 19.1912 42.061 19.1912 41.6303C19.1912 41.1198 20.2399 38.3918 21.0466 36.8125C21.5306 35.8553 21.9339 34.946 21.9339 34.7865C21.9339 34.6269 21.5629 33.6857 21.1111 32.6807L20.2883 30.878L22.2082 28.9796C23.386 27.7991 24.1927 27.129 24.3379 27.1769C24.467 27.2248 25.2414 27.5598 26.0804 27.9267ZM6.97779 29.8251C7.96196 30.878 7.18753 32.5211 5.71934 32.5211C5.44506 32.5211 5.09012 32.3297 4.73517 31.9787C3.83167 31.0854 4.05755 29.9049 5.21919 29.3944C5.88068 29.1072 6.42923 29.2348 6.97779 29.8251ZM74.7564 29.3944C75.9503 29.8889 76.1762 31.0854 75.2727 31.9787C74.4983 32.7445 73.5786 32.6807 72.8849 31.8192C72.2879 31.1013 72.7074 29.6975 73.627 29.3305C74.0949 29.1391 74.1433 29.1391 74.7564 29.3944ZM30.8237 40.1786C30.8399 40.9284 30.9528 41.8377 31.0819 42.2046C31.34 42.9544 32.179 43.9116 32.7114 44.0711C33.0179 44.1668 33.0663 44.3104 33.0825 45.0921C33.0986 46.5119 33.4697 47.2457 34.5668 48.0593C35.0831 48.4582 35.1638 48.6017 35.1638 49.176C35.1638 50.2289 35.4703 51.0106 36.1641 51.7604C37.1321 52.7974 37.7936 52.9888 40.3589 52.909C42.6499 52.8452 42.8596 52.7974 43.8438 51.92C44.4408 51.3776 45.0055 50.0215 45.0055 49.1282C45.0055 48.6017 45.0861 48.4582 45.6347 48.0912C46.4736 47.5169 47.1029 46.2247 47.1029 45.0761C47.1029 44.2625 47.1351 44.1987 47.6998 43.8318C48.3452 43.417 48.9744 42.4758 49.1035 41.6941C49.1357 41.4229 49.1841 40.6412 49.1841 39.9393L49.2164 38.663L49.6843 39.2214C50.3942 40.0509 51.5397 42.4758 51.8785 43.8477C52.2819 45.5547 52.2496 47.8519 51.7817 49.5908C50.5878 53.9141 47.5707 56.9132 43.1501 58.1895C39.649 59.1945 35.3735 58.3171 32.421 55.988C30.3558 54.3608 28.8393 51.9838 28.1294 49.2558C27.5324 46.9586 27.9035 43.4968 28.9683 41.4229C29.4523 40.4817 30.6463 38.679 30.7269 38.7747C30.7592 38.8066 30.8076 39.4288 30.8237 40.1786ZM46.5866 40.705C46.6188 40.9603 46.522 41.3272 46.3768 41.5505L46.1348 41.9334H40.0039H33.8892L33.6472 41.5824C33.389 41.2155 33.3084 40.4817 33.502 40.2902C33.5665 40.2264 36.519 40.1945 40.0685 40.2105L46.5382 40.2583L46.5866 40.705ZM44.5214 45.0283C44.5214 46.0652 44.473 46.0812 40.0039 46.0812C36.1963 46.0812 35.9705 46.0652 35.8091 45.7781C35.7284 45.6026 35.6478 45.2516 35.6478 44.9804V44.4859H40.0846H44.5214V45.0283ZM5.33213 45.4271C6.3647 46.464 5.65481 48.1551 4.18662 48.1551C3.6542 48.1551 3.41219 48.0593 3.04111 47.6924C2.00854 46.6555 2.71843 44.9645 4.18662 44.9645C4.71904 44.9645 4.96105 45.0602 5.33213 45.4271ZM76.9668 45.4271C77.3378 45.794 77.4346 46.0333 77.4346 46.5598C77.4346 48.0115 75.7244 48.7134 74.6757 47.6924C73.6432 46.6555 74.3531 44.9645 75.8213 44.9645C76.3537 44.9645 76.5957 45.0602 76.9668 45.4271ZM42.2627 49.2239C42.2627 50.2289 41.9723 50.3885 40.1007 50.3885C39.1972 50.3885 38.3905 50.3247 38.2937 50.2608C38.0033 50.0854 37.7452 49.4951 37.7452 49.0484V48.6336H40.0039H42.2627V49.2239ZM6.49377 60.7739C7.42954 61.2524 7.70381 62.417 7.07459 63.2147C6.59057 63.8209 6.04202 63.9964 5.38053 63.789C4.12208 63.3742 3.7994 62.066 4.73517 61.1408C5.31599 60.5665 5.86455 60.4548 6.49377 60.7739ZM75.2727 61.1408C76.2085 62.066 75.8858 63.3742 74.6273 63.789C72.8042 64.3792 71.7716 61.7151 73.4818 60.7898C74.0949 60.4548 74.6919 60.5665 75.2727 61.1408Z"/>
</mask>
<path d="M38.5519 7.47497C36.9062 7.69831 36.3899 7.79403 35.7446 8.01736C30.5172 9.78815 27 13.6647 25.8867 18.8494C25.6286 20.03 25.5802 22.8696 25.8061 24.1458C25.8706 24.5766 25.919 24.9594 25.8867 24.9913C25.8706 25.0232 25.435 24.8478 24.9187 24.6244C24.4024 24.4011 23.8377 24.2256 23.6603 24.2256C23.2247 24.2256 17.6262 29.7134 17.4971 30.2718C17.4487 30.543 17.5939 31.1332 17.9811 32.0106C18.2877 32.7445 18.5458 33.3666 18.5458 33.4145C18.5458 33.4464 17.8682 33.4783 17.0292 33.4783H15.4965L14.8995 32.3935C14.5769 31.8033 14.1735 31.0694 13.996 30.7504C13.4314 29.6975 13.2055 29.5698 11.4469 29.522C9.9303 29.4582 9.86576 29.4422 9.65602 29.0434C8.3653 26.5866 5.15465 25.9166 3.05724 27.6874C1.16957 29.2827 1.12117 32.3297 2.96044 33.909C3.97688 34.8024 4.47703 34.9938 5.80001 34.9779C7.55861 34.9779 8.78479 34.276 9.51081 32.8721C9.86576 32.2021 9.86576 32.2021 10.7854 32.2021C11.818 32.2021 11.7212 32.1064 12.7699 34.1483C13.7863 36.1584 13.8347 36.1903 16.2871 36.1903H18.3361L17.8037 37.5463C17.4971 38.2802 17.1744 39.2214 17.0615 39.6043C16.884 40.2743 16.8195 40.3381 15.8998 40.721C15.3513 40.9284 14.7382 41.1676 14.5123 41.2315C13.754 41.4389 12.5924 42.0929 12.4149 42.396C12.3343 42.5715 12.2536 43.2894 12.2536 43.9913V45.2835H10.2691H8.30077L7.97809 44.6773C7.25206 43.2894 6.09042 42.5556 4.38023 42.4439C3.12178 42.3641 2.16988 42.6832 1.31478 43.4968C0.411279 44.3901 0.104734 45.0283 0.0240648 46.3205C-0.0404709 47.3095 0.00793092 47.5648 0.379011 48.3624C1.15344 49.9577 2.54096 50.7873 4.33182 50.6756C5.99362 50.5959 7.51021 49.6068 8.07489 48.2827L8.25237 47.836H10.253H12.2536V49.176C12.2536 50.8032 12.4633 51.1223 13.9476 51.6647C14.4801 51.8721 15.3513 52.2071 15.8998 52.4304L16.8679 52.8293L17.3196 54.2012C17.5778 54.951 17.9166 55.8603 18.0779 56.1953C18.2393 56.5463 18.3845 56.8494 18.3845 56.8813C18.3845 56.9132 17.4971 56.9292 16.4161 56.9292C15.1577 56.9292 14.2865 57.009 14.0444 57.1366C13.8024 57.2482 13.3184 57.9661 12.7215 59.0828L11.7857 60.8377L10.8338 60.8855C9.89803 60.9334 9.86576 60.9174 9.62375 60.4069C8.65572 58.3969 5.91295 57.4875 3.88007 58.5085C1.41158 59.7688 0.846895 63.1508 2.7991 65.129C4.12208 66.4691 6.04202 66.8041 7.67155 65.9745C8.52664 65.5438 9.43014 64.6664 9.67215 64.0123C9.81736 63.6454 9.89803 63.6294 11.2694 63.6294C12.0761 63.6294 12.8989 63.5497 13.1087 63.454C13.3507 63.3423 13.8508 62.6244 14.4962 61.4598L15.4965 59.6412H17.0292C17.8682 59.6412 18.5458 59.6731 18.5458 59.721C18.5458 59.7688 18.2877 60.4069 17.9811 61.1408C17.6746 61.8906 17.4164 62.6084 17.4164 62.768C17.4164 63.087 22.6277 68.3356 23.2731 68.6706C23.8216 68.9577 24.1604 68.878 26.3869 67.8889L28.0326 67.155L29.4523 67.8729C30.2429 68.2558 31.4691 68.7663 32.179 68.9896C32.8889 69.213 33.5826 69.532 33.7278 69.6916C33.873 69.8511 34.2603 70.7445 34.5829 71.6697C35.4703 74.1265 35.1638 73.9989 40.0201 73.9989C44.6505 73.9989 44.5214 74.0467 45.1668 72.3238C46.3123 69.3246 46.2155 69.4682 47.3287 69.1492C48.5065 68.7982 49.5875 68.3515 50.9266 67.6655C52.056 67.0753 51.8462 67.0434 54.347 68.192C55.8475 68.8939 56.1863 68.9577 56.6541 68.7344C57.3318 68.3834 62.2526 63.422 62.4301 62.8956C62.5753 62.4808 62.5269 62.2415 62.1397 61.3641C61.2846 59.4976 61.2039 59.6412 62.9786 59.6412H64.5114L65.3665 61.1886C65.8182 62.0501 66.399 62.9435 66.6411 63.1987C67.0605 63.6135 67.1573 63.6294 68.6255 63.6294H70.1744L70.3841 64.1559C70.7068 64.8897 72.0136 65.9905 72.901 66.2457C75.6599 67.0593 78.4027 65.0812 78.4027 62.2894C78.4027 60.5505 77.5153 59.2105 75.8858 58.4447C74.6112 57.8385 72.8365 57.9821 71.8039 58.7638C71.2231 59.1945 70.6261 59.9124 70.4164 60.391C70.1905 60.9015 70.1582 60.9174 69.2386 60.9174H68.2867L67.4316 59.3221C66.1409 56.8973 66.3345 57.0249 63.8176 56.9292L61.6718 56.8494L62.2849 55.3339C62.6237 54.5043 62.9464 53.595 62.9948 53.3238C63.1077 52.8133 63.382 52.6697 66.0602 51.6647C67.5445 51.1223 67.7543 50.8032 67.7543 49.176V47.836H69.771H71.7878L72.0136 48.3943C72.6429 49.8939 74.2885 50.8032 76.1117 50.6756C77.838 50.548 78.919 49.8142 79.6773 48.2508C79.9838 47.6446 80.0322 47.3095 79.9838 46.4321C79.8386 43.9913 78.1445 42.412 75.676 42.412C74.1433 42.4279 72.5783 43.417 72.0298 44.7092L71.7878 45.2835H69.771H67.7543V43.9435C67.7543 42.3163 67.5445 41.9972 66.0602 41.4548C63.1077 40.354 63.1884 40.4019 62.8496 39.3171C62.6882 38.7907 62.3494 37.8654 62.0913 37.2751L61.6557 36.2222L63.8015 36.1584C66.2377 36.1106 66.1732 36.1425 67.0605 34.4674C67.2864 34.0526 67.6575 33.3826 67.8834 32.9678L68.319 32.2021H69.2225C70.0614 32.2021 70.1421 32.234 70.3196 32.6328C70.6907 33.4943 71.8523 34.4993 72.8365 34.8343C74.7564 35.5043 77.1442 34.5153 78.0155 32.7126C78.4511 31.7873 78.4995 30.192 78.1123 29.2986C76.8377 26.4111 73.1592 25.773 71.0456 28.1022C70.7391 28.4372 70.4164 28.8839 70.3357 29.1072C70.1905 29.4741 70.1098 29.4901 68.8353 29.4901C67.0121 29.4901 66.5927 29.6496 66.0925 30.5749C65.8666 30.9897 65.4149 31.8033 65.0922 32.3935L64.5114 33.4783H62.9786C62.1397 33.4783 61.4621 33.4464 61.4621 33.3826C61.4621 33.3347 61.6879 32.7923 61.9622 32.1542C62.8173 30.1601 62.9464 30.4473 59.8325 27.3364C58.3321 25.8209 56.9123 24.4968 56.7025 24.3851C56.3476 24.1937 56.1701 24.2256 55.2182 24.5925C54.6213 24.8318 54.1211 25.0073 54.105 24.9754C54.0889 24.9594 54.1373 24.5766 54.2179 24.1458C54.4277 23.0451 54.4115 20.3012 54.2018 19.1047C53.9598 17.7965 53.3306 16.0896 52.6207 14.8133C50.9427 11.7982 47.9418 9.24575 44.8441 8.2088C42.9403 7.57069 40.133 7.25163 38.5519 7.47497ZM41.94 10.2508C43.5695 10.5379 45.5217 11.2399 46.1994 11.7982C46.2962 11.878 46.7802 12.2449 47.2803 12.6278C50.5233 15.0526 52.2657 19.5673 51.5397 23.6513C51.2654 25.1668 50.9589 25.9007 49.8134 27.831C48.8131 29.506 48.0386 31.1651 47.5223 32.7604C47.1351 33.9888 47.0545 34.3079 46.8447 35.5522C46.7963 35.8553 46.7318 36.2541 46.6995 36.4296C46.6672 36.6051 46.635 36.9401 46.635 37.1794L46.6188 37.6261H45.0861H43.5534V31.883V26.1399L44.4892 26.124C46.4414 26.0921 47.3449 25.773 48.4097 24.6882C49.9424 23.1567 50.1038 21.0829 48.8615 19.2642C47.0706 16.6798 43.0371 16.9032 41.4399 19.679C41.1494 20.1895 41.0526 20.6362 41.0042 21.8646L40.9397 23.4279H39.9878H39.0359V22.0719C39.0359 20.0459 38.3905 18.8813 36.7126 17.9242C35.196 17.0468 32.905 17.4137 31.5498 18.7378C30.7108 19.5833 30.4204 20.349 30.4204 21.7529C30.4204 23.0132 30.6624 23.7789 31.3239 24.5447C31.7918 25.0871 32.8243 25.7092 33.5665 25.9007C34.5668 26.1719 34.3571 26.1399 35.4864 26.1399H36.4545V31.883V37.6261H34.9379H33.4213L33.3084 36.6211C32.9857 33.7176 31.9047 30.6227 30.3397 28.1341C29.6137 26.9535 28.7586 25.103 28.5488 24.2256C28.1455 22.5505 28.2907 19.7747 28.8554 18.1316C29.533 16.2012 30.2106 15.1164 31.6143 13.7126C32.3726 12.9468 33.1309 12.2449 33.3084 12.1492C35.2767 10.9846 36.3093 10.5698 37.9872 10.2667C39.4554 9.99554 40.4557 9.99554 41.94 10.2508ZM35.4864 20.3171C36.1318 20.6521 36.4061 21.2424 36.4383 22.4229L36.4706 23.4279H35.4058C33.7924 23.4279 33.0825 22.9015 33.0663 21.7369C33.0663 20.4607 34.3248 19.7269 35.4864 20.3171ZM46.1348 20.349C46.9415 20.8117 47.1674 21.8007 46.6672 22.6462C46.3284 23.2046 45.7153 23.4279 44.5053 23.4279H43.5534V22.726C43.5534 21.6093 43.7309 21.0509 44.231 20.5405C44.7796 19.9981 45.4411 19.9342 46.1348 20.349ZM40.972 31.883V37.6261H40.0039H39.0359V31.883V26.1399H40.0039H40.972V31.883ZM26.0804 27.9267C27.5969 28.5808 27.5969 28.5967 28.2584 29.6975C29.1781 31.2609 29.775 32.6328 30.1784 34.0367L30.5172 35.2491L29.3878 36.4137C28.0003 37.8654 27.3872 38.7268 26.5966 40.4019C24.6606 44.5018 24.7896 49.3994 26.9516 53.4036C31.582 61.9703 43.0694 63.8049 50.2167 57.1047C54.7503 52.8612 56.0572 46.0174 53.4112 40.4019C52.6045 38.6949 51.9753 37.8016 50.6039 36.3977L49.4907 35.265L49.8295 34.0367C50.2328 32.6328 50.8298 31.2609 51.7494 29.6975L52.4109 28.5808L54.1373 27.831L55.8797 27.0812L57.7997 28.9796L59.7196 30.878L58.8968 32.6807C58.445 33.6857 58.0739 34.6269 58.0739 34.7865C58.0739 34.946 58.4773 35.8553 58.9613 36.8125C59.768 38.3918 60.8167 41.1198 60.8167 41.6303C60.8167 42.061 61.4137 42.4279 63.2529 43.1458L65.1729 43.8797V46.5598V49.2399L63.4627 49.8939C62.5269 50.2608 61.7041 50.548 61.6395 50.548C61.333 50.548 60.849 51.3616 60.5908 52.3028C60.252 53.5312 59.3485 55.6849 58.6063 56.977C58.3159 57.5035 58.0739 58.0778 58.0739 58.2692C58.0739 58.4607 58.445 59.4338 58.8968 60.4388L59.7196 62.2415L57.7835 64.1399L55.8636 66.0543L54.0405 65.2407C53.024 64.794 52.0398 64.4271 51.8462 64.4271C51.6526 64.4271 51.0718 64.6664 50.5394 64.9535C49.2325 65.6874 47.0545 66.5807 45.8121 66.9157C45.2313 67.0753 44.6344 67.2986 44.4892 67.4262C44.3278 67.5539 43.8761 68.511 43.4566 69.548L42.7144 71.4464H40.0039H37.2934L36.5513 69.548C36.1318 68.511 35.68 67.5539 35.5187 67.4262C35.3735 67.2986 34.7765 67.0753 34.1957 66.9157C32.9534 66.5807 30.7753 65.6874 29.4685 64.9535C28.9361 64.6664 28.3552 64.4271 28.1616 64.4271C27.968 64.4271 26.9839 64.794 25.9674 65.2407L24.1443 66.0543L22.2243 64.1399L20.2883 62.2415L21.1111 60.4388C21.5629 59.4338 21.9339 58.4926 21.9339 58.333C21.9339 58.1735 21.5306 57.2642 21.0466 56.2911C20.5464 55.3179 19.8849 53.7705 19.5784 52.8293C19.2718 51.888 18.933 51.0266 18.8524 50.9149C18.7556 50.8032 17.8198 50.3885 16.7549 49.9737L14.835 49.2399V46.5598V43.8797L16.7549 43.1458C18.5942 42.4279 19.1912 42.061 19.1912 41.6303C19.1912 41.1198 20.2399 38.3918 21.0466 36.8125C21.5306 35.8553 21.9339 34.946 21.9339 34.7865C21.9339 34.6269 21.5629 33.6857 21.1111 32.6807L20.2883 30.878L22.2082 28.9796C23.386 27.7991 24.1927 27.129 24.3379 27.1769C24.467 27.2248 25.2414 27.5598 26.0804 27.9267ZM6.97779 29.8251C7.96196 30.878 7.18753 32.5211 5.71934 32.5211C5.44506 32.5211 5.09012 32.3297 4.73517 31.9787C3.83167 31.0854 4.05755 29.9049 5.21919 29.3944C5.88068 29.1072 6.42923 29.2348 6.97779 29.8251ZM74.7564 29.3944C75.9503 29.8889 76.1762 31.0854 75.2727 31.9787C74.4983 32.7445 73.5786 32.6807 72.8849 31.8192C72.2879 31.1013 72.7074 29.6975 73.627 29.3305C74.0949 29.1391 74.1433 29.1391 74.7564 29.3944ZM30.8237 40.1786C30.8399 40.9284 30.9528 41.8377 31.0819 42.2046C31.34 42.9544 32.179 43.9116 32.7114 44.0711C33.0179 44.1668 33.0663 44.3104 33.0825 45.0921C33.0986 46.5119 33.4697 47.2457 34.5668 48.0593C35.0831 48.4582 35.1638 48.6017 35.1638 49.176C35.1638 50.2289 35.4703 51.0106 36.1641 51.7604C37.1321 52.7974 37.7936 52.9888 40.3589 52.909C42.6499 52.8452 42.8596 52.7974 43.8438 51.92C44.4408 51.3776 45.0055 50.0215 45.0055 49.1282C45.0055 48.6017 45.0861 48.4582 45.6347 48.0912C46.4736 47.5169 47.1029 46.2247 47.1029 45.0761C47.1029 44.2625 47.1351 44.1987 47.6998 43.8318C48.3452 43.417 48.9744 42.4758 49.1035 41.6941C49.1357 41.4229 49.1841 40.6412 49.1841 39.9393L49.2164 38.663L49.6843 39.2214C50.3942 40.0509 51.5397 42.4758 51.8785 43.8477C52.2819 45.5547 52.2496 47.8519 51.7817 49.5908C50.5878 53.9141 47.5707 56.9132 43.1501 58.1895C39.649 59.1945 35.3735 58.3171 32.421 55.988C30.3558 54.3608 28.8393 51.9838 28.1294 49.2558C27.5324 46.9586 27.9035 43.4968 28.9683 41.4229C29.4523 40.4817 30.6463 38.679 30.7269 38.7747C30.7592 38.8066 30.8076 39.4288 30.8237 40.1786ZM46.5866 40.705C46.6188 40.9603 46.522 41.3272 46.3768 41.5505L46.1348 41.9334H40.0039H33.8892L33.6472 41.5824C33.389 41.2155 33.3084 40.4817 33.502 40.2902C33.5665 40.2264 36.519 40.1945 40.0685 40.2105L46.5382 40.2583L46.5866 40.705ZM44.5214 45.0283C44.5214 46.0652 44.473 46.0812 40.0039 46.0812C36.1963 46.0812 35.9705 46.0652 35.8091 45.7781C35.7284 45.6026 35.6478 45.2516 35.6478 44.9804V44.4859H40.0846H44.5214V45.0283ZM5.33213 45.4271C6.3647 46.464 5.65481 48.1551 4.18662 48.1551C3.6542 48.1551 3.41219 48.0593 3.04111 47.6924C2.00854 46.6555 2.71843 44.9645 4.18662 44.9645C4.71904 44.9645 4.96105 45.0602 5.33213 45.4271ZM76.9668 45.4271C77.3378 45.794 77.4346 46.0333 77.4346 46.5598C77.4346 48.0115 75.7244 48.7134 74.6757 47.6924C73.6432 46.6555 74.3531 44.9645 75.8213 44.9645C76.3537 44.9645 76.5957 45.0602 76.9668 45.4271ZM42.2627 49.2239C42.2627 50.2289 41.9723 50.3885 40.1007 50.3885C39.1972 50.3885 38.3905 50.3247 38.2937 50.2608C38.0033 50.0854 37.7452 49.4951 37.7452 49.0484V48.6336H40.0039H42.2627V49.2239ZM6.49377 60.7739C7.42954 61.2524 7.70381 62.417 7.07459 63.2147C6.59057 63.8209 6.04202 63.9964 5.38053 63.789C4.12208 63.3742 3.7994 62.066 4.73517 61.1408C5.31599 60.5665 5.86455 60.4548 6.49377 60.7739ZM75.2727 61.1408C76.2085 62.066 75.8858 63.3742 74.6273 63.789C72.8042 64.3792 71.7716 61.7151 73.4818 60.7898C74.0949 60.4548 74.6919 60.5665 75.2727 61.1408Z" fill="#08083B" stroke="white" mask="url(#path-4-inside-1_19_266)"/>
<path d="M19.4548 11.8893L19.4548 11.8893L19.4538 11.8903C19.2529 12.1027 19.1537 12.3294 19.1384 12.5421C19.1232 12.7529 19.1885 12.9701 19.353 13.1717L19.353 13.1717L19.355 13.1742C19.3795 13.205 19.4399 13.2622 19.5466 13.345C19.6488 13.4242 19.78 13.5167 19.9331 13.6181C20.2389 13.8206 20.6228 14.0523 21.0166 14.2746C21.4103 14.4969 21.8105 14.708 22.1486 14.8698C22.4948 15.0354 22.7472 15.135 22.8635 15.1571C23.0911 15.1916 23.3472 15.1183 23.5667 14.9597C23.7861 14.8011 23.9457 14.5737 23.9962 14.3343C24.0273 14.165 24.0259 14.0304 23.994 13.9099C23.9621 13.7895 23.8951 13.6648 23.7673 13.523C23.5022 13.2287 23.0092 12.8956 22.1514 12.4155C21.2262 11.9019 20.6626 11.6461 20.267 11.5824C20.0788 11.5521 19.9413 11.5679 19.8254 11.6133C19.7066 11.6598 19.5893 11.7455 19.4548 11.8893Z" fill="#08083B" stroke="white" stroke-width="0.5"/>
<path d="M57.8104 12.4305L57.8095 12.4309C57.2141 12.7651 56.8164 13.0128 56.5517 13.2181C56.287 13.4233 56.1776 13.5694 56.1288 13.6928L56.1288 13.6929L56.1261 13.6993C55.7918 14.4793 56.4567 15.3049 57.2019 15.1585C57.3368 15.1303 57.6134 15.0117 57.9816 14.8205C58.3402 14.6343 58.7587 14.3937 59.1631 14.1439C59.5678 13.894 59.9544 13.6372 60.2499 13.4189C60.398 13.3096 60.5197 13.2124 60.6084 13.1325C60.6527 13.0925 60.686 13.0593 60.7092 13.0331C60.7292 13.0106 60.736 12.9996 60.7366 12.9988C60.8193 12.8147 60.8346 12.5525 60.7753 12.2974C60.7148 12.0372 60.5906 11.8401 60.4555 11.7528L60.4554 11.7531L60.446 11.7464C60.2201 11.585 59.9843 11.5255 59.6002 11.6131C59.1936 11.7059 58.6409 11.9601 57.8104 12.4305Z" fill="#08083B" stroke="white" stroke-width="0.5"/>
<g filter="url(#filter0_i_19_266)">
<path d="M22.2726 29.0609C20.2075 31.1188 20.3043 30.7997 21.24 32.8098C22.1758 34.8358 22.1919 34.6763 21.1432 36.7342C20.6269 37.7233 20.0138 39.191 19.7718 39.9568C18.9813 42.4614 19.1426 42.2699 16.9 43.1473L14.9155 43.929V46.5613V49.1935L16.9 49.9752C19.1426 50.8526 18.9813 50.6772 19.7557 53.1339C19.9977 53.8997 20.5785 55.2876 21.0626 56.2288C21.5466 57.1541 21.9338 58.1272 21.9338 58.3665C21.9338 58.6058 21.6595 59.4194 21.3046 60.1532C20.2881 62.3547 20.2075 61.9878 22.2726 64.0457C23.289 65.0508 24.1764 65.8644 24.2409 65.8644C24.3216 65.8644 25.0476 65.5772 25.8705 65.2103C28.2099 64.1734 27.9517 64.1734 30.1137 65.2263C31.1463 65.7527 32.6306 66.3589 33.3889 66.5823C35.8251 67.3161 35.6638 67.1885 36.5511 69.4059L37.3417 71.3682H40.0038H42.6659L43.4564 69.4059C44.3438 67.1885 44.1663 67.348 46.651 66.5823C47.4254 66.343 48.829 65.7687 49.7809 65.2901C50.7167 64.8115 51.7009 64.4286 51.9268 64.4286C52.1688 64.4286 53.1045 64.7636 54.008 65.1625C54.9277 65.5613 55.7344 65.8644 55.815 65.8325C56.0893 65.7527 59.5258 62.3069 59.5258 62.1154C59.5258 62.0357 59.2032 61.238 58.7998 60.3766C58.3965 59.4991 58.0738 58.6058 58.0738 58.3665C58.0738 58.1272 58.461 57.1541 58.945 56.2288C59.429 55.2876 60.0099 53.8997 60.2519 53.1339C60.994 50.6931 60.8488 50.8526 63.1076 49.9752L65.092 49.1935V46.5613V43.929L63.1076 43.1473C60.865 42.2699 61.0263 42.4454 60.2519 40.0206C60.026 39.2708 59.4129 37.8031 58.8805 36.7821C57.8156 34.6444 57.8156 34.8997 58.8805 32.5546C59.2516 31.741 59.5258 31.0071 59.4936 30.9274C59.4613 30.8316 58.6546 29.9702 57.6704 29.013C55.6537 26.987 55.9441 27.0508 53.7499 28.1037L52.3462 28.7737L51.5718 30.1297C50.7167 31.6612 50.2488 32.7779 49.8616 34.2615L49.5873 35.2666L50.6199 36.3035C52.6044 38.3136 53.9596 40.8501 54.5566 43.6897C54.9599 45.6041 54.8793 48.3799 54.363 50.3102C53.04 55.3035 48.829 59.4353 43.7146 60.7913C41.7462 61.3018 38.2613 61.3018 36.293 60.7913C31.1785 59.4353 26.9676 55.3035 25.6446 50.3102C25.1283 48.3799 25.0476 45.6041 25.451 43.6897C26.0479 40.8501 27.4355 38.2498 29.4038 36.3035L30.4202 35.2985L30.146 34.2615C29.7587 32.7779 29.2909 31.6612 28.4358 30.1297L27.6613 28.7737L26.2577 28.1037C24.0796 27.0667 24.37 26.987 22.2726 29.0609Z" fill="#00B0F2"/>
</g>
<path d="M58.8805 32.5546C58.3329 33.7605 58.0669 34.2788 58.0825 34.7885C58.0972 35.2699 58.3632 35.7437 58.8805 36.7821V32.5546ZM58.8805 32.5546C59.2516 31.741 59.5258 31.0071 59.4936 30.9274L58.8805 32.5546ZM21.9209 32.4953L21.92 32.4933C21.838 32.3172 21.7663 32.1665 21.7035 32.0347C21.5733 31.7609 21.4817 31.5684 21.4172 31.3987C21.3739 31.2851 21.3593 31.2213 21.3547 31.186C21.3514 31.161 21.3535 31.154 21.3544 31.1512L21.3545 31.1507C21.3622 31.1227 21.4035 31.0201 21.6612 30.739C21.8392 30.5449 22.0695 30.3174 22.378 30.0125C22.5051 29.8868 22.6455 29.7481 22.801 29.5932C22.9375 29.4581 23.0618 29.3344 23.1759 29.2209C23.5135 28.8849 23.7614 28.6383 23.9718 28.4514C24.2576 28.1976 24.3686 28.1548 24.4082 28.1454L24.4092 28.1452C24.4235 28.1417 24.4881 28.1258 24.74 28.2234C24.9387 28.3005 25.17 28.4122 25.4981 28.5708C25.6274 28.6332 25.7717 28.703 25.9349 28.7807L25.9346 28.7805L26.2577 28.1037L25.9353 28.7809L27.1264 29.3495L27.7809 30.4953C27.7815 30.4964 27.7821 30.4975 27.7827 30.4986C28.6114 31.9831 29.0521 33.0402 29.4203 34.4509L29.4209 34.4533L29.5841 35.0705L28.8765 35.7702C26.7978 37.8256 25.3426 40.5601 24.7171 43.5351C24.289 45.5668 24.3739 48.4615 24.9198 50.5032C26.3145 55.7659 30.7357 60.0938 36.1008 61.5163L36.1047 61.5173C37.1736 61.7945 38.6066 61.9242 40.0038 61.9242C41.401 61.9242 42.834 61.7945 43.9029 61.5173L43.9068 61.5163C49.2716 60.0939 53.6926 55.7663 55.0875 50.5039M21.9209 32.4953L54.363 50.3102M21.9209 32.4953C21.9591 32.578 21.9963 32.6582 22.0324 32.736C22.2097 33.1179 22.3604 33.4428 22.4668 33.7181C22.5994 34.0615 22.6937 34.4008 22.6856 34.7761C22.6776 35.15 22.5696 35.4886 22.4216 35.8335C22.2964 36.1253 22.1198 36.471 21.9086 36.8845C21.877 36.9464 21.8446 37.0098 21.8115 37.0748L21.8115 37.0748M21.9209 32.4953L21.8115 37.0748M55.0875 50.5039C55.0877 50.5034 55.0878 50.5029 55.088 50.5023L54.363 50.3102M55.0875 50.5039C55.0875 50.504 55.0875 50.504 55.0875 50.504L54.363 50.3102M55.0875 50.5039C55.6336 48.4622 55.7186 45.567 55.2905 43.5351M54.363 50.3102C54.8793 48.3799 54.9599 45.6041 54.5566 43.6897M55.2905 43.5351C55.2905 43.5352 55.2905 43.5353 55.2905 43.5355L54.5566 43.6897M55.2905 43.5351C54.6646 40.558 53.2414 37.8913 51.1536 35.7766L51.1514 35.7743L50.4252 35.0451M55.2905 43.5351L54.5566 43.6897M54.5566 43.6897L50.4252 35.0451M50.4252 35.0451L50.3109 35.464L49.5873 35.2666M50.4252 35.0451L50.6199 36.3035L49.5873 35.2666M50.4252 35.0451L50.5852 34.459L50.5873 34.451L50.5873 34.4509C50.9555 33.0401 51.3962 31.983 52.2249 30.4984M50.4252 35.0451L50.1188 34.7374L49.5873 35.2666M49.5873 35.2666L49.8616 34.2615M51.5718 30.1297C50.7167 31.6612 50.2488 32.7779 49.8616 34.2615M51.5718 30.1297L52.3462 28.7737M51.5718 30.1297L52.2231 30.5017L52.2249 30.4984M51.5718 30.1297L52.2267 30.4953L52.2249 30.4984M49.8616 34.2615L52.3462 28.7737M49.8616 34.2615L52.2249 30.4984M52.3462 28.7737L52.9975 29.1457L52.8811 29.3495L52.6693 29.4506L52.3462 28.7737ZM58.7898 31.1866C58.7874 31.1799 58.7851 31.1734 58.7829 31.1669C58.7422 31.0451 58.7457 30.947 58.7464 30.9268L58.7465 30.9252C58.7477 30.8872 58.7522 30.8619 58.753 30.8574L58.753 30.8573C58.7547 30.8477 58.7536 30.8563 58.7434 30.8914C58.7288 30.9417 58.7049 31.0139 58.6713 31.1068C58.7081 31.1474 58.7408 31.184 58.7691 31.2164C58.813 31.2666 58.8408 31.3001 58.8557 31.3191C58.8595 31.324 58.8611 31.3262 58.8611 31.3261C58.861 31.3261 58.8591 31.3234 58.8559 31.3186C58.8527 31.3139 58.8443 31.3012 58.834 31.2828C58.8282 31.2724 58.8137 31.2462 58.7984 31.2086C58.7955 31.2016 58.7927 31.1943 58.7898 31.1866ZM58.7898 31.1866C58.7925 31.1938 58.7953 31.2012 58.7983 31.2086L58.79 31.188L58.7829 31.1669C58.7851 31.1737 58.7875 31.1802 58.7898 31.1866ZM21.8115 37.0748L21.8081 37.0813M21.8115 37.0748L21.8081 37.0813M21.8081 37.0813C21.3089 38.0376 20.714 39.4646 20.4871 40.1825L21.8081 37.0813ZM25.5665 64.5247L25.565 64.5253C25.1611 64.7054 24.7831 64.865 24.4991 64.9785C24.46 64.9941 24.423 65.0087 24.3884 65.0223C24.3123 64.9545 24.223 64.8735 24.122 64.7805C23.773 64.4587 23.3038 64.0107 22.8009 63.5134C22.618 63.3311 22.4563 63.1721 22.3127 63.0308C22.0352 62.7578 21.825 62.551 21.6584 62.3704C21.4015 62.0919 21.3664 61.9945 21.3603 61.9703C21.3603 61.9701 21.3602 61.97 21.3602 61.9699C21.3594 61.9667 21.3563 61.9553 21.3616 61.9193C21.3684 61.8734 21.3875 61.7978 21.4366 61.6701C21.5082 61.484 21.609 61.2702 21.7496 60.972C21.8176 60.8278 21.8949 60.6638 21.9827 60.4736C22.172 60.0816 22.3392 59.6703 22.4607 59.3206C22.5217 59.1449 22.5738 58.9774 22.6117 58.8305C22.6443 58.7038 22.6838 58.5287 22.6838 58.3665C22.6838 58.1764 22.6224 57.9677 22.5811 57.8364C22.5293 57.6719 22.4581 57.4792 22.3749 57.2736C22.2084 56.8619 21.9807 56.3662 21.7284 55.8836C21.2601 54.9725 20.6976 53.6255 20.4708 52.9079C20.4333 52.7888 20.3975 52.6743 20.3631 52.5643C20.2256 52.1247 20.1108 51.7576 20.0002 51.4634C19.8588 51.0872 19.6963 50.7489 19.435 50.4596C19.1703 50.1665 18.8536 49.9781 18.4998 49.8134C18.2253 49.6857 17.882 49.5524 17.4763 49.3948C17.3791 49.357 17.2784 49.3179 17.1741 49.2771C17.1738 49.277 17.1736 49.2769 17.1733 49.2768L15.6655 48.6829V46.5613V44.4397L17.1733 43.8458C17.1736 43.8457 17.1739 43.8456 17.1742 43.8454C17.2892 43.8004 17.4001 43.7574 17.5066 43.7161C17.8983 43.5643 18.2315 43.4351 18.4985 43.3116C18.8526 43.1478 19.1705 42.9598 19.4369 42.6651C19.6993 42.3748 19.8633 42.0339 20.0068 41.6529C20.1204 41.3513 20.2388 40.9738 20.3812 40.5193C20.415 40.4115 20.4502 40.2993 20.487 40.1828L25.5665 64.5247ZM25.5665 64.5247C25.6857 64.4718 25.7999 64.4209 25.9093 64.3721C26.3196 64.189 26.6622 64.0361 26.9487 63.9267C27.3202 63.7847 27.6763 63.6831 28.0616 63.6846C28.4514 63.6862 28.7994 63.7928 29.1561 63.9415C29.4264 64.0541 29.7462 64.211 30.1239 64.3963C30.2257 64.4462 30.3317 64.4982 30.4421 64.552L30.4421 64.5519M25.5665 64.5247L30.4421 64.5519M30.4421 64.5519L30.4543 64.5581M30.4421 64.5519L30.4543 64.5581M30.4543 64.5581C31.4572 65.0694 32.8978 65.6558 33.6008 65.8628L33.6008 65.8628M30.4543 64.5581L33.6008 65.8628M33.6008 65.8628L33.6052 65.8641M33.6008 65.8628L33.6052 65.8641M33.6052 65.8641C33.697 65.8918 33.7862 65.9185 33.8726 65.9444C34.3431 66.0855 34.7336 66.2025 35.0455 66.3176C35.4233 66.4569 35.7616 66.6189 36.0521 66.8798C36.3452 67.1432 36.5358 67.4588 36.7028 67.8109C36.833 68.0853 36.9691 68.4277 37.1295 68.8311C37.1672 68.9261 37.2063 69.0245 37.247 69.1262C37.2471 69.1265 37.2473 69.1269 37.2474 69.1273L37.8481 70.6182H40.0038H42.1595L42.7601 69.1273C42.7603 69.127 42.7604 69.1266 42.7605 69.1263C42.8017 69.0235 42.8412 68.924 42.8793 68.8281C43.0387 68.4268 43.1739 68.0866 43.3033 67.8147C43.4705 67.4633 43.6618 67.1494 43.9583 66.8875C44.25 66.6299 44.5906 66.47 44.9697 66.3307C45.2666 66.2216 45.6371 66.1083 46.0816 65.9724C46.193 65.9383 46.3089 65.9029 46.4295 65.8657C47.1566 65.641 48.5199 65.0844 49.4419 64.6211C49.9296 64.3717 50.4301 64.1471 50.843 63.9829C51.0492 63.901 51.2414 63.831 51.4039 63.7801C51.5304 63.7405 51.7392 63.6786 51.9268 63.6786C52.1016 63.6786 52.2962 63.7281 52.4272 63.7644C52.586 63.8084 52.7718 63.8689 52.9698 63.939C53.3664 64.0796 53.8429 64.2698 54.3086 64.4753C54.7595 64.6708 55.1775 64.8406 55.4878 64.9561C55.5473 64.9783 55.6014 64.9979 55.6498 65.0149M33.6052 65.8641L55.6498 65.0149M55.6498 65.0149C55.7455 64.9308 55.8631 64.8235 55.9984 64.6971C56.3507 64.3677 56.7994 63.93 57.2424 63.4861C57.6854 63.0421 58.1169 62.5977 58.4353 62.2552C58.5316 62.1515 58.6152 62.0597 58.6845 61.9816C58.6654 61.9339 58.6442 61.8817 58.621 61.8257C58.4944 61.5196 58.3176 61.1154 58.1206 60.6946L58.1184 60.6898C57.9089 60.2342 57.7192 59.772 57.5801 59.387C57.5108 59.1951 57.4513 59.0147 57.4081 58.8595C57.3721 58.7306 57.3238 58.5402 57.3238 58.3665C57.3238 58.1764 57.3851 57.9677 57.4265 57.8364C57.4782 57.6719 57.5495 57.4792 57.6326 57.2736C57.7992 56.8619 58.0268 56.3662 58.2792 55.8835C58.7466 54.9741 59.3078 53.6305 59.5354 52.9119C59.5678 52.8055 59.5988 52.7027 59.6288 52.6035C59.7649 52.1528 59.8786 51.7763 59.9898 51.4747C60.129 51.0969 60.2912 50.7568 60.5546 50.4654C60.8205 50.1711 61.14 49.9812 61.4969 49.8155C61.7795 49.6843 62.1331 49.5477 62.5519 49.386C62.643 49.3509 62.7371 49.3145 62.8342 49.2768C62.8348 49.2766 62.8354 49.2764 62.836 49.2761L64.342 48.6829V46.5613V44.4397L62.8343 43.8458C62.8341 43.8457 62.834 43.8457 62.8338 43.8456L55.6498 65.0149Z" stroke="white" stroke-width="1.5"/>
<path d="M4.78375 29.7141C4.25133 30.2087 4.08999 30.7989 4.34813 31.4211C4.62241 32.0592 5.09029 32.3623 5.81632 32.3623C7.01023 32.3623 7.73625 31.1977 7.1877 30.1608C7.0425 29.8896 6.78435 29.5865 6.62301 29.4908C6.05833 29.2036 5.2355 29.2993 4.78375 29.7141Z" fill="#00B0F2"/>
<path d="M73.1266 29.7139C72.7555 30.033 72.6748 30.2244 72.6748 30.8466C72.6748 31.4688 72.7555 31.6602 73.1266 31.9793C73.9817 32.6971 75.2401 32.41 75.6596 31.4209C76.2727 29.9373 74.3689 28.661 73.1266 29.7139Z" fill="#00B0F2"/>
<path d="M33.5499 40.8661C33.5499 41.9505 33.4692 41.9346 40.0357 41.9346C45.5374 41.9346 45.9407 41.9186 46.1827 41.6475C46.3441 41.488 46.457 41.1212 46.457 40.8501V40.3398H40.0034H33.5499V40.8661Z" fill="#00B0F2"/>
<path d="M35.647 44.9338C35.647 45.173 35.7599 45.5398 35.9051 45.7312C36.1471 46.082 36.1955 46.082 40.0677 46.082C44.4077 46.082 44.2948 46.098 44.4722 45.0614L44.569 44.4873H40.0999H35.647V44.9338Z" fill="#00B0F2"/>
<path d="M3.13844 45.4922C2.36401 46.2579 2.36401 46.8641 3.13844 47.6299C3.63859 48.1244 3.7838 48.1882 4.30008 48.1084C6.18775 47.8053 6.18775 45.3167 4.30008 45.0136C3.7838 44.9338 3.63859 44.9976 3.13844 45.4922Z" fill="#00B0F2"/>
<path d="M74.8205 45.4286C74.3849 45.8115 74.2881 46.0029 74.2881 46.5613C74.2881 47.1196 74.3849 47.3111 74.8205 47.6939C75.5465 48.3321 76.1758 48.3161 76.8856 47.6142C77.289 47.2154 77.4342 46.9282 77.4342 46.5613C77.4342 46.1944 77.289 45.8913 76.8856 45.5084C76.1758 44.8065 75.5465 44.7905 74.8205 45.4286Z" fill="#00B0F2"/>
<path d="M37.9062 49.2417C37.9062 49.5766 37.9869 49.9275 38.0999 50.0391C38.2289 50.1667 38.9066 50.2305 40.0843 50.2305C41.2621 50.2305 41.9397 50.1667 42.0688 50.0391C42.1817 49.9275 42.2624 49.5766 42.2624 49.2417V48.6357H40.0843H37.9062V49.2417Z" fill="#00B0F2"/>
<path d="M4.8962 60.9986C4.44445 61.3017 4.12178 62.0993 4.25085 62.6098C4.49286 63.5511 5.73517 64.0935 6.62253 63.6308C7.47763 63.1682 7.6067 61.7005 6.81614 61.0783C6.33212 60.6955 5.38022 60.6476 4.8962 60.9986Z" fill="#00B0F2"/>
<path d="M73.0621 61.2215C72.5297 61.7479 72.4651 62.2903 72.8362 62.9923C73.7236 64.6833 76.3857 63.4549 75.6596 61.7001C75.2079 60.6472 73.901 60.4079 73.0621 61.2215Z" fill="#00B0F2"/>
<defs>
<filter id="filter0_i_19_266" x="14.9155" y="27.3818" width="51.1763" height="44.9863" filterUnits="userSpaceOnUse" color-interpolation-filters="sRGB">
<feFlood flood-opacity="0" result="BackgroundImageFix"/>
<feBlend mode="normal" in="SourceGraphic" in2="BackgroundImageFix" result="shape"/>
<feColorMatrix in="SourceAlpha" type="matrix" values="0 0 0 0 0 0 0 0 0 0 0 0 0 0 0 0 0 0 127 0" result="hardAlpha"/>
<feOffset dx="1" dy="1"/>
<feGaussianBlur stdDeviation="0.55"/>
<feComposite in2="hardAlpha" operator="arithmetic" k2="-1" k3="1"/>
<feColorMatrix type="matrix" values="0 0 0 0 1 0 0 0 0 1 0 0 0 0 1 0 0 0 1 0"/>
<feBlend mode="normal" in2="shape" result="effect1_innerShadow_19_266"/>
</filter>
</defs>
</svg>
