<svg width="67" height="74" viewBox="0 0 67 74" fill="none" xmlns="http://www.w3.org/2000/svg">
<path d="M41.1281 0.0121384C41.1123 0.0341263 34.6128 0.0854187 26.6838 0.129395C18.7548 0.180687 11.8446 0.231987 11.3233 0.246643C10.8021 0.261299 9.2937 0.312599 7.96694 0.356567C6.61648 0.400536 4.68952 0.415199 3.58388 0.38588C1.82276 0.341911 1.58584 0.319931 1.41999 0.202675C1.0883 -0.0391617 0.63815 0.0634384 0.227485 0.466492L0.0300501 0.66436L0.00635789 30.3513C-0.00943691 46.6861 0.00635789 60.3094 0.0300501 60.6318C0.109024 61.5698 -0.048924 61.5185 2.41506 61.4819C4.1209 61.4599 4.52367 61.4746 4.57895 61.5552C4.61844 61.6138 4.65003 62.3613 4.65003 63.2187C4.65003 64.6624 4.66582 64.8016 4.81587 65.0874C5.14757 65.6957 4.94223 65.6517 7.58786 65.6517H9.94129V67.242C9.94129 68.5171 9.96498 68.8835 10.0597 69.052C10.1229 69.162 10.1782 69.3159 10.1782 69.3891C10.1782 69.4551 10.2414 69.565 10.3204 69.631C10.4467 69.7409 10.7468 69.7556 12.8475 69.7556H15.2325L15.2799 69.9388C15.3431 70.1806 15.2799 73.2072 15.201 73.3538C15.1615 73.4344 15.2089 73.5443 15.3273 73.6689L15.509 73.8667L19.5761 73.8887C21.8111 73.9034 26.9997 73.94 31.1063 73.9693C37.598 74.0206 38.8695 74.0133 40.8596 73.9034C42.1232 73.8374 43.3078 73.7641 43.5052 73.7422C43.7027 73.7275 44.1607 73.6762 44.524 73.6396C44.8873 73.6029 45.9139 73.5516 46.8143 73.5296C47.7067 73.5003 48.4885 73.471 48.5438 73.449C48.607 73.4344 50.6682 73.471 53.1243 73.537C57.3415 73.6469 63.075 73.6396 63.92 73.5296C65.0415 73.3757 65.3415 73.3684 65.5785 73.5076C65.9496 73.7128 66.4314 73.6835 66.7394 73.427L67 73.2145L66.9763 68.9348C66.9684 66.5824 66.9368 63.9882 66.921 63.1601C66.7394 55.9124 66.7078 53.091 66.7078 46.7081C66.7078 40.3618 66.7473 36.8588 66.921 26.9949C66.9368 25.947 66.9684 22.3488 66.9763 18.9924L67 12.9026L66.8105 12.7121C66.4709 12.375 66.0602 12.3237 64.5123 12.397C63.7542 12.4336 62.8697 12.4409 62.5617 12.4116L61.9852 12.3603V10.6382C61.9852 9.02595 61.9773 8.89404 61.8272 8.66686C61.5666 8.28579 61.3455 8.24915 59.0236 8.2638C57.8943 8.27113 56.9071 8.25648 56.8361 8.23449C56.7334 8.19785 56.7176 7.94868 56.7097 6.51234C56.7097 4.69492 56.6781 4.56301 56.2753 4.28454C56.0542 4.13797 55.9752 4.13065 54.0088 4.15263L51.9634 4.17461L51.9239 4.00607C51.9002 3.9108 51.8686 3.09003 51.8607 2.17399L51.837 0.503136L51.5764 0.268631L51.3237 0.0267944L46.2456 0.00481415C43.45 -0.0025177 41.1518 -0.0025177 41.1281 0.0121384ZM50.0443 3.06804L50.0206 4.094L47.4539 4.13065C46.0403 4.1453 40.5911 4.18194 35.3314 4.20393C30.0797 4.23324 23.2879 4.28454 20.2474 4.32851C17.2069 4.37247 12.8238 4.41645 10.502 4.43111C6.34007 4.45309 6.29269 4.45309 6.07156 4.29919C5.89782 4.18194 5.78725 4.15996 5.55823 4.19659C5.21864 4.25523 4.78429 4.59966 4.64213 4.91477C4.56316 5.08332 4.55526 10.7774 4.58685 32.4252C4.61054 47.4336 4.61054 59.7304 4.57895 59.7451C4.55526 59.7598 3.95506 59.7964 3.25219 59.8184C2.27291 59.855 1.97281 59.8404 1.94122 59.7671C1.90173 59.6645 1.97281 2.53307 2.0123 2.48911C2.0202 2.47445 2.47035 2.46712 3.00737 2.47445C3.54439 2.48177 4.90275 2.45246 6.03207 2.40849C12.1131 2.18131 21.6215 2.08604 41.4361 2.05673L50.068 2.04208L50.0443 3.06804ZM54.8301 6.1899C54.8538 6.25585 54.8775 6.72486 54.8775 7.24517C54.8775 8.0806 54.8617 8.19052 54.7432 8.22717C54.6643 8.24182 51.5448 8.27846 47.8093 8.30045C33.8704 8.38838 19.7736 8.54228 16.8357 8.63755C15.3194 8.68152 14.2059 8.68152 13.5978 8.63755C13.0845 8.60091 12.4211 8.56426 12.1289 8.56426C11.7577 8.56426 11.5524 8.52763 11.4734 8.45434C11.3075 8.30777 10.7705 8.3151 10.4783 8.46899C10.352 8.54228 10.1782 8.72549 10.0913 8.87206C9.94129 9.13587 9.94129 9.74412 9.94129 36.5071V63.8709L9.37267 63.9149C9.05678 63.9442 8.29863 63.9662 7.69053 63.9735L6.58489 63.9809V35.2759V6.57829L8.28283 6.54898C12.6027 6.46837 14.0795 6.43173 14.1427 6.39509C14.2217 6.35112 25.5939 6.2412 39.9514 6.15325C55.3513 6.05798 54.7748 6.05798 54.8301 6.1899ZM60.153 11.2904L60.1293 12.3383L57.5626 12.353C56.149 12.3603 51.1578 12.4043 46.4668 12.4483C41.7757 12.4849 35.3077 12.5435 32.0935 12.5582C28.8793 12.5802 25.4518 12.6315 24.4804 12.6754C23.0115 12.7414 20.5633 12.7561 17.2622 12.7121C16.97 12.7121 16.7331 12.6828 16.7331 12.6535C16.7331 12.6241 16.6225 12.5435 16.4882 12.4849C16.2671 12.375 16.2197 12.375 15.9591 12.4922C15.6037 12.6461 15.5326 12.7121 15.3668 13.0272C15.2404 13.2617 15.2325 14.3976 15.2325 30.1754C15.2325 39.4677 15.2562 51.7573 15.2878 57.4807C15.3273 66.3919 15.3194 67.9015 15.2246 67.9675C15.1536 68.0261 14.5376 68.0627 13.4951 68.0774L11.8762 68.1067L11.9077 39.4164L11.9393 10.7261L14.9482 10.6748C16.5988 10.6455 18.51 10.6089 19.1812 10.5869C19.8525 10.5649 21.5584 10.5209 22.972 10.4769C24.3856 10.4403 29.6769 10.3963 34.7391 10.389C39.8014 10.3817 45.1479 10.3524 46.6247 10.3304C48.1015 10.3011 51.7501 10.2718 54.7432 10.2644L60.1767 10.2498L60.153 11.2904ZM65.1362 14.4196C65.231 14.4782 65.2389 15.3576 65.1915 20.1869C65.1599 23.3308 65.1046 28.1675 65.0572 30.9522C64.8282 46.0558 64.8282 50.255 65.0572 60.5585C65.1046 62.4492 65.1599 65.8422 65.1915 68.092L65.2389 72.1812L63.5173 72.1226C61.3534 72.0493 48.7333 72.042 47.296 72.1153C46.3009 72.1666 44.5872 72.2692 43.1893 72.3571C40.4016 72.5403 35.442 72.5257 29.6058 72.3205C26.5337 72.2105 19.8762 72.1592 18.1941 72.2252C17.1832 72.2692 16.6778 72.2618 16.6383 72.2105C16.5514 72.1079 16.5593 14.9985 16.6462 14.8813C16.6936 14.8153 16.8831 14.786 17.2938 14.8006C18.0282 14.8226 25.3333 14.6614 26.4469 14.6028C27.1576 14.5661 32.2041 14.5222 52.1924 14.4049C60.9032 14.3609 65.0335 14.3609 65.1362 14.4196Z" fill="#08083B"/>
<path d="M29.5262 18.5819C28.0415 18.8238 27.5755 19.3367 27.386 20.9636L27.2912 21.821L26.8648 22.0116C26.6358 22.1142 26.4304 22.1948 26.4067 22.1948C26.3672 22.1948 25.4117 22.7151 25.3011 22.7957C24.1244 23.6604 23.5637 24.276 23.0187 25.3093C22.4106 26.4379 22.2448 27.2 22.2843 28.5411C22.3159 29.8382 22.4975 30.4245 23.1451 31.3185C23.8085 32.2345 24.8036 33.0113 26.0513 33.5683C27.3228 34.1399 28.0099 34.411 28.2863 34.4623C28.7128 34.5356 29.0603 34.6895 29.3367 34.924C29.692 35.2318 29.7631 35.4883 29.6289 35.9646C29.4788 36.4923 29.3209 36.7048 29.0681 36.7048C28.3811 36.7048 26.928 36.1552 26.1224 35.5836C25.9645 35.4737 25.8065 35.3857 25.7749 35.3857C25.7512 35.3857 25.6091 35.3051 25.4669 35.2025C25.0247 34.8947 24.5271 34.9973 24.1323 35.4883C24.0138 35.6275 23.919 35.7595 23.919 35.7814C23.919 35.8254 23.0503 36.954 22.8766 37.1445C22.7581 37.2618 22.616 37.4743 22.5054 37.6941C22.4659 37.7747 22.3396 37.9653 22.229 38.1192C22.1184 38.2731 22.0237 38.427 22.0237 38.4563C22.0237 38.4929 21.9526 38.6615 21.8657 38.8373C21.692 39.2038 21.6683 39.6654 21.8104 39.9073C21.9763 40.1857 22.9398 40.8087 23.998 41.307C24.5745 41.5781 25.5617 41.9152 26.9122 42.289L27.2517 42.3842L27.2439 43.4468C27.236 45.169 27.465 45.5427 28.4285 45.3522C28.8786 45.2643 30.1343 45.2862 31.2004 45.3962C31.777 45.4548 32.0771 45.3449 32.3061 45.0004C32.4719 44.744 32.4798 44.6633 32.464 43.4981C32.4482 42.8166 32.464 42.201 32.4877 42.1277C32.5114 42.0545 32.6299 41.9665 32.7483 41.9445C32.8668 41.9152 33.1985 41.776 33.4907 41.6294C34.9438 40.8819 35.3466 40.6254 36.1047 39.9146C36.5233 39.5189 36.8708 39.1671 36.8708 39.1305C36.8708 39.0938 36.9655 38.9106 37.084 38.7128C37.5105 38.0166 37.7316 37.2398 37.7316 36.485C37.7395 35.3491 37.3367 33.7075 36.8708 32.9307C36.1126 31.6703 35.1807 30.9008 33.4275 30.102C32.8984 29.8675 32.4245 29.6696 32.3693 29.6696C32.3219 29.6696 31.927 29.5011 31.5005 29.2959L30.7266 28.9222L30.6002 28.4751C30.3396 27.4858 30.3238 27.3905 30.4344 27.3539C30.5766 27.3026 31.4532 27.5151 31.8954 27.713C32.2034 27.8449 32.7957 28.2186 32.9221 28.3505C33.0879 28.5264 33.5065 28.717 33.7355 28.717C34.0198 28.717 34.1225 28.6364 35.1097 27.5811C36.3574 26.24 36.6891 25.8882 36.8234 25.7637C36.9024 25.683 37.0524 25.4559 37.1551 25.2433C37.313 24.9136 37.3288 24.8256 37.2578 24.5765C37.2104 24.4226 37.0761 24.2101 36.9576 24.1075C36.3022 23.5285 35.9942 23.2867 35.5282 23.0009C35.2439 22.8323 34.928 22.6345 34.8175 22.5612C34.541 22.3926 33.6723 22.0262 33.159 21.8577C32.9221 21.7844 32.6773 21.6965 32.6299 21.6598C32.5509 21.6085 32.5272 21.2861 32.5272 20.4946C32.5272 19.1242 32.4403 18.7725 32.085 18.6332C31.7059 18.4867 30.3159 18.4573 29.5262 18.5819ZM30.7977 21.5059C30.7819 22.3707 30.8135 22.6784 30.9082 22.9129C31.0425 23.2281 31.082 23.2427 32.2429 23.5798C33.1511 23.8436 34.4068 24.4739 34.9517 24.9429L35.1334 25.0895L34.8727 25.3386C34.7385 25.4779 34.5647 25.6684 34.5016 25.7563C34.4305 25.8516 34.2251 26.0788 34.0356 26.262C33.7355 26.5624 33.6802 26.5844 33.5618 26.4965C33.3722 26.3499 32.1639 25.8003 31.6585 25.6317C31.161 25.4632 30.1185 25.3753 29.5657 25.4485C28.4837 25.6024 27.6624 27.2073 28.0652 28.4018C28.2942 29.0907 28.4995 29.3838 29.1708 29.9994C29.8184 30.6077 30.0948 30.7762 31.2636 31.2892C32.9142 32.0147 33.8619 32.4764 33.9014 32.5716C33.925 32.6303 33.9961 32.6742 34.0514 32.6742C34.1462 32.6742 34.849 33.3191 35.1965 33.7295C35.3229 33.8761 35.6862 34.5356 35.8283 34.8727C35.8836 35.012 35.9547 35.4443 35.9784 35.8327C36.0179 36.4263 35.9942 36.6242 35.852 37.0566C35.7572 37.3424 35.6467 37.5989 35.6072 37.6208C35.5598 37.6428 35.5282 37.7161 35.5282 37.7747C35.5282 37.9506 34.7148 38.9106 34.2883 39.2404C33.7671 39.6508 33.3091 39.878 32.5667 40.1125C30.8767 40.6474 30.774 40.7647 30.7266 42.4062L30.695 43.5275L29.85 43.5055L29.0129 43.4835L28.9734 42.311C28.9339 41.0358 28.847 40.7793 28.4758 40.6987C28.3811 40.6841 28.0573 40.6108 27.7493 40.5522C26.5015 40.2957 25.2379 39.856 24.3613 39.3577C23.6268 38.9546 23.6347 38.9619 23.8875 38.5515C24.0059 38.361 24.1481 38.1778 24.2112 38.1485C24.2665 38.1192 24.3139 38.0532 24.3139 38.0092C24.3139 37.9286 24.7641 37.3717 24.9378 37.2471C25.0247 37.1885 25.1747 37.2251 25.5617 37.4157C26.8727 38.0532 28.1678 38.3903 29.2735 38.3903C30.3712 38.3903 30.7898 38.2511 31.39 37.6941C31.7928 37.3131 31.8954 37.1592 32.0613 36.6975C32.2903 36.0233 32.314 35.3198 32.1007 34.9533C31.8875 34.5796 31.2794 34.008 30.7898 33.7149C30.5529 33.5683 29.3919 32.9967 28.2152 32.4471C27.0306 31.8974 25.8223 31.2965 25.5301 31.1133C24.1323 30.2706 23.5242 29.186 23.7611 27.9621C23.8559 27.4565 23.919 27.2806 24.2507 26.6284C24.843 25.4559 26.4225 24.0781 27.7098 23.5872C27.9467 23.4992 28.2705 23.3746 28.4285 23.316C28.8075 23.1694 28.9497 22.8543 29.0208 22.0116C29.0445 21.6452 29.1155 21.2494 29.1708 21.1175C29.384 20.6338 29.8579 20.3554 30.4265 20.3847L30.8056 20.3993L30.7977 21.5059Z" fill="#08083B"/>
<path d="M52.6655 34.6751C52.6418 34.6898 51.8836 34.7264 50.9833 34.7557C50.0751 34.7777 49.3091 34.8144 49.2696 34.8363C49.238 34.8583 47.9507 34.8876 46.4265 34.9023C44.1205 34.9243 43.623 34.9463 43.5282 35.0415C43.2676 35.2834 43.2439 36.0895 43.4966 36.1774C43.5677 36.1994 43.6466 36.2507 43.6782 36.2947C43.773 36.4193 43.7493 40.7723 43.6545 43.3665C43.5677 45.6016 43.5677 45.6676 43.7177 45.8581L43.8757 46.0486L46.5924 46.1366C52.5549 46.3198 53.7 46.3271 55.8244 46.2025C57.7909 46.0853 59.1966 45.9241 59.2993 45.8141C59.6626 45.4331 59.7573 42.9781 59.5599 39.0868C59.5362 38.5591 59.5046 37.4379 59.4967 36.5951C59.4888 35.7451 59.4572 34.9976 59.4256 34.9316C59.3941 34.8657 59.3072 34.785 59.2361 34.7557C59.0861 34.6971 52.7287 34.6165 52.6655 34.6751ZM57.4829 36.0382L58.2331 36.0822L58.2805 37.5478C58.4227 41.6663 58.4543 44.2239 58.3595 44.3851C58.3121 44.4731 58.1384 44.605 57.9725 44.6782C57.704 44.7955 57.1828 44.8028 51.2913 44.8248C46.1659 44.8395 44.8865 44.8248 44.8313 44.7515C44.7997 44.7002 44.7681 42.7875 44.7681 40.5011V36.3386L44.9497 36.3093C45.0445 36.2873 46.2054 36.2507 47.5322 36.2287C48.8589 36.1994 50.1936 36.1628 50.4937 36.1481C52.6892 36.0015 56.1245 35.9502 57.4829 36.0382Z" fill="#08083B"/>
<path d="M38.9255 51.9625C30.2147 52.1237 24.0626 52.3289 22.8385 52.5048C22.57 52.5414 22.4199 52.7906 22.4199 53.1936C22.4199 53.5527 22.5463 53.582 23.7783 53.5307C26.803 53.4208 30.0093 53.3475 33.6342 53.3109C35.8297 53.2889 38.4753 53.2449 39.5178 53.2229C40.5602 53.1936 42.9769 53.2156 44.888 53.2669C49.7291 53.3915 56.2603 53.3915 58.1951 53.2669C59.6088 53.179 59.743 53.157 59.9089 53.0031C60.0431 52.8785 60.0905 52.7466 60.0905 52.5048C60.0905 52.3215 60.0589 52.1603 60.0194 52.1383C59.9405 52.0944 49.5317 51.9478 44.809 51.9258C43.119 51.9185 40.4655 51.9331 38.9255 51.9625Z" fill="#08083B"/>
<path d="M58.9061 61.8411C58.6692 61.8777 57.4056 61.9583 56.1025 62.0316C53.599 62.1562 51.6247 62.1489 46.6256 61.9803C43.6325 61.8777 35.3955 61.8777 32.1734 61.9803C29.6225 62.0682 26.2503 62.2368 24.7893 62.354C24.2918 62.3907 23.8021 62.4273 23.6995 62.4273C23.4073 62.4273 23.1309 62.7424 23.1309 63.0722C23.1309 63.2481 23.1782 63.402 23.2493 63.4533C23.352 63.5339 24.1022 63.5412 27.0638 63.4899C29.0934 63.4606 30.894 63.424 31.0677 63.4093C31.8733 63.3507 36.6038 63.1528 38.7677 63.0869C40.5446 63.0283 42.132 63.0356 44.8092 63.1015C51.6168 63.2774 57.3029 63.2115 59.2378 62.933C59.9169 62.8304 60.1065 62.6472 60.0749 62.1415L60.0512 61.8044L59.6958 61.7971C59.4984 61.7898 59.143 61.8118 58.9061 61.8411Z" fill="#08083B"/>
<path d="M37.1716 2.15189C37.1558 2.17388 32.9623 2.18853 27.8605 2.18853C22.7588 2.18853 17.1833 2.22517 15.4695 2.26182C11.8209 2.34243 6.29275 2.48167 3.82086 2.54762L2.08343 2.59159L2.05974 24.7084L2.04395 46.8179L2.37564 46.7739C2.56517 46.7446 2.75471 46.7006 2.7942 46.6713C2.84158 46.642 3.14168 46.5907 3.46548 46.5687C3.78927 46.5394 4.15255 46.4734 4.27891 46.4295L4.49214 46.3415V25.6464V4.9513L4.69747 4.65084C5.03706 4.15985 5.72413 3.94 6.1269 4.20382C6.38752 4.37237 10.0756 4.42366 14.5218 4.31374C16.5831 4.26977 19.6788 4.21114 21.3926 4.19649C27.2761 4.13786 49.7837 4.04259 49.8469 4.07191C49.8785 4.08656 49.9022 3.65419 49.9022 3.1119V2.11525H43.5606C40.0699 2.11525 37.1953 2.12991 37.1716 2.15189Z" fill="#00B0F2"/>
<path d="M45.4401 10.4033C43.2683 10.44 36.7688 10.4986 30.9879 10.5426C25.2149 10.5865 20.2553 10.6378 19.971 10.6525C19.6867 10.6745 17.8308 10.7111 15.8486 10.7404C13.0134 10.7771 12.2316 10.8064 12.2316 10.8797C12.2316 10.931 12.1842 10.9823 12.1368 10.9969C12.0578 11.0262 12.0262 15.5185 12.0104 33.0624L11.9946 55.0986H12.2316C12.3579 55.0986 12.4685 55.0693 12.4685 55.0327C12.4685 54.996 12.7054 54.9447 12.9976 54.9154C13.2977 54.8861 13.5741 54.8421 13.6136 54.8055C13.661 54.7762 13.9927 54.7249 14.3638 54.6956C14.735 54.6663 15.0588 54.6076 15.0904 54.5637C15.122 54.5124 15.1536 45.4546 15.1536 34.4255C15.1536 18.9335 15.1299 14.3606 15.0588 14.2947C14.9877 14.2287 14.9877 14.1847 15.0588 14.1188C15.1141 14.0675 15.1536 13.8476 15.1536 13.6205C15.1536 13.0269 15.3747 12.6751 15.9196 12.3893C16.1803 12.2574 16.3777 12.2794 16.6304 12.4772L16.8515 12.6458L20.6423 12.6311C22.7272 12.6165 24.6463 12.5872 24.9069 12.5579C25.3965 12.5139 38.2693 12.404 52.0739 12.338C56.378 12.3087 59.9397 12.2794 59.995 12.2647C60.0661 12.2427 60.0898 11.9789 60.0898 11.2754V10.3227L54.7433 10.3374C51.7975 10.3447 47.6119 10.374 45.4401 10.4033Z" fill="#00B0F2"/>
</svg>
