<svg width="81" height="74" viewBox="0 0 81 74" fill="none" xmlns="http://www.w3.org/2000/svg">
<path d="M50.4645 0.119328C49.4841 0.398346 48.6484 0.927006 47.7002 1.89622C46.1091 3.52626 45.9806 3.57032 43.3127 3.585C41.1752 3.585 41.0145 3.61437 40.2109 3.99619C39.0056 4.5689 38.2181 5.27378 37.5913 6.33111C37.0448 7.25627 37.0448 7.27095 37.0448 9.23875C37.0288 11.6618 36.9323 11.8821 35.2448 13.2771C33.5895 14.6429 33.0752 15.6267 33.0752 17.3596C33.0913 19.2246 33.7502 20.5022 35.3091 21.6476C36.9002 22.8371 37.0288 23.1014 37.0288 25.5392C37.0448 27.3895 37.077 27.5804 37.4948 28.344C37.8966 29.1223 39.3431 30.5468 39.8573 30.7083C40.0341 30.7524 39.5038 31.9125 37.5591 35.6865C36.177 38.3886 35.0359 40.7088 35.0359 40.8557C35.0359 41.0025 35.1163 41.2522 35.1966 41.399C35.5341 41.9717 35.8716 42.0011 38.427 41.7662C39.777 41.6487 40.9663 41.5459 41.0788 41.5459C41.1913 41.5459 41.9466 42.2948 42.7663 43.1906C43.5859 44.1011 44.3895 44.9675 44.5663 45.1143C45.0163 45.4815 45.8681 45.4374 46.2377 45.0262C46.3984 44.8353 47.3948 42.4564 48.4556 39.7396L50.3841 34.7908L51.5895 34.8789C52.2645 34.9376 53.052 34.9082 53.3895 34.8201C53.8234 34.7173 54.0002 34.7173 54.0484 34.8348C54.0806 34.9376 54.9645 37.1844 56.0091 39.8571C57.0538 42.5151 58.0502 44.85 58.227 45.0262C58.5966 45.408 59.2395 45.4668 59.7216 45.1584C59.8984 45.0409 60.7181 44.1892 61.5538 43.2493C63.2734 41.3256 63.0002 41.4431 65.4431 41.6927C67.6931 41.9277 68.5931 41.913 68.9305 41.634C69.6216 41.0613 69.5573 40.885 66.9377 35.8187C65.5716 33.1607 64.4466 30.9286 64.4466 30.8552C64.4466 30.7817 64.7681 30.5174 65.1538 30.2678C65.9734 29.7244 66.9056 28.5055 67.1627 27.6391C67.2591 27.3014 67.3395 26.2734 67.3234 25.3483C67.3073 23.2336 67.4359 22.9546 69.0752 21.6183C70.7627 20.2379 71.277 19.2393 71.277 17.389C71.2609 15.4799 70.602 14.2757 68.9145 13.1009C67.5645 12.1464 67.4359 11.8527 67.3234 9.31218C67.2591 7.40312 67.1948 7.02131 66.8734 6.46327C66.327 5.49406 65.1698 4.45142 64.1413 3.99619C63.2895 3.61437 63.1127 3.585 61.0716 3.585C59.0627 3.585 58.8538 3.55563 58.2109 3.21788C57.8413 3.02697 57.2466 2.51299 56.8931 2.10181C56.1859 1.23539 55.1413 0.53051 54.1448 0.207439C53.4377 -0.027523 51.1716 -0.0715752 50.4645 0.119328ZM53.5663 2.24866C53.8556 2.35146 54.5788 2.95354 55.1895 3.57032C56.0252 4.42205 56.5395 4.80386 57.3591 5.1563C58.3877 5.62622 58.452 5.64091 60.6056 5.64091C62.7109 5.64091 62.8073 5.65559 63.4502 6.05209C63.8198 6.27237 64.3181 6.7276 64.5591 7.06536C64.993 7.65276 65.0091 7.74088 65.0252 9.69398C65.0252 11.6471 65.0413 11.7352 65.5395 12.6604C65.9252 13.3653 66.3591 13.8645 67.2591 14.5988C68.7216 15.803 68.9948 16.2288 69.0109 17.389C69.0109 18.5344 68.5609 19.3274 67.452 20.1204C65.5073 21.5008 65.0252 22.5434 65.0091 25.3336C65.0091 27.1986 64.993 27.2573 64.5591 27.786C64.3181 28.0797 63.852 28.5055 63.5306 28.7258C62.9681 29.1223 62.8877 29.137 60.8466 29.1517C57.7609 29.1664 56.7002 29.5776 55.0609 31.4279C54.1609 32.4558 53.4377 32.7936 52.152 32.7936C50.9948 32.7936 50.4163 32.5439 49.5645 31.6775C47.3627 29.4601 46.6556 29.1517 43.7466 29.1811C41.2234 29.2104 40.5966 28.9608 39.6002 27.5216C39.3431 27.1545 39.2948 26.8021 39.2948 25.0986C39.2948 23.1455 39.2788 23.1014 38.7645 22.1175C38.3627 21.3686 37.977 20.9427 37.2377 20.37C35.7591 19.254 35.4538 18.7987 35.3895 17.6239C35.3091 16.3169 35.6145 15.7736 37.1734 14.4813C38.0252 13.7911 38.5234 13.2478 38.8448 12.6457C39.2788 11.8527 39.2948 11.7058 39.2948 9.82615C39.2948 7.9171 39.3109 7.8143 39.7448 7.15347C40.0341 6.69823 40.452 6.31642 40.9502 6.05209C41.6734 5.65559 41.7859 5.64091 43.8752 5.64091C45.9323 5.64091 46.0931 5.62622 46.9609 5.22973C47.6198 4.93603 48.2145 4.48079 48.9698 3.70248C49.5806 3.1004 50.3198 2.48362 50.6252 2.32209C51.3002 1.99902 52.8109 1.95496 53.5663 2.24866ZM46.0609 31.4132C46.6556 31.6922 48.3752 33.2635 48.3752 33.5719C48.3752 33.7481 45.1448 42.0452 45.0163 42.1627C44.9681 42.2214 44.3734 41.6634 43.7145 40.9438C43.0556 40.2095 42.3806 39.5487 42.1877 39.49C42.0109 39.4312 41.1752 39.4312 40.3395 39.5193C37.7681 39.7543 37.7841 40.1802 40.227 35.4222C42.6216 30.767 42.2038 31.1929 44.3413 31.1489C45.0966 31.1195 45.5627 31.2076 46.0609 31.4132ZM61.4573 31.237L62.0841 31.3398L64.2056 35.4516C65.3788 37.7131 66.2627 39.5928 66.1823 39.6221C66.102 39.6515 65.202 39.5928 64.2056 39.49C63.1931 39.4019 62.2609 39.3725 62.1323 39.4459C62.0198 39.5047 61.377 40.1361 60.7502 40.841C60.1073 41.5606 59.5288 42.1333 59.4645 42.1333C59.4002 42.1333 58.5966 40.1949 57.6645 37.8306L55.9931 33.5425L56.6841 32.7495C57.4556 31.8831 57.9538 31.4866 58.5323 31.281C58.9663 31.1195 60.5573 31.0901 61.4573 31.237Z" fill="#08083B"/>
<path d="M50.2229 7.82932C47.2979 8.35798 44.9032 9.82649 43.2479 12.1174C39.7764 16.9194 41.705 23.4983 47.3782 26.1269C50.5282 27.5807 54.6425 27.4632 57.6479 25.8038C60.7336 24.1004 62.5979 21.2221 62.7907 17.8886C62.9032 16.097 62.5657 14.6579 61.6818 13.0278C60.8782 11.574 59.1425 9.85586 57.6639 9.04818C55.5264 7.88806 52.6014 7.40345 50.2229 7.82932ZM55.1246 10.1055C58.0336 11.1335 60.1871 13.5859 60.6211 16.376C60.9907 18.7403 60.0907 21.1487 58.1782 22.8962C55.5264 25.3192 51.7979 25.8773 48.4229 24.3647C46.2532 23.3808 44.6461 21.648 43.9711 19.5333C43.6818 18.6228 43.6336 16.5522 43.8907 15.5537C44.5336 13.0131 47.0568 10.6488 49.9336 9.88523C51.1068 9.57684 53.9996 9.69432 55.1246 10.1055Z" fill="#08083B"/>
<path d="M52.9396 16.1556L50.6575 18.2409L50.0628 17.257C49.4682 16.2731 49.1307 15.9941 48.5682 15.9941C48.1986 15.9941 47.5718 16.5815 47.5718 16.9486C47.5718 17.3598 49.5164 20.3996 49.9343 20.6492C50.1432 20.7814 50.4646 20.8401 50.6575 20.7961C50.8664 20.7373 52.3128 19.5185 53.8878 18.0793C56.3146 15.8472 56.7325 15.392 56.7325 15.0102C56.7325 14.4668 56.2986 14.085 55.6718 14.085C55.2861 14.085 54.82 14.4375 52.9396 16.1556Z" fill="#08083B"/>
<path d="M23.5125 41.9719C21.9375 42.3684 19.5268 43.5285 17.7589 44.7327C16.1196 45.8634 12.825 48.7417 11.0732 50.5773C10.0446 51.6493 9.86786 51.7815 9.57857 51.6493C9.41786 51.5612 8.82321 51.5025 8.29286 51.5025C6.70179 51.5025 6.20357 51.8109 2.925 54.8066C0.128571 57.3765 0 57.5234 0 58.0814C0 58.6394 0.160714 58.7863 8.38929 66.3197C16.65 73.8678 16.8107 74 17.4214 74C18.0321 74 18.1929 73.8825 20.8607 71.4595C22.3875 70.0791 23.8339 68.64 24.0589 68.3022C24.5732 67.5092 24.7661 66.6281 24.6054 65.8204C24.4768 65.2036 24.4768 65.2036 25.0714 64.9834C27.9 63.9554 32.1911 63.7498 39.9375 64.3079C48.7286 64.9246 52.9714 64.6162 57.375 63.0303C62.8875 61.0478 75.7768 53.9843 79.0875 51.1354C80.5179 49.9018 81 49.0207 81 47.6844C81 45.9956 80.0839 44.8648 78.3161 44.3949C76.6125 43.9397 76.2589 44.0572 69.8304 46.9795C65.0571 49.1529 58.3554 51.9284 56.9732 52.3249C56.6839 52.3983 56.6518 52.3395 56.6518 51.4878C56.6357 49.7403 55.3018 48.0515 53.5018 47.5228C53.0036 47.376 52.1518 47.2732 51.3643 47.2732C48.0857 47.2732 43.9071 46.6417 40.5161 45.6285C39.4071 45.3054 36.9964 44.483 35.1643 43.8075C30.3911 42.0453 29.475 41.8104 26.8393 41.7516C25.0554 41.7076 24.4607 41.7369 23.5125 41.9719ZM29.2661 44.1012C30.1018 44.2921 32.3036 45.0117 34.1518 45.6872C41.2714 48.3158 44.5821 49.0648 50.175 49.2997C52.2 49.3878 52.7464 49.4613 53.1964 49.6962C53.9357 50.0927 54.5625 51.1941 54.4179 51.8843C54.0321 53.7346 51.7821 54.5423 47.0893 54.5276C43.425 54.4982 39.8571 53.9696 37.3018 53.0297C36.1125 52.6039 35.5339 52.6773 35.2929 53.3381C35.0036 54.0724 35.4214 54.4689 36.9964 55.0122C39.9214 56.0108 44.6786 56.6276 48.375 56.4807C50.8179 56.3779 51.525 56.2458 54.7232 55.2619C59.3679 53.8521 64.3179 51.8843 71.2929 48.6683C73.9607 47.4347 76.3554 46.3921 76.6286 46.348C77.2875 46.2306 78.2036 46.4802 78.5089 46.8767C79.1196 47.6697 78.6214 48.8004 77.1429 49.9606C73.5429 52.7654 61.0714 59.4618 56.25 61.1506C52.2964 62.5457 48.6321 62.81 40.5804 62.2813C33.6696 61.8114 32.5446 61.782 30.2464 61.9583C27.7071 62.1492 26.3732 62.3841 24.3161 63.0156L22.8054 63.4855L17.2768 58.4338C14.2232 55.6437 11.7321 53.2941 11.7321 53.2206C11.7321 52.9857 14.8661 49.8431 16.4893 48.4627C19.3179 46.0543 22.05 44.4537 24.1875 43.9837C25.6982 43.6607 27.5304 43.69 29.2661 44.1012ZM15.6375 59.638L22.3393 65.7029V66.3491C22.3393 66.9952 22.3071 67.0393 19.8482 69.2861L17.3571 71.577L10.0125 64.8659L2.65179 58.1401L5.14286 55.864C7.5375 53.6759 7.65 53.5878 8.27679 53.5878C8.93571 53.5878 9.01607 53.6612 15.6375 59.638Z" fill="#08083B"/>
<path d="M17.1969 58.3604C20.2505 61.1506 22.7737 63.4268 22.8219 63.4268C22.8701 63.4268 20.4112 61.1506 17.3576 58.3604C14.3041 55.5703 11.7808 53.2941 11.7326 53.2941C11.6844 53.2941 14.1433 55.5703 17.1969 58.3604Z" fill="#08083B"/>
<path d="M46.3803 37.6537C45.5338 39.9377 44.8384 41.927 44.8384 42.0596C44.8384 42.1923 44.914 42.3544 44.9895 42.3986C45.0803 42.4428 45.1407 42.4575 45.1407 42.428C45.1407 42.3691 47.4687 36.0181 48.013 34.5592C48.2548 33.9403 48.27 33.7783 48.1037 33.6456C47.9525 33.513 47.5897 34.3382 46.3803 37.6537Z" fill="#00B0F2"/>
<path d="M56.2017 33.4256C56.1214 33.5284 59.2237 41.752 59.4166 41.9723C59.4487 42.0163 60.3489 40.959 60.4292 40.8856C60.5578 40.7681 57.2305 32.8969 56.9733 32.662C56.909 32.6179 56.25 33.3668 56.2017 33.4256Z" fill="#00B0F2"/>
<path d="M38.7804 39.2993C38.4911 39.3286 38.25 39.4167 38.25 39.4755C38.25 39.6076 39.5199 39.5342 40.5808 39.3433C41.1755 39.2405 41.1434 39.2258 40.2593 39.2405C39.7288 39.2405 39.0537 39.2699 38.7804 39.2993Z" fill="#00B0F2"/>
<path d="M63.8833 39.3439C64.3334 39.4174 65.0085 39.4614 65.4103 39.4614L66.1337 39.4467L65.4103 39.3293C65.0085 39.2705 64.3334 39.2265 63.8833 39.2265L63.0796 39.2411L63.8833 39.3439Z" fill="#00B0F2"/>
<path d="M54.0167 2.92426C54.3221 3.2767 54.8364 3.73193 55.1258 3.93752L55.6884 4.31934L55.0615 3.61445C54.7078 3.23264 54.2095 2.76272 53.9363 2.5865L53.438 2.27811L54.0167 2.92426Z" fill="#00B0F2"/>
<path d="M63.4022 6.53739C64.0129 7.35975 64.1736 8.10869 64.0451 9.54783C63.8683 11.6331 64.1254 12.2352 65.9576 13.8652C67.7736 15.4806 68.0629 16.0239 67.9504 17.6687C67.854 19.0197 67.404 19.7833 66.1183 20.7525C64.3022 22.1182 63.8843 23.014 64.0451 25.2021C64.1736 26.8615 63.9647 27.5811 63.1129 28.5503L62.5986 29.1377L63.0808 28.8587C64.6558 27.9629 64.929 27.3755 64.9129 25.0699C64.8808 22.5147 65.1218 21.9714 67.0986 20.1945C68.7379 18.726 69.0593 18.168 68.8826 17.0813C68.7379 16.1267 68.4647 15.7156 67.1951 14.6876C66.054 13.7624 65.379 12.9107 65.0736 12.0002C64.9772 11.7359 64.9129 10.7079 64.9129 9.70936C64.929 7.69751 64.8326 7.38912 63.8522 6.52271C63.0968 5.86188 62.904 5.86188 63.4022 6.53739Z" fill="#00B0F2"/>
<path d="M43.5866 11.104C39.9377 14.4522 39.6966 19.4304 42.9757 23.087C43.8598 24.0709 44.1652 24.1296 43.3615 23.1604C42.1238 21.6772 41.4005 19.5479 41.4005 17.3892C41.4165 14.8486 42.3488 12.6018 44.0849 10.8984C45.419 9.5914 45.0654 9.73825 43.5866 11.104Z" fill="#00B0F2"/>
<path d="M55.0771 30.7968C54.5627 31.1786 54.1609 31.5751 53.5179 32.3681C53.1482 32.8087 54.3055 32.0304 54.8038 31.5017C55.929 30.2828 55.9773 30.1507 55.0771 30.7968Z" fill="#00B0F2"/>
<path d="M9.96363 64.8217C13.9815 68.493 17.3083 71.5034 17.3565 71.5034C17.4047 71.5034 14.1422 68.493 10.1243 64.8217C6.10648 61.1505 2.7797 58.14 2.73148 58.14C2.68327 58.14 5.94577 61.1505 9.96363 64.8217Z" fill="#08083B"/>
<path d="M15.5889 59.6526C15.5889 59.6673 17.0192 60.9743 18.771 62.5456L21.9371 65.4092L18.8032 62.5015C15.8942 59.8142 15.5889 59.5352 15.5889 59.6526Z" fill="#08083B"/>
<path d="M14.8667 59.1675C18.0488 62.0751 20.6845 64.4541 20.7327 64.4541C20.781 64.4541 18.2095 62.0751 15.0274 59.1675C11.8452 56.2598 9.20953 53.8809 9.16131 53.8809C9.1131 53.8809 11.6845 56.2598 14.8667 59.1675Z" fill="#00B0F2"/>
<path d="M4.983 56.0404L2.81299 58.0669L5.03123 56.0844C6.23679 54.9977 7.23339 54.0872 7.23339 54.0726C7.23339 53.9551 6.99228 54.1754 4.983 56.0404Z" fill="#00B0F2"/>
<path d="M9.1612 63.8966C12.6487 67.1126 15.5737 69.7412 15.6701 69.7412C15.863 69.7412 20.0898 65.8644 20.4755 65.3357C20.6201 65.1448 20.7326 64.9098 20.7326 64.8217C20.7326 64.7483 20.588 64.8658 20.4273 65.1154C20.2666 65.3504 19.1094 66.4811 17.8558 67.6119L15.5898 69.6678L9.19335 63.8672L2.81299 58.0666L9.1612 63.8966Z" fill="#00B0F2"/>
<path d="M7.79485 53.7347C7.61807 53.7934 6.44485 54.8067 5.19128 55.9668L2.89307 58.0668L9.24128 63.8674L15.5895 69.668L17.9359 67.5386C19.2216 66.3638 20.3788 65.2184 20.5234 64.9834L20.7645 64.5576L14.8502 59.1535C11.0895 55.7318 8.77521 53.72 8.51807 53.6759C8.29307 53.6319 7.97164 53.6613 7.79485 53.7347Z" fill="#00B0F2"/>
<path d="M51.0269 9.78217C48.3912 10.1052 45.8037 11.8528 44.5984 14.1436C42.3162 18.5198 45.0323 23.7623 50.1752 24.8784C55.7037 26.0679 60.8948 22.1029 60.5412 16.9485C60.3484 14.1436 58.6448 11.8087 55.8484 10.5605C54.2252 9.82623 52.6984 9.57658 51.0269 9.78217ZM56.4912 14.3052C57.2948 15.0247 57.1502 15.2303 53.9519 18.1527C51.2519 20.6344 50.9787 20.84 50.4484 20.84C49.7412 20.84 49.6287 20.7372 48.4716 18.8869C47.3627 17.0953 47.2984 16.9044 47.7323 16.4051C48.4716 15.524 49.243 15.7443 50.0948 17.0953L50.6894 18.0499L52.9555 15.9939C55.4466 13.7471 55.7359 13.6003 56.4912 14.3052Z" fill="#ECECEC"/>
</svg>
