<svg width="75" height="73" viewBox="0 0 75 73" fill="none" xmlns="http://www.w3.org/2000/svg">
<path d="M62.348 0.158104C61.3667 0.519218 60.8687 1.03923 59.7117 2.96037L58.5547 4.83817L55.7573 4.89596C53.1942 4.93929 52.8867 4.96818 52.3301 5.27151L51.715 5.5893L51.0852 5.27151C50.4701 4.93929 50.3676 4.93929 45.1096 4.93929C39.8517 4.93929 39.7492 4.93929 39.1341 5.27151L38.5043 5.5893L37.8892 5.27151C37.2887 4.95374 37.1276 4.93929 32.3676 4.89596C26.7436 4.83817 26.2163 4.89596 25.2936 5.70486C24.1805 6.71598 24.1659 6.71598 24.1659 12.6094C24.1659 17.795 24.1659 17.8239 24.5027 18.4884L24.8542 19.1528L24.2684 19.8462C22.8331 21.5362 21.4417 23.9629 20.6655 26.1441C19.816 28.5419 19.567 30.0586 19.567 33.0342C19.5524 36.3276 19.8893 38.1043 21.017 40.9065L21.4124 41.8454L20.4458 42.871C19.2741 44.1132 18.9666 44.8788 19.0837 46.2944C19.1277 46.8288 19.2009 47.4066 19.2595 47.5655C19.3474 47.8255 18.5418 48.62 13.5182 53.1845C10.3108 56.1023 7.57198 58.659 7.44016 58.8757C7.07401 59.3957 7.11795 59.7135 7.55733 60.1179C8.12852 60.6379 8.67043 60.5802 9.40273 59.9302C10.2961 59.1646 19.4206 50.8878 20.2554 50.0933L20.9438 49.4433L22.3351 50.8011C23.1114 51.5522 23.7119 52.2456 23.6972 52.3323C23.6679 52.4189 19.9185 56.4923 15.3344 61.3746C6.91291 70.3881 6.7518 70.5325 5.52154 70.807C4.78924 70.9514 3.61756 70.5181 3.01707 69.8681C2.358 69.1459 2.1969 68.7558 2.1969 67.8747C2.21154 66.8058 2.60699 66.1558 4.10088 64.8125C5.60941 63.4402 5.81446 63.108 5.55083 62.4435C5.31649 61.8802 5.17003 61.7791 4.58419 61.7791C4.18875 61.7791 3.8519 62.0102 2.56305 63.1802C1.30349 64.3213 0.922697 64.7547 0.51261 65.578C0.043938 66.488 0 66.7047 0 67.7881C0 69.3192 0.36615 70.3159 1.28885 71.327C2.98778 73.1904 5.99021 73.5515 8.08459 72.1359C8.48003 71.8759 12.0829 68.1492 16.2717 63.6569C20.3872 59.2513 24.1512 55.2356 24.6199 54.7445L25.484 53.8634L26.1724 54.0801C27.0072 54.3256 28.1789 54.239 29.0723 53.8489C29.4091 53.7045 30.0975 53.1989 30.6101 52.7223L31.5475 51.8556L32.5727 52.2745C33.5833 52.6789 35.7362 53.2856 36.8054 53.4734L37.3473 53.5601V54.9467C37.3473 55.7123 37.4205 56.579 37.5084 56.8823C37.7427 57.6335 38.4018 58.3701 39.1487 58.7312C39.7639 59.0201 40.0128 59.0346 45.1096 59.0346C50.2065 59.0346 50.4554 59.0201 51.0706 58.7312C51.8175 58.3701 52.4766 57.6335 52.7109 56.8823C52.8134 56.5357 52.872 55.0912 52.872 53.0834V49.8333L53.9851 48.9089C54.6003 48.4033 55.4644 47.5944 55.9037 47.1177L56.7093 46.251H60.2536H63.7979L64.5156 45.8177C65.0428 45.4999 65.3504 45.1677 65.6433 44.6044L66.0534 43.8388V38.6098C66.0534 33.4675 66.0534 33.3664 65.7312 32.7308L65.3943 32.0953L65.7312 31.4453C66.0534 30.7952 66.0534 30.7519 66.0241 25.4796L65.9802 20.1784H69.2462C72.7906 20.1784 73.186 20.1062 74.0208 19.3406C74.9142 18.5173 75.2657 16.7839 74.7824 15.6428C74.4895 14.9494 66.3903 1.61701 65.9509 1.09701C65.16 0.186989 63.4904 -0.260796 62.348 0.158104ZM64.2373 2.61369C64.8524 3.20592 72.7906 16.5239 72.7906 16.9428C72.7906 17.1595 72.6441 17.4917 72.4684 17.6795L72.1608 18.0117H63.4611H54.7614L54.3806 17.6362C54.0876 17.3473 54.0291 17.1884 54.1023 16.8128C54.1755 16.4372 61.4253 4.24594 62.4359 2.80148C62.9485 2.0648 63.6222 1.99258 64.2373 2.61369ZM37.1862 7.55377C37.4644 7.91489 37.4937 8.13156 37.4937 10.2983C37.4937 12.6383 37.4937 12.6672 37.1715 12.725C36.9811 12.7683 36.4392 12.8694 35.9559 12.9705C33.4954 13.4328 30.2147 14.9206 27.9738 16.5817C27.2269 17.1306 26.5678 17.5495 26.4946 17.4917C26.4214 17.4484 26.3628 15.325 26.3628 12.5805C26.3628 7.94378 26.3774 7.74155 26.6557 7.46711C26.934 7.19266 27.139 7.17822 31.9136 7.17822H36.8932L37.1862 7.55377ZM50.3822 7.49599C50.6605 7.79933 50.6751 7.98711 50.6751 11.4105C50.6751 13.3894 50.6312 14.9783 50.558 14.9494C47.8045 13.7794 46.9111 13.4616 45.7834 13.1728C43.9966 12.725 42.4587 12.5227 40.8477 12.5227H39.5442V10.1683C39.5442 8.00156 39.5735 7.78489 39.8371 7.49599C40.1447 7.17822 40.1886 7.17822 45.1096 7.17822C50.0307 7.17822 50.0746 7.17822 50.3822 7.49599ZM57.2219 7.27933C56.929 7.82822 52.9453 14.3572 52.8574 14.4583C52.7841 14.545 52.7256 13.1294 52.7256 11.2661C52.7256 6.91821 52.5645 7.17822 55.3033 7.17822C56.3871 7.17822 57.2512 7.22155 57.2219 7.27933ZM44.0844 14.9061C50.309 16.1917 55.4644 20.3806 57.8224 26.0718C58.7158 28.253 59.0526 29.813 59.1259 32.3264C59.2577 35.9087 58.7597 38.2343 57.1926 41.3399C54.6735 46.3666 49.9575 49.9778 44.3481 51.1911C42.6198 51.5522 38.5043 51.5522 36.7614 51.1911C29.951 49.7467 24.7517 45.1821 22.6427 38.7832C21.9397 36.6598 21.7493 35.432 21.7639 32.962C21.7639 28.0941 23.4482 23.9196 26.8461 20.3662C29.8046 17.275 33.7297 15.2817 38.021 14.7039C39.3977 14.5161 42.737 14.6172 44.0844 14.9061ZM63.5197 20.4962L63.8565 20.7995V25.6241C63.8565 31.3153 63.9444 31.0119 62.2747 31.0119H61.2642L61.0298 29.553C60.5026 26.433 59.2723 23.6162 57.0315 20.4962L56.7971 20.1784H59.99C63.0656 20.1784 63.1974 20.1929 63.5197 20.4962ZM63.5197 33.4964L63.8565 33.7997V38.552C63.8565 41.6288 63.7979 43.4054 63.6954 43.5932C63.4318 44.0988 62.9192 44.171 60.4879 44.0699L58.1739 43.9688L58.6572 43.1599C60.0925 40.7187 61.0152 37.6709 61.2935 34.3631L61.396 33.1786H62.2894C63.007 33.1786 63.2414 33.2364 63.5197 33.4964ZM23.4775 45.0521C24.781 46.8866 26.8022 48.7933 29.1455 50.3967L29.5117 50.6567L28.8233 51.2778C27.4026 52.5923 26.8315 52.3756 23.6972 49.2411C21.2953 46.8433 21.0609 46.4822 21.2953 45.5144C21.4124 45.081 22.5548 43.8099 22.7013 43.9688C22.7599 44.0266 23.1114 44.5177 23.4775 45.0521ZM50.6751 53.6178C50.6751 56.1168 50.6751 56.1601 50.309 56.5068L49.9575 56.8679H45.0511H40.1447L39.8517 56.4923C39.6028 56.1745 39.5442 55.9001 39.5442 54.9179V53.7334L41.2285 53.6323C44.2016 53.4734 47.3358 52.7078 49.5034 51.61C50.0307 51.35 50.4994 51.1189 50.5726 51.1189C50.6312 51.1045 50.6751 52.2311 50.6751 53.6178Z" fill="#08083B"/>
<path d="M62.6259 6.62919C62.4355 6.88919 62.3916 7.39475 62.3916 9.09922C62.3916 11.1793 62.4062 11.2515 62.7578 11.5837C62.9481 11.7859 63.2118 11.9448 63.3436 11.9448C63.6365 11.9448 64.1784 11.6704 64.3249 11.4537C64.3835 11.367 64.442 10.2837 64.442 9.04145C64.442 7.04808 64.4127 6.75919 64.1784 6.55696C63.7683 6.19585 62.9042 6.23918 62.6259 6.62919Z" fill="#08083B"/>
<path d="M62.978 13.8658C62.4654 14.1114 62.275 14.7471 62.5387 15.2239C63.0659 16.1341 64.3255 15.8596 64.4134 14.8049C64.4866 14.0247 63.6957 13.5046 62.978 13.8658Z" fill="#08083B"/>
<path d="M37.5226 16.6391C34.4469 17.188 31.6495 18.5025 29.3648 20.4814C25.6154 23.7314 23.5796 28.1515 23.5796 33.0338C23.5796 44.0984 34.0808 51.9997 44.9627 49.1252C51.0262 47.5362 55.7568 42.5095 57.031 36.3272C57.3532 34.796 57.3386 34.146 56.9724 33.8283C56.6063 33.5105 55.874 33.4816 55.5664 33.7849C55.4346 33.9149 55.1856 34.7527 54.9952 35.6483C54.2776 39.2306 52.6079 42.0906 49.9717 44.2429C47.0425 46.6551 43.7618 47.724 39.8366 47.5796C37.4493 47.4929 36.1312 47.1751 34.0515 46.1929C32.2793 45.3407 31.4591 44.7773 30.0531 43.3906C28.0759 41.4839 26.7285 39.115 26.0401 36.3994C25.5714 34.5649 25.5861 31.4593 26.0401 29.6826C26.831 26.707 28.2077 24.3814 30.346 22.417C36.1751 17.0291 45.3289 17.2024 50.9822 22.807C52.6519 24.4681 53.8382 26.4615 54.6437 28.9171C55.0392 30.1015 55.1271 30.2749 55.5371 30.4482C55.9179 30.5926 56.0498 30.5926 56.372 30.4193C57.031 30.0438 57.075 29.6104 56.5624 28.0215C54.6291 22.027 49.5909 17.708 43.2931 16.6391C41.7406 16.3791 39.0018 16.3791 37.5226 16.6391Z" fill="#08083B"/>
<path d="M39.4567 25.523C37.1426 25.9852 35.0921 28.4986 36.176 29.5675C36.7618 30.1453 37.3476 29.9286 38.0067 28.9031C38.8562 27.6031 40.2036 27.1986 41.551 27.8486C42.7374 28.412 43.3232 30.102 42.7227 31.2431C42.4444 31.7631 41.8147 32.3553 41.2142 32.6442C40.2182 33.1354 39.2516 34.7098 39.2516 35.8076C39.2516 36.5732 40.0278 37.0788 40.7455 36.7754C41.0531 36.6599 41.1995 36.4576 41.3167 36.0098C41.5803 35.0276 41.7854 34.7387 42.547 34.2909C43.6015 33.6843 44.0408 33.2365 44.5681 32.1676C44.9782 31.3442 45.0368 31.0987 45.0221 30.0731C45.0221 28.7586 44.7292 27.9931 43.8505 26.9964C42.8985 25.8986 40.9213 25.2341 39.4567 25.523Z" fill="#08083B"/>
<path d="M39.6169 38.9556C39.2508 39.3457 39.2947 40.1115 39.7048 40.4293C40.1442 40.7905 40.6714 40.7472 41.0815 40.3282C41.5209 39.8947 41.5355 39.548 41.1401 39.0423C40.7593 38.5655 40.0124 38.5222 39.6169 38.9556Z" fill="#08083B"/>
<path d="M12.0388 15.8305C11.7752 15.9027 11.3797 16.1049 11.1747 16.2927C10.4863 16.9283 10.3984 17.3616 10.3984 20.2072C10.3984 23.1828 10.501 23.5873 11.409 24.1795C11.8923 24.4973 12.0241 24.5117 14.9533 24.5117H17.9851L18.4537 24.1362C19.2739 23.4428 19.3325 23.2117 19.3325 20.135C19.3325 17.4627 19.3178 17.3038 19.0103 16.856C18.2926 15.816 18.1462 15.7727 15.1877 15.7438C13.7231 15.7294 12.3024 15.7727 12.0388 15.8305ZM17.1356 20.1783V22.345H14.8655H12.5953V20.1783V18.0116H14.8655H17.1356V20.1783Z" fill="#08083B"/>
<path d="M55.1122 59.0203C53.9844 59.5403 53.8966 59.8292 53.8966 63.1226C53.8966 67.5282 53.8233 67.4704 58.2171 67.5282C61.7907 67.5716 62.0251 67.4993 62.5523 66.3149C62.8306 65.7226 62.8453 65.4049 62.8013 62.9348C62.7574 59.9592 62.7134 59.8292 61.7468 59.1214C61.3807 58.847 61.117 58.8181 58.5393 58.7747C56.0056 58.7459 55.6687 58.7747 55.1122 59.0203ZM60.5605 63.1515V65.3182L58.3343 65.3615L56.0935 65.4049V63.1515V60.8981L58.3343 60.9414L60.5605 60.9848V63.1515Z" fill="#08083B"/>
<path d="M20.299 50.2086L19.7278 50.7864L20.1086 51.2197C20.5627 51.7686 20.7091 52.1586 20.592 52.6064C20.548 52.7942 16.7987 56.8965 12.2877 61.7354L4.05664 70.5178L4.65713 70.6478C5.55053 70.8356 6.50252 70.5322 7.24947 69.81C7.58632 69.4778 11.4236 65.4044 15.7734 60.7532L23.6969 52.2886L22.3495 50.9597C21.6172 50.2375 20.9728 49.6452 20.9288 49.6452C20.8849 49.6452 20.6066 49.9052 20.299 50.2086Z" fill="#00B0F2"/>
<path d="M62.8601 2.51267C62.699 2.65712 62.3329 3.13379 62.0546 3.58158L61.5566 4.37603L62.1132 5.31494L62.6844 6.2394L63.3288 6.19606C63.8707 6.15273 64.0025 6.19606 64.2808 6.54273C64.5444 6.86052 64.5884 7.12052 64.5884 8.14609V9.37389L66.4338 12.3928C68.9089 16.4807 69.0114 16.7262 68.6014 17.7662C68.5135 18.0262 68.6014 18.0407 70.271 17.9829C71.8674 17.9396 72.0871 17.9107 72.3654 17.6218C72.5411 17.4629 72.6876 17.1451 72.6876 16.9429C72.6876 16.5096 64.6177 3.09046 64.0611 2.58489C63.6217 2.19489 63.2556 2.18044 62.8601 2.51267Z" fill="#00B0F2"/>
</svg>
