<svg width="72" height="76" viewBox="0 0 72 76" fill="none" xmlns="http://www.w3.org/2000/svg">
<path d="M39.8031 74.2094C39.6015 74.2047 39.4437 74.1997 39.3311 74.1944C39.2551 74.1908 39.2117 74.1876 39.1925 74.1857C39.1787 74.1842 39.1961 74.1853 39.2268 74.1919C39.2361 74.1939 39.2909 74.2051 39.3582 74.2345C39.3889 74.2479 39.4681 74.2842 39.5511 74.3573C39.63 74.4268 39.8013 74.6113 39.8046 74.9101L39.8046 74.9086C39.8014 74.6718 39.8009 74.4388 39.8031 74.2094ZM39.8031 74.2094C39.8934 64.4607 44.6696 61.315 47.1104 60.7886M39.8031 74.2094C39.8654 74.2108 39.9319 74.2122 40.0026 74.2136C40.5988 74.2251 41.4658 74.2336 42.5438 74.2394C44.6985 74.2511 47.6836 74.2523 51.0023 74.2469C57.3552 74.2366 64.9249 74.2024 70.2182 74.1726M47.1104 60.7886L38.3047 74.9272C38.3079 75.2271 38.4799 75.4127 38.56 75.4833C38.6444 75.5575 38.7255 75.595 38.7588 75.6095C38.8313 75.6411 38.8937 75.6546 38.9133 75.6588C38.9645 75.6697 39.0125 75.6751 39.0393 75.6778C39.1011 75.6842 39.1782 75.6889 39.2605 75.6927C39.4294 75.7007 39.6713 75.7075 39.9736 75.7133C40.5806 75.725 41.4561 75.7336 42.5356 75.7394C44.6958 75.7512 47.6852 75.7523 51.0047 75.7469C57.6444 75.7362 65.6115 75.6993 70.9227 75.6686L71.6067 75.6646L71.6655 74.9831C71.8862 72.4275 71.7312 68.5732 70.5107 65.3229C69.8984 63.6921 69.0019 62.171 67.7084 61.0531C66.6624 60.1491 65.3798 59.5294 63.8366 59.3177M47.1104 60.7886C48.4203 61.9251 50.5983 63.1675 53.2685 63.5502C56.1125 63.9577 59.4783 63.3831 62.8849 60.7415M47.1104 60.7886L47.9448 59.5232M70.2182 74.1726C70.2058 74.4085 70.1899 74.6361 70.1711 74.8541L70.9183 74.9186L70.914 74.1686C70.6868 74.1699 70.4548 74.1712 70.2182 74.1726ZM70.2182 74.1726C70.344 71.7876 70.1217 68.5539 69.1065 65.8502C68.5508 64.3704 67.7735 63.0919 66.7275 62.1879C65.7465 61.3401 64.498 60.7935 62.8849 60.7415M62.8849 60.7415C62.9562 60.6862 63.0275 60.63 63.0988 60.5729L62.6301 59.9874M62.8849 60.7415C62.8009 60.7388 62.716 60.7374 62.6301 60.7374V59.9874M62.6301 59.9874L63.2772 60.3665C63.4634 60.0486 63.651 59.6976 63.8366 59.3177M62.6301 59.9874V59.2374C63.0488 59.2374 63.4508 59.2648 63.8366 59.3177M62.6301 59.9874L62.1613 59.4019C62.1249 59.4311 62.0885 59.46 62.0521 59.4886M62.6301 59.9874L61.9829 59.6083C62.0059 59.569 62.029 59.5291 62.0521 59.4886M63.8366 59.3177C64.9358 57.0685 65.9673 53.8072 66.243 50.4195M66.243 50.4195L65.3728 50.2093C65.1669 50.1596 64.9651 50.1039 64.7672 50.0427M66.243 50.4195C66.2676 50.1171 66.2862 49.8138 66.2983 49.5101M66.243 50.4195L66.2619 50.424L66.2983 49.5101M62.0521 59.4886C63.2379 57.4098 64.5083 53.7889 64.7672 50.0427M62.0521 59.4886C58.9401 61.9364 55.9515 62.4193 53.4813 62.0653C51.018 61.7123 49.0332 60.5203 47.9448 59.5232M64.7672 50.0427C62.4195 49.3162 60.6297 47.8087 59.3418 46.2141C58.4611 45.1237 57.8006 43.9753 57.3443 42.9682C55.9439 45.0325 53.7207 46.5842 51.4664 47.7089C49.0065 48.9362 46.4069 49.7063 44.526 50.0883C44.9096 52.7136 45.9693 55.8383 47.9448 59.5232M64.7672 50.0427C64.7808 49.8455 64.7916 49.6481 64.7995 49.4505C64.8019 49.3894 64.804 49.3284 64.8059 49.2674C61.0055 48.0035 58.7643 44.502 57.8228 42.1822L47.9448 59.5232M66.2983 49.5101L65.5489 49.4803M66.2983 49.5101C66.4142 46.5951 65.9333 43.573 64.3445 41.067C62.7403 38.5369 60.0597 36.6171 55.9548 35.8399L55.8614 35.8222L55.7664 35.8284C52.4703 36.0435 49.0301 37.0868 46.5189 39.2939C43.9742 41.5305 42.4599 44.8977 42.9479 49.5584M65.5489 49.4803L47.2458 59.2437C46.9262 59.2854 46.5828 59.36 46.2235 59.4711C44.4506 56.0178 43.4403 52.9901 43.0482 50.3487M65.5489 49.4803L65.7249 48.7512C65.6712 48.7383 65.6178 48.7248 65.5647 48.7109M65.5489 49.4803L65.5647 48.7109M42.9479 49.5584L43.031 50.3516L43.0482 50.3487M42.9479 49.5584L43.6938 49.4803L43.5701 48.7405C43.5907 48.7371 43.6115 48.7336 43.6325 48.73C43.1471 40.4026 49.6191 36.9812 55.8153 36.5768C63.3114 37.9961 65.5705 43.3186 65.5647 48.7109M42.9479 49.5584C42.9751 49.8179 43.0085 50.0813 43.0482 50.3487M43.0482 50.3487L65.5647 48.7109M50.4872 27.0848C54.1461 27.4261 60.2357 26.4049 60.2357 19.8022M21.9123 27.5798C18.5984 27.6412 12.9822 26.5599 12.1638 21.6456M37.0286 6.34573C33.5905 6.34573 27.23 8.63149 29.2929 17.7745C30.7663 25.148 41.0806 24.042 42.0015 19.6179M31.8714 74.3656C32.1075 70.2318 31.0392 61.8526 25.0693 60.1594M9.58528 59.0657C10.8994 60.9788 15.5148 63.8109 23.6348 60.2954M8.83324 59.3273C5.23326 60.7488 -0.351 65.2939 1.29703 74.3656M47.3429 59.9874C47.106 60.0183 46.8495 60.0713 46.5784 60.1489M47.3429 59.9874C47.2157 59.7517 47.0922 59.5181 46.9722 59.2865M47.3429 59.9874C49.6758 62.1994 55.9995 65.2963 62.6301 59.9874C62.7643 59.7583 62.8995 59.5106 63.0343 59.2461M70.9183 74.9186C71.3319 70.1291 70.3696 60.7307 63.4685 60.029M43.6938 49.4803C43.7194 49.7245 43.7507 49.9727 43.788 50.2249M65.5047 50.2412C65.5239 49.988 65.5388 49.7343 65.5489 49.4803M23.4123 27.5443V26.7331L22.6036 26.7966C21.1185 26.9132 18.8358 26.7695 16.8469 25.9808C14.8926 25.2058 13.3157 23.8556 12.9139 21.5818C12.9153 18.3519 13.0277 10.9974 13.4624 6.79151C13.6559 4.92005 14.6495 3.70797 15.847 2.92803C17.0579 2.13942 18.4608 1.80906 19.3705 1.75H19.3964H19.446H19.4959H19.5459H19.5962H19.6467H19.6975H19.7484H19.7996H19.851H19.9026H19.9545H20.0065H20.0588H20.1112H20.1639H20.2168H20.2699H20.3232H20.3767H20.4305H20.4844H20.5386H20.5929H20.6475H20.7022H20.7572H20.8123H20.8677H20.9232H20.979H21.0349H21.091H21.1474H21.2039H21.2606H21.3175H21.3746H21.4319H21.4894H21.5471H21.6049H21.663H21.7212H21.7796H21.8382H21.8969H21.9559H22.015H22.0743H22.1338H22.1935H22.2533H22.3133H22.3735H22.4339H22.4944H22.5551H22.616H22.677H22.7382H22.7996H22.8611H22.9228H22.9847H23.0467H23.1089H23.1712H23.2337H23.2964H23.3592H23.4222H23.4854H23.5486H23.6121H23.6757H23.7394H23.8033H23.8674H23.9316H23.9959H24.0604H24.1251H24.1898H24.2548H24.3198H24.3851H24.4504H24.5159H24.5815H24.6473H24.7132H24.7792H24.8454H24.9117H24.9782H25.0447H25.1114H25.1783H25.2452H25.3123H25.3795H25.4469H25.5144H25.582H25.6497H25.7175H25.7855H25.8535H25.9217H25.99H26.0585H26.127H26.1957H26.2645H26.3333H26.4023H26.4715H26.5407H26.61H26.6794H26.749H26.8186H26.8884H26.9583H27.0282H27.0983H27.1684H27.2387H27.3091H27.3795H27.4501H27.5208H27.5915H27.6623H27.7333H27.8043H27.8754H27.9466H28.0179H28.0893H28.1608H28.2324H28.304H28.3757H28.4476H28.5194H28.5914H28.6635H28.7356H28.8078H28.8801H28.9525H29.0249H29.0974H29.17H29.2427H29.3154H29.3882H29.4611H29.534H29.6071H29.6801H29.7533H29.8265H29.8997H29.9731H30.0465H30.1199H30.1934H30.267H30.3406H30.4143H30.488H30.5618H30.6357H30.7096H30.7835H30.8575H30.9315H31.0056H31.0798H31.154H31.2282H31.3025H31.3768H31.4512H31.5256H31.6H31.6745H31.749H31.8236H31.8982H31.9728H32.0475H32.1222H32.1969H32.2717H32.3465H32.4213H32.4962H32.5711H32.646H32.7209H32.7959H32.8708H32.9459H33.0209H33.0959H33.171H33.2461H33.3212H33.3963H33.4714H33.5466H33.6217H33.6969H33.7721H33.8473H33.9225H33.9977H34.0729H34.1482H34.2234H34.2986H34.3739H34.4491H34.5244H34.5996H34.6749H34.7501H34.8254H34.9006H34.9759H35.0511H35.1263H35.2015H35.2767H35.3519H35.4271H35.5023H35.5775H35.6526H35.7278H35.8029H35.878H35.9531H36.0282H36.1032H36.1783H36.2533H36.3283H36.4032H36.4782H36.5531H36.628H36.7028H36.7777H36.8525H36.9273H37.002H37.0767H37.1514H37.2261H37.3007H37.3752H37.4498H37.5243H37.5987H37.6732H37.7475H37.8219H37.8962H37.9704H38.0446H38.1188H38.1929H38.267H38.341H38.415H38.4889H38.5627H38.6366H38.7103H38.784H38.8577H38.9313H39.0048H39.0783H39.1517H39.225H39.2983H39.3715H39.4447H39.5178H39.5908H39.6638H39.7367H39.8095H39.8823H39.955H40.0276H40.1001H40.1726H40.245H40.3173H40.3896H40.4617H40.5338H40.6058H40.6777H40.7496H40.8213H40.893H40.9646H41.0361H41.1075H41.1789H41.2501H41.3213H41.3923H41.4633H41.5342H41.605H41.6757H41.7463H41.8168H41.8872H41.9575H42.0277H42.0978H42.1678H42.2377H42.3075H42.3772H42.4467H42.5162H42.5856H42.6548H42.724H42.793H42.862H42.9308H42.9995H43.0681H43.1366H43.2049H43.2732H43.3413H43.4093H43.4772H43.5449H43.6126H43.6801H43.7475H43.8147H43.8819H43.9489H44.0158H44.0825H44.1491H44.2156H44.282H44.3482H44.4143H44.4803H44.5461H44.6118H44.6773H44.7427H44.808H44.8731H44.9381H45.0029H45.0676H45.1321H45.1965H45.2608H45.3249H45.3889H45.4527H45.5163H45.5798H45.6432H45.7064H45.7694H45.8323H45.895H45.9576H46.02H46.0822H46.1443H46.2063H46.268H46.3296H46.3911H46.4523H46.5134H46.5744H46.6351H46.6957H46.7561H46.8164H46.8765H46.9364H46.9961H47.0556H47.115H47.1742H47.2332H47.2921H47.3507H47.4092H47.4675H47.5256H47.5835H47.6413H47.6988H47.7562H47.8133H47.8703H47.9271H47.9837H48.0401H48.0963H48.1523H48.2082H48.2638H48.3192H48.3744H48.4295H48.4843H48.5389H48.5933H48.6476H48.7016H48.7554H48.809H48.8624H48.9156H48.9685H49.0213H49.0738H49.1262H49.1783H49.2302H49.2819H49.3334H49.3846H49.4357H49.4865H49.5371H49.5875H49.6376H49.6876H49.7373H49.7868H49.836H49.885H49.9338H49.9824H50.0308H50.0789H50.1267H50.1744H50.2218H50.269H50.3159H50.3626H50.409H50.4553H50.5012H50.547H50.5925H50.6377H50.6827H50.7275H50.772H50.8162H50.8603H50.904H50.9475H50.9908H51.0338H51.0766H51.1191H51.1613H51.2033H51.2451H51.2865H51.3278H51.3687H51.4094H51.4498H51.49H51.5299H51.5695H51.6089H51.648H51.6869H51.7254H51.7637H51.8018H51.8395H51.877H51.9142H51.9511H51.9878H52.0242H52.0602H52.0961H52.1316C57.8014 1.75 59.3242 4.66223 59.4857 5.83955V5.84413V5.85465V5.86524V5.87592V5.88668V5.89752V5.90843V5.91943V5.9305V5.94165V5.95288V5.9642V5.97558V5.98705V5.9986V6.01022V6.02193V6.03371V6.04557V6.05751V6.06952V6.08162V6.09379V6.10604V6.11837V6.13077V6.14326V6.15582V6.16846V6.18117V6.19397V6.20684V6.21978V6.23281V6.24591V6.25909V6.27235V6.28568V6.29909V6.31258V6.32614V6.33978V6.3535V6.36729V6.38116V6.39511V6.40913V6.42323V6.43741V6.45166V6.46598V6.48039V6.49486V6.50942V6.52405V6.53875V6.55353V6.56839V6.58332V6.59833V6.61341V6.62857V6.6438V6.65911V6.67449V6.68995V6.70548V6.72109V6.73677V6.75253V6.76836V6.78426V6.80024V6.8163V6.83243V6.84863V6.8649V6.88125V6.89768V6.91418V6.93075V6.94739V6.96411V6.98091V6.99777V7.01471V7.03173V7.04881V7.06597V7.08321V7.10051V7.11789V7.13534V7.15287V7.17046V7.18813V7.20588V7.22369V7.24158V7.25954V7.27757V7.29568V7.31385V7.3321V7.35043V7.36882V7.38728V7.40582V7.42443V7.44311V7.46186V7.48068V7.49958V7.51855V7.53758V7.55669V7.57587V7.59512V7.61445V7.63384V7.6533V7.67284V7.69244V7.71212V7.73187V7.75169V7.77157V7.79153V7.81156V7.83166V7.85183V7.87207V7.89238V7.91276V7.9332V7.95372V7.97431V7.99497V8.0157V8.03649V8.05736V8.0783V8.0993V8.12038V8.14152V8.16273V8.18402V8.20537V8.22679V8.24827V8.26983V8.29146V8.31315V8.33491V8.35675V8.37864V8.40061V8.42265V8.44475V8.46693V8.48917V8.51147V8.53385V8.55629V8.57881V8.60138V8.62403V8.64675V8.66953V8.69238V8.71529V8.73828V8.76133V8.78444V8.80763V8.83088V8.8542V8.87758V8.90103V8.92455V8.94814V8.97179V8.99551V9.01929V9.04314V9.06706V9.09104V9.11509V9.1392V9.16338V9.18763V9.21194V9.23632V9.26076V9.28527V9.30984V9.33448V9.35919V9.38396V9.40879V9.43369V9.45866V9.48369V9.50879V9.53395V9.55917V9.58446V9.60981V9.63523V9.66072V9.68626V9.71187V9.73755V9.76329V9.78909V9.81496V9.84089V9.86689V9.89295V9.91907V9.94526V9.97151V9.99782V10.0242V10.0506V10.0771V10.1037V10.1303V10.157V10.1838V10.2106V10.2375V10.2644V10.2914V10.3185V10.3456V10.3728V10.4001V10.4274V10.4548V10.4822V10.5098V10.5373V10.565V10.5926V10.6204V10.6482V10.6761V10.704V10.732V10.7601V10.7882V10.8164V10.8447V10.873V10.9013V10.9298V10.9582V10.9868V11.0154V11.0441V11.0728V11.1016V11.1305V11.1594V11.1884V11.2174V11.2465V11.2756V11.3049V11.3341V11.3635V11.3929V11.4223V11.4518V11.4814V11.5111V11.5407V11.5705V11.6003V11.6302V11.6601V11.6901V11.7202V11.7503V11.7804V11.8107V11.8409V11.8713V11.9017V11.9322V11.9627V11.9933V12.0239V12.0546V12.0853V12.1162V12.147V12.1779V12.2089V12.24V12.2711V12.3022V12.3335V12.3647V12.3961V12.4274V12.4589V12.4904V12.522V12.5536V12.5852V12.617V12.6488V12.6806V12.7125V12.7445V12.7765V12.8086V12.8407V12.8729V12.9051V12.9374V12.9698V13.0022V13.0346V13.0672V13.0997V13.1324V13.1651V13.1978V13.2306V13.2635V13.2964V13.3293V13.3624V13.3954V13.4286V13.4618V13.495V13.5283V13.5616V13.595V13.6285V13.662V13.6956V13.7292V13.7629V13.7966V13.8304V13.8643V13.8982V13.9321V13.9661V14.0002V14.0343V14.0685V14.1027V14.1369V14.1713V14.2057V14.2401V14.2746V14.3091V14.3437V14.3784V14.4131V14.4478V14.4826V14.5175V14.5524V14.5874V14.6224V14.6574V14.6926V14.7277V14.763V14.7982V14.8336V14.869V14.9044V14.9399V14.9754V15.011V15.0466V15.0823V15.1181V15.1539V15.1897V15.2256V15.2616V15.2976V15.3336V15.3697V15.4059V15.4421V15.4784V15.5147V15.551V15.5874V15.6239V15.6604V15.697V15.7336V15.7702V15.807V15.8437V15.8805V15.9174V15.9543V15.9913V16.0283V16.0653V16.1025V16.1396V16.1768V16.2141V16.2514V16.2888V16.3262V16.3636V16.4011V16.4387V16.4763V16.5139V16.5516V16.5894V16.6272V16.665V16.7029V16.7409V16.7789V16.8169V16.855V16.8931V16.9313V16.9696V17.0078V17.0462V17.0845V17.123V17.1614V17.2V17.2385V17.2771V17.3158V17.3545V17.3933V17.4321V17.4709V17.5098V17.5488V17.5878V17.6268V17.6659V17.705V17.7442V17.7834V17.8227V17.862V17.9014V17.9408V17.9802V18.0197V18.0593V18.0989V18.1385V18.1782V18.2179V18.2577V18.2975V18.3374V18.3773V18.4173V18.4573V18.4973V18.5374V18.5775V18.6177V18.6579V18.6982V18.7385V18.7789V18.8193V18.8598V18.9002V18.9408V18.9814V19.022V19.0627V19.1034V19.1441V19.185V19.2258V19.2667V19.3076V19.3486V19.3896V19.4307V19.4718V19.513V19.5542V19.5954V19.6367V19.678V19.7194V19.7608V19.8022C59.4857 21.4432 59.082 22.6606 58.4665 23.5688C57.8488 24.4804 56.9851 25.1285 55.9917 25.5743C53.9809 26.4767 51.516 26.5131 49.8543 26.2505L48.9872 26.1135V26.9913V31.6967L43.0705 26.0788L42.8534 25.8727H42.5541H42.5353H42.5165H42.4976H42.4786H42.4595H42.4404H42.4211H42.4018H42.3824H42.3629H42.3434H42.3237H42.304H42.2842H42.2643H42.2444H42.2244H42.2043H42.1841H42.1638H42.1435H42.1231H42.1026H42.0821H42.0614H42.0407H42.02H41.9991H41.9782H41.9572H41.9361H41.915H41.8938H41.8725H41.8512H41.8298H41.8083H41.7867H41.7651H41.7434H41.7217H41.6998H41.678H41.656H41.634H41.6119H41.5897H41.5675H41.5452H41.5229H41.5005H41.478H41.4555H41.4329H41.4102H41.3875H41.3647H41.3418H41.3189H41.296H41.2729H41.2498H41.2267H41.2035H41.1802H41.1569H41.1335H41.1101H41.0866H41.0631H41.0394H41.0158H40.9921H40.9683H40.9445H40.9206H40.8967H40.8727H40.8486H40.8246H40.8004H40.7762H40.752H40.7277H40.7033H40.6789H40.6545H40.63H40.6054H40.5808H40.5562H40.5315H40.5068H40.482H40.4571H40.4323H40.4073H40.3824H40.3574H40.3323H40.3072H40.282H40.2569H40.2316H40.2063H40.181H40.1557H40.1303H40.1048H40.0793H40.0538H40.0282H40.0026H39.977H39.9513H39.9256H39.8998H39.874H39.8482H39.8223H39.7964H39.7705H39.7445H39.7185H39.6924H39.6663H39.6402H39.6141H39.5879H39.5616H39.5354H39.5091H39.4828H39.4564H39.4301H39.4037H39.3772H39.3507H39.3242H39.2977H39.2712H39.2446H39.2179H39.1913H39.1646H39.1379H39.1112H39.0845H39.0577H39.0309H39.0041H38.9772H38.9503H38.9235H38.8965H38.8696H38.8426H38.8156H38.7886H38.7616H38.7345H38.7075H38.6804H38.6533H38.6261H38.599H38.5718H38.5446H38.5174H38.4902H38.4629H38.4357H38.4084H38.3811H38.3538H38.3265H38.2992H38.2718H38.2444H38.2171H38.1897H38.1623H38.1349H38.1074H38.08H38.0525H38.0251H37.9976H37.9701H37.9426H37.9151H37.8876H37.8601H37.8326H37.805H37.7775H37.7499H37.7224H37.6948H37.6673H37.6397H37.6121H37.5845H37.5569H37.5293H37.5017H37.4742H37.4465H37.4189H37.3913H37.3637H37.3361H37.3085H37.2809H37.2533H37.2257H37.1981H37.1705H37.1429H37.1153H37.0877H37.0601H37.0325H37.0049H36.9773H36.9497H36.9221H36.8945H36.867H36.8394H36.8119H36.7843H36.7568H36.7292H36.7017H36.6742H36.6467H36.6192H36.5917H36.5642H36.5367H36.5093H36.4818H36.4544H36.4269H36.3995H36.3721H36.3447H36.3173H36.29H36.2626H36.2353H36.208H36.1806H36.1534H36.1261H36.0988H36.0716H36.0444H36.0171H35.99H35.9628H35.9356H35.9085H35.8814H35.8543H35.8272H35.8002H35.7731H35.7461H35.7191H35.6922H35.6652H35.6383H35.6114H35.5845H35.5577H35.5308H35.504H35.4772H35.4505H35.4238H35.3971H35.3704H35.3438H35.3171H35.2905H35.264H35.2374H35.2109H35.1845H35.158H35.1316H35.1052H35.0789H35.0526H35.0263H35H34.9738H34.9476H34.9214H34.8953H34.8692H34.8432H34.8172H34.7912H34.7652H34.7393H34.7134H34.6876H34.6618H34.636H34.6103H34.5846H34.559H34.5333H34.5078H34.4822H34.4568H34.4313H34.4059H34.3805H34.3552H34.3299H34.3047H34.2795H34.2543H34.2292H34.2042H34.1791H34.1542H34.1292H34.1044H34.0795H34.0547H34.03H34.0053H33.9806H33.956H33.9315H33.907H33.8825H33.8581H33.8338H33.8095H33.7852H33.761H33.7369H33.7128H33.6887H33.6647H33.6408H33.6169H33.5931H33.5693H33.5456H33.5219H33.4983H33.4747H33.4512H33.4278H33.4044H33.3811H33.3578H33.3346H33.3115H33.2884H33.2653H33.2424H33.2194H33.1966H33.1738H33.1511H33.1284H33.1058H33.0832H33.0608H33.0383H33.016H32.9937H32.9715H32.9493H32.9272H32.9052H32.8832H32.8613H32.8395H32.8177H32.796H32.7744H32.7528H32.7313H32.7099H32.6886H32.6673H32.6461H32.6249H32.6039H32.5829H32.5619H32.5411H32.5203H32.4996H32.479H32.4584H32.4379H32.4175H32.3972H32.3769H32.3567H32.3366H32.3166H32.2966H32.2767H32.2569H32.2372H32.2175H32.198H32.1785H32.1591H32.1398H32.1205H32.1013H32.0823H32.0632H32.0443H32.0255H32.0067H31.9881H31.9695H31.951H31.9325H31.9142H31.8959H31.8778H31.8597H31.8417H31.8238H31.806H31.7882H31.7706H31.753H31.7356H31.7182H31.7009H31.6837H31.6666H31.6496H31.6326H31.6158H31.5991H31.5824H31.5658H31.5494H31.533H31.5167H31.5005H31.4844H31.4684H31.4525H31.4367H31.421H31.4054H31.3899H31.3744H31.3591H31.3439H31.3288H31.3137H31.2988H31.284H31.2692H31.2546H31.2401H31.2257H31.2113H31.1971H31.183H31.169H31.155H31.1412H31.1275H31.1139H31.1004H31.087H31.0737H31.0605H31.0474H31.0345H31.0216H31.0088H30.9962H30.9837H30.9712H30.9589H30.9467H30.9346H30.9226H30.9107H30.8989H30.8872H30.8757H30.8642H30.8529H30.8417H30.8306H30.8196H30.8087H30.798H30.7873H30.7768H30.7663C30.3818 25.8727 30.0007 26.0049 29.6623 26.17C29.3138 26.3399 28.9495 26.5752 28.5833 26.8471C27.8506 27.3912 27.0467 28.1298 26.2551 28.929C25.2632 29.9305 24.2646 31.0539 23.4123 32.067V27.5443ZM21.9123 34.1804V36.3617L23.2537 34.6416C24.224 33.3975 25.7883 31.532 27.3209 29.9846C28.0887 29.2093 28.832 28.5308 29.4775 28.0514C29.8005 27.8116 30.0832 27.6336 30.3198 27.5182C30.5666 27.3978 30.7088 27.3727 30.7663 27.3727H30.7768H30.7873H30.798H30.8087H30.8196H30.8306H30.8417H30.8529H30.8642H30.8757H30.8872H30.8989H30.9107H30.9226H30.9346H30.9467H30.9589H30.9712H30.9837H30.9962H31.0088H31.0216H31.0345H31.0474H31.0605H31.0737H31.087H31.1004H31.1139H31.1275H31.1412H31.155H31.169H31.183H31.1971H31.2113H31.2257H31.2401H31.2546H31.2692H31.284H31.2988H31.3137H31.3288H31.3439H31.3591H31.3744H31.3899H31.4054H31.421H31.4367H31.4525H31.4684H31.4844H31.5005H31.5167H31.533H31.5494H31.5658H31.5824H31.5991H31.6158H31.6326H31.6496H31.6666H31.6837H31.7009H31.7182H31.7356H31.753H31.7706H31.7882H31.806H31.8238H31.8417H31.8597H31.8778H31.8959H31.9142H31.9325H31.951H31.9695H31.9881H32.0067H32.0255H32.0443H32.0632H32.0823H32.1013H32.1205H32.1398H32.1591H32.1785H32.198H32.2175H32.2372H32.2569H32.2767H32.2966H32.3166H32.3366H32.3567H32.3769H32.3972H32.4175H32.4379H32.4584H32.479H32.4996H32.5203H32.5411H32.5619H32.5829H32.6039H32.6249H32.6461H32.6673H32.6886H32.7099H32.7313H32.7528H32.7744H32.796H32.8177H32.8395H32.8613H32.8832H32.9052H32.9272H32.9493H32.9715H32.9937H33.016H33.0383H33.0608H33.0832H33.1058H33.1284H33.1511H33.1738H33.1966H33.2194H33.2424H33.2653H33.2884H33.3115H33.3346H33.3578H33.3811H33.4044H33.4278H33.4512H33.4747H33.4983H33.5219H33.5456H33.5693H33.5931H33.6169H33.6408H33.6647H33.6887H33.7128H33.7369H33.761H33.7852H33.8095H33.8338H33.8581H33.8825H33.907H33.9315H33.956H33.9806H34.0053H34.03H34.0547H34.0795H34.1044H34.1292H34.1542H34.1791H34.2042H34.2292H34.2543H34.2795H34.3047H34.3299H34.3552H34.3805H34.4059H34.4313H34.4568H34.4822H34.5078H34.5333H34.559H34.5846H34.6103H34.636H34.6618H34.6876H34.7134H34.7393H34.7652H34.7912H34.8172H34.8432H34.8692H34.8953H34.9214H34.9476H34.9738H35H35.0263H35.0526H35.0789H35.1052H35.1316H35.158H35.1845H35.2109H35.2374H35.264H35.2905H35.3171H35.3438H35.3704H35.3971H35.4238H35.4505H35.4772H35.504H35.5308H35.5577H35.5845H35.6114H35.6383H35.6652H35.6922H35.7191H35.7461H35.7731H35.8002H35.8272H35.8543H35.8814H35.9085H35.9356H35.9628H35.99H36.0171H36.0444H36.0716H36.0988H36.1261H36.1534H36.1806H36.208H36.2353H36.2626H36.29H36.3173H36.3447H36.3721H36.3995H36.4269H36.4544H36.4818H36.5093H36.5367H36.5642H36.5917H36.6192H36.6467H36.6742H36.7017H36.7292H36.7568H36.7843H36.8119H36.8394H36.867H36.8945H36.9221H36.9497H36.9773H37.0049H37.0325H37.0601H37.0877H37.1153H37.1429H37.1705H37.1981H37.2257H37.2533H37.2809H37.3085H37.3361H37.3637H37.3913H37.4189H37.4465H37.4742H37.5017H37.5293H37.5569H37.5845H37.6121H37.6397H37.6673H37.6948H37.7224H37.7499H37.7775H37.805H37.8326H37.8601H37.8876H37.9151H37.9426H37.9701H37.9976H38.0251H38.0525H38.08H38.1074H38.1349H38.1623H38.1897H38.2171H38.2444H38.2718H38.2992H38.3265H38.3538H38.3811H38.4084H38.4357H38.4629H38.4902H38.5174H38.5446H38.5718H38.599H38.6261H38.6533H38.6804H38.7075H38.7345H38.7616H38.7886H38.8156H38.8426H38.8696H38.8965H38.9235H38.9503H38.9772H39.0041H39.0309H39.0577H39.0845H39.1112H39.1379H39.1646H39.1913H39.2179H39.2446H39.2712H39.2977H39.3242H39.3507H39.3772H39.4037H39.4301H39.4564H39.4828H39.5091H39.5354H39.5616H39.5879H39.6141H39.6402H39.6663H39.6924H39.7185H39.7445H39.7705H39.7964H39.8223H39.8482H39.874H39.8998H39.9256H39.9513H39.977H40.0026H40.0282H40.0538H40.0793H40.1048H40.1303H40.1557H40.181H40.2063H40.2316H40.2569H40.282H40.3072H40.3323H40.3574H40.3824H40.4073H40.4323H40.4571H40.482H40.5068H40.5315H40.5562H40.5808H40.6054H40.63H40.6545H40.6789H40.7033H40.7277H40.752H40.7762H40.8004H40.8246H40.8486H40.8727H40.8967H40.9206H40.9445H40.9683H40.9921H41.0158H41.0394H41.0631H41.0866H41.1101H41.1335H41.1569H41.1802H41.2035H41.2267H41.2498H41.2729H41.296H41.3189H41.3418H41.3647H41.3875H41.4102H41.4329H41.4555H41.478H41.5005H41.5229H41.5452H41.5675H41.5897H41.6119H41.634H41.656H41.678H41.6998H41.7217H41.7434H41.7651H41.7867H41.8083H41.8298H41.8512H41.8725H41.8938H41.915H41.9361H41.9572H41.9782H41.9991H42.02H42.0407H42.0614H42.0821H42.1026H42.1231H42.1435H42.1638H42.1841H42.2043H42.2244H42.2444H42.2547L49.2208 33.9869L50.4872 35.1894V33.4431V27.8378C52.2671 27.9945 54.5895 27.8477 56.6058 26.9428C57.7996 26.4071 58.9043 25.5967 59.7083 24.4103C60.5145 23.2205 60.9857 21.7005 60.9857 19.8022V19.7608V19.7194V19.678V19.6367V19.5954V19.5542V19.513V19.4718V19.4307V19.3896V19.3486V19.3076V19.2667V19.2258V19.185V19.1441V19.1034V19.0627V19.022V18.9814V18.9408V18.9002V18.8598V18.8193V18.7789V18.7385V18.6982V18.6579V18.6177V18.5775V18.5374V18.4973V18.4573V18.4173V18.3773V18.3374V18.2975V18.2577V18.2179V18.1782V18.1385V18.0989V18.0593V18.0197V17.9802V17.9408V17.9014V17.862V17.8227V17.7834V17.7442V17.705V17.6659V17.6268V17.5878V17.5488V17.5098V17.4709V17.4321V17.3933V17.3545V17.3158V17.2771V17.2385V17.2V17.1614V17.123V17.0845V17.0462V17.0078V16.9696V16.9313V16.8931V16.855V16.8169V16.7789V16.7409V16.7029V16.665V16.6272V16.5894V16.5516V16.5139V16.4763V16.4387V16.4011V16.3636V16.3262V16.2888V16.2514V16.2141V16.1768V16.1396V16.1025V16.0653V16.0283V15.9913V15.9543V15.9174V15.8805V15.8437V15.807V15.7702V15.7336V15.697V15.6604V15.6239V15.5874V15.551V15.5147V15.4784V15.4421V15.4059V15.3697V15.3336V15.2976V15.2616V15.2256V15.1897V15.1539V15.1181V15.0823V15.0466V15.011V14.9754V14.9399V14.9044V14.869V14.8336V14.7982V14.763V14.7277V14.6926V14.6574V14.6224V14.5874V14.5524V14.5175V14.4826V14.4478V14.4131V14.3784V14.3437V14.3091V14.2746V14.2401V14.2057V14.1713V14.1369V14.1027V14.0685V14.0343V14.0002V13.9661V13.9321V13.8982V13.8643V13.8304V13.7966V13.7629V13.7292V13.6956V13.662V13.6285V13.595V13.5616V13.5283V13.495V13.4618V13.4286V13.3954V13.3624V13.3293V13.2964V13.2635V13.2306V13.1978V13.1651V13.1324V13.0997V13.0672V13.0346V13.0022V12.9698V12.9374V12.9051V12.8729V12.8407V12.8086V12.7765V12.7445V12.7125V12.6806V12.6488V12.617V12.5852V12.5536V12.522V12.4904V12.4589V12.4274V12.3961V12.3647V12.3335V12.3022V12.2711V12.24V12.2089V12.1779V12.147V12.1162V12.0853V12.0546V12.0239V11.9933V11.9627V11.9322V11.9017V11.8713V11.8409V11.8107V11.7804V11.7503V11.7202V11.6901V11.6601V11.6302V11.6003V11.5705V11.5407V11.5111V11.4814V11.4518V11.4223V11.3929V11.3635V11.3341V11.3049V11.2756V11.2465V11.2174V11.1884V11.1594V11.1305V11.1016V11.0728V11.0441V11.0154V10.9868V10.9582V10.9298V10.9013V10.873V10.8447V10.8164V10.7882V10.7601V10.732V10.704V10.6761V10.6482V10.6204V10.5926V10.565V10.5373V10.5098V10.4822V10.4548V10.4274V10.4001V10.3728V10.3456V10.3185V10.2914V10.2644V10.2375V10.2106V10.1838V10.157V10.1303V10.1037V10.0771V10.0506V10.0242V9.99782V9.97151V9.94526V9.91907V9.89295V9.86689V9.84089V9.81496V9.78909V9.76329V9.73755V9.71187V9.68626V9.66072V9.63523V9.60981V9.58446V9.55917V9.53395V9.50879V9.48369V9.45866V9.43369V9.40879V9.38396V9.35919V9.33448V9.30984V9.28527V9.26076V9.23632V9.21194V9.18763V9.16338V9.1392V9.11509V9.09104V9.06706V9.04314V9.01929V8.99551V8.97179V8.94814V8.92455V8.90103V8.87758V8.8542V8.83088V8.80763V8.78444V8.76133V8.73828V8.71529V8.69238V8.66953V8.64675V8.62403V8.60138V8.57881V8.55629V8.53385V8.51147V8.48917V8.46693V8.44475V8.42265V8.40061V8.37864V8.35675V8.33491V8.31315V8.29146V8.26983V8.24827V8.22679V8.20537V8.18402V8.16273V8.14152V8.12038V8.0993V8.0783V8.05736V8.03649V8.0157V7.99497V7.97431V7.95372V7.9332V7.91276V7.89238V7.87207V7.85183V7.83166V7.81156V7.79153V7.77157V7.75169V7.73187V7.71212V7.69244V7.67284V7.6533V7.63384V7.61445V7.59512V7.57587V7.55669V7.53758V7.51855V7.49958V7.48068V7.46186V7.44311V7.42443V7.40582V7.38728V7.36882V7.35043V7.3321V7.31385V7.29568V7.27757V7.25954V7.24158V7.22369V7.20588V7.18813V7.17046V7.15287V7.13534V7.11789V7.10051V7.08321V7.06597V7.04881V7.03173V7.01471V6.99777V6.98091V6.96411V6.94739V6.93075V6.91418V6.89768V6.88125V6.8649V6.84863V6.83243V6.8163V6.80024V6.78426V6.76836V6.75253V6.73677V6.72109V6.70548V6.68995V6.67449V6.65911V6.6438V6.62857V6.61341V6.59833V6.58332V6.56839V6.55353V6.53875V6.52405V6.50942V6.49486V6.48039V6.46598V6.45166V6.43741V6.42323V6.40913V6.39511V6.38116V6.36729V6.3535V6.33978V6.32614V6.31258V6.29909V6.28568V6.27235V6.25909V6.24591V6.23281V6.21978V6.20684V6.19397V6.18117V6.16846V6.15582V6.14326V6.13077V6.11837V6.10604V6.09379V6.08162V6.06952V6.05751V6.04557V6.03371V6.02193V6.01022V5.9986V5.98705V5.97558V5.9642V5.95288V5.94165V5.9305V5.91943V5.90843V5.89752V5.88668V5.87592V5.86524V5.85465V5.84413V5.83369V5.82333V5.81305V5.80285V5.79273V5.74964L60.9807 5.70683C60.745 3.66217 58.4805 0.25 52.1316 0.25H52.0961H52.0602H52.0242H51.9878H51.9511H51.9142H51.877H51.8395H51.8018H51.7637H51.7254H51.6869H51.648H51.6089H51.5695H51.5299H51.49H51.4498H51.4094H51.3687H51.3278H51.2865H51.2451H51.2033H51.1613H51.1191H51.0766H51.0338H50.9908H50.9475H50.904H50.8603H50.8162H50.772H50.7275H50.6827H50.6377H50.5925H50.547H50.5012H50.4553H50.409H50.3626H50.3159H50.269H50.2218H50.1744H50.1267H50.0789H50.0308H49.9824H49.9338H49.885H49.836H49.7868H49.7373H49.6876H49.6376H49.5875H49.5371H49.4865H49.4357H49.3846H49.3334H49.2819H49.2302H49.1783H49.1262H49.0738H49.0213H48.9685H48.9156H48.8624H48.809H48.7554H48.7016H48.6476H48.5933H48.5389H48.4843H48.4295H48.3744H48.3192H48.2638H48.2082H48.1523H48.0963H48.0401H47.9837H47.9271H47.8703H47.8133H47.7562H47.6988H47.6413H47.5835H47.5256H47.4675H47.4092H47.3507H47.2921H47.2332H47.1742H47.115H47.0556H46.9961H46.9364H46.8765H46.8164H46.7561H46.6957H46.6351H46.5744H46.5134H46.4523H46.3911H46.3296H46.268H46.2063H46.1443H46.0822H46.02H45.9576H45.895H45.8323H45.7694H45.7064H45.6432H45.5798H45.5163H45.4527H45.3889H45.3249H45.2608H45.1965H45.1321H45.0676H45.0029H44.9381H44.8731H44.808H44.7427H44.6773H44.6118H44.5461H44.4803H44.4143H44.3482H44.282H44.2156H44.1491H44.0825H44.0158H43.9489H43.8819H43.8147H43.7475H43.6801H43.6126H43.5449H43.4772H43.4093H43.3413H43.2732H43.2049H43.1366H43.0681H42.9995H42.9308H42.862H42.793H42.724H42.6548H42.5856H42.5162H42.4467H42.3772H42.3075H42.2377H42.1678H42.0978H42.0277H41.9575H41.8872H41.8168H41.7463H41.6757H41.605H41.5342H41.4633H41.3923H41.3213H41.2501H41.1789H41.1075H41.0361H40.9646H40.893H40.8213H40.7496H40.6777H40.6058H40.5338H40.4617H40.3896H40.3173H40.245H40.1726H40.1001H40.0276H39.955H39.8823H39.8095H39.7367H39.6638H39.5908H39.5178H39.4447H39.3715H39.2983H39.225H39.1517H39.0783H39.0048H38.9313H38.8577H38.784H38.7103H38.6366H38.5627H38.4889H38.415H38.341H38.267H38.1929H38.1188H38.0446H37.9704H37.8962H37.8219H37.7475H37.6732H37.5987H37.5243H37.4498H37.3752H37.3007H37.2261H37.1514H37.0767H37.002H36.9273H36.8525H36.7777H36.7028H36.628H36.5531H36.4782H36.4032H36.3283H36.2533H36.1783H36.1032H36.0282H35.9531H35.878H35.8029H35.7278H35.6526H35.5775H35.5023H35.4271H35.3519H35.2767H35.2015H35.1263H35.0511H34.9759H34.9006H34.8254H34.7501H34.6749H34.5996H34.5244H34.4491H34.3739H34.2986H34.2234H34.1482H34.0729H33.9977H33.9225H33.8473H33.7721H33.6969H33.6217H33.5466H33.4714H33.3963H33.3212H33.2461H33.171H33.0959H33.0209H32.9459H32.8708H32.7959H32.7209H32.646H32.5711H32.4962H32.4213H32.3465H32.2717H32.1969H32.1222H32.0475H31.9728H31.8982H31.8236H31.749H31.6745H31.6H31.5256H31.4512H31.3768H31.3025H31.2282H31.154H31.0798H31.0056H30.9315H30.8575H30.7835H30.7096H30.6357H30.5618H30.488H30.4143H30.3406H30.267H30.1934H30.1199H30.0465H29.9731H29.8997H29.8265H29.7533H29.6801H29.6071H29.534H29.4611H29.3882H29.3154H29.2427H29.17H29.0974H29.0249H28.9525H28.8801H28.8078H28.7356H28.6635H28.5914H28.5194H28.4476H28.3757H28.304H28.2324H28.1608H28.0893H28.0179H27.9466H27.8754H27.8043H27.7333H27.6623H27.5915H27.5208H27.4501H27.3795H27.3091H27.2387H27.1684H27.0983H27.0282H26.9583H26.8884H26.8186H26.749H26.6794H26.61H26.5407H26.4715H26.4023H26.3333H26.2645H26.1957H26.127H26.0585H25.99H25.9217H25.8535H25.7855H25.7175H25.6497H25.582H25.5144H25.4469H25.3795H25.3123H25.2452H25.1783H25.1114H25.0447H24.9782H24.9117H24.8454H24.7792H24.7132H24.6473H24.5815H24.5159H24.4504H24.3851H24.3198H24.2548H24.1898H24.1251H24.0604H23.9959H23.9316H23.8674H23.8033H23.7394H23.6757H23.6121H23.5486H23.4854H23.4222H23.3592H23.2964H23.2337H23.1712H23.1089H23.0467H22.9847H22.9228H22.8611H22.7996H22.7382H22.677H22.616H22.5551H22.4944H22.4339H22.3735H22.3133H22.2533H22.1935H22.1338H22.0743H22.015H21.9559H21.8969H21.8382H21.7796H21.7212H21.663H21.6049H21.5471H21.4894H21.4319H21.3746H21.3175H21.2606H21.2039H21.1474H21.091H21.0349H20.979H20.9232H20.8677H20.8123H20.7572H20.7022H20.6475H20.5929H20.5386H20.4844H20.4305H20.3767H20.3232H20.2699H20.2168H20.1639H20.1112H20.0588H20.0065H19.9545H19.9026H19.851H19.7996H19.7484H19.6975H19.6467H19.5962H19.5459H19.4959H19.446H19.3964H19.347H19.3243L19.3016 0.251376C18.1845 0.319131 16.506 0.708737 15.0284 1.6711C13.5277 2.6485 12.219 4.23217 11.9704 6.63729C11.5239 10.9567 11.4138 18.4513 11.4138 21.6456V21.7076L11.424 21.7688C11.9235 24.7679 14.0198 26.4733 16.2939 27.3751C18.207 28.1338 20.3126 28.358 21.9123 28.3299V34.1804ZM30.0283 17.6276L30.0265 17.6185L30.0245 17.6095C29.0365 13.2303 30.0874 10.661 31.6209 9.16905C33.2017 7.63099 35.4388 7.09573 37.0286 7.09573V5.59573C35.1803 5.59573 32.5181 6.20336 30.5749 8.09394C28.5855 10.0294 27.4878 13.1718 28.5593 17.9307C29.3851 22.041 32.7055 23.7698 35.8304 23.8699C37.3887 23.9198 38.945 23.5726 40.1936 22.8916C41.4382 22.2127 42.447 21.158 42.7358 19.7707L41.2673 19.4651C41.0956 20.2899 40.4698 21.0323 39.4754 21.5747C38.485 22.1149 37.198 22.4129 35.8784 22.3707C33.25 22.2865 30.6791 20.8841 30.0283 17.6276ZM35.9082 16.9742L36.4568 17.6099L37.0268 16.9932L43.8416 9.61982L42.74 8.60171L36.4952 15.3584L33.5444 11.9388L32.4087 12.9188L35.9082 16.9742ZM0.559108 74.4996L0.671006 75.1156H1.29703H31.8714H32.5798L32.6202 74.4083C32.7472 72.1851 32.5126 68.7756 31.3766 65.7429C30.3467 62.9933 28.5218 60.4326 25.4469 59.4886C25.4583 59.4681 25.4698 59.4472 25.4815 59.4261C25.8135 58.8246 26.2709 57.9593 26.7431 56.9101C27.5854 55.0383 28.4907 52.5472 28.801 49.8989L28.8269 49.9063L28.8839 48.973C29.0395 46.4279 28.5905 43.75 26.9316 41.3891C25.2717 39.0267 22.4637 37.072 18.074 35.8541C14.9735 34.9938 11.9458 36.2699 9.67109 38.5995C7.3957 40.9298 5.79113 44.3809 5.46388 48.1246L5.4036 48.8143L5.41822 48.8168C5.27201 52.0986 6.11727 55.5782 8.36581 58.7077C6.61575 59.4362 4.5002 60.8251 2.86548 63.0079C0.882827 65.6553 -0.36166 69.4312 0.559108 74.4996ZM10.1659 58.591C7.73145 55.6131 6.80248 52.2338 6.91051 49.0415C8.79573 49.2403 11.3489 49.1413 13.7368 48.2777C15.9621 47.4728 18.0615 45.9925 19.3055 43.4809C20.3748 45.5424 22.7691 48.0154 27.339 49.4698C27.0848 51.9935 26.2153 54.4277 25.3752 56.2945C24.9248 57.2953 24.4876 58.1226 24.1683 58.7012C24.0488 58.9176 23.9472 59.0967 23.8653 59.2412C23.8371 59.291 23.8111 59.3367 23.7876 59.3784C23.7804 59.3913 23.7732 59.404 23.7661 59.4167C15.6165 63.1197 11.2853 60.2159 10.2035 58.6411L10.1857 58.6153L10.1659 58.591ZM9.32011 59.9443C11.2462 62.1581 16.3157 64.4588 24.4142 60.7697C27.227 61.3656 28.9558 63.5561 29.9719 66.269C30.9032 68.7554 31.1833 71.5633 31.1484 73.6156H1.93342C1.29122 69.2703 2.41451 66.1124 4.0661 63.9071C5.64774 61.7952 7.73974 60.5241 9.32011 59.9443ZM44.4336 49.3417C48.0757 48.5923 54.4736 46.3502 56.9945 42.1218L44.4336 49.3417Z" fill="#00B0F2" stroke="#08083B" stroke-width="1.5"/>
</svg>
