<svg width="46" height="30" viewBox="0 0 46 30" fill="none" xmlns="http://www.w3.org/2000/svg">
<path d="M45.031 25.0556V26.1122L44.8729 25.9737C44.5159 25.6711 44.3323 25.6147 43.756 25.6147C43.2613 25.6147 43.195 25.6249 42.8788 25.7788C42.2414 26.0814 41.8385 26.6046 41.6906 27.3278C41.4713 28.3639 42.0323 29.5026 42.9298 29.8514C43.2868 29.9899 43.96 30.036 44.3017 29.954C44.4343 29.9181 44.6536 29.8104 44.7862 29.718L45.0259 29.5436L45.0412 29.7334L45.0565 29.9232L45.5307 29.9386L45.9999 29.954V26.9739V23.999H45.5154H45.031V25.0556ZM44.3221 26.5379C44.7811 26.7021 45.133 27.2406 45.133 27.7895C45.133 29.1487 43.45 29.6257 42.8075 28.4511C42.6851 28.2152 42.6647 28.128 42.6647 27.7946C42.6698 27.5586 42.7004 27.3381 42.7514 27.2252C43.0267 26.6046 43.6897 26.3174 44.3221 26.5379Z" fill="white"/>
<path d="M17.9002 25.0504V25.6915H17.4922H17.0842V26.1275V26.5635H17.4922H17.9002V27.5483C17.9002 29.1794 18.0226 29.5692 18.6142 29.877C18.9048 30.0257 19.6545 30.0411 20.0829 29.9026C20.5878 29.7385 20.5725 29.7692 20.4195 29.3025C20.343 29.0819 20.2767 28.8922 20.2716 28.8819C20.2665 28.8768 20.1594 28.9178 20.037 28.9742C19.7565 29.1025 19.2975 29.1127 19.1292 28.9947C18.9048 28.8357 18.8692 28.6408 18.8692 27.5637V26.5635H19.6086H20.3481V26.1275V25.6915H19.6086H18.8692V25.0504V24.4093H18.3847H17.9002V25.0504Z" fill="white"/>
<path d="M1.61153 25.6664C1.50443 25.7075 1.31574 25.8254 1.19335 25.928L0.968958 26.1075V25.9023V25.6921H0.484479H0V27.8203V29.9485H0.479379H0.963858L0.979158 28.5793C0.999557 27.0357 1.01486 26.9485 1.35654 26.6869C1.52993 26.5536 1.58603 26.5382 1.93282 26.5382C2.3867 26.5382 2.57539 26.6408 2.73348 26.9587C2.82018 27.1331 2.83038 27.3075 2.84568 28.5536L2.86098 29.9485H3.34545H3.82483V28.6254C3.82993 26.9998 3.86563 26.8562 4.34501 26.61C4.79889 26.3793 5.36497 26.5434 5.56896 26.969C5.68115 27.1946 5.68625 27.2767 5.70155 28.5793L5.72195 29.9536L6.23703 29.9382L6.75721 29.9228V28.4357C6.75721 26.6203 6.73171 26.5023 6.28293 26.0562C5.94124 25.7126 5.62506 25.5895 5.09978 25.5895C4.5745 25.5895 4.12572 25.7485 3.82483 26.0408L3.58004 26.2818L3.42195 26.0921C3.16696 25.7895 2.76918 25.6254 2.249 25.6049C1.95322 25.5946 1.74412 25.6152 1.61153 25.6664Z" fill="white"/>
<path d="M9.01634 25.6717C8.44516 25.8461 7.90458 26.3743 7.68019 26.9641C7.5629 27.2769 7.517 27.9538 7.5935 28.3025C7.73629 28.9794 8.15957 29.5282 8.75625 29.8102C9.04693 29.9435 9.17953 29.9743 9.56711 29.9897C10.1332 30.0153 10.4749 29.9179 10.7656 29.6564L10.9645 29.4769V29.7128V29.9487H11.4489H11.9334V27.8205V25.6923H11.454H10.9696L10.9543 25.8974L10.939 26.1025L10.7146 25.923C10.5922 25.8256 10.3729 25.7076 10.2352 25.6666C9.9139 25.5692 9.33252 25.5743 9.01634 25.6717ZM10.3066 26.5999C10.5004 26.7025 10.6279 26.8153 10.7452 26.9897C11.3775 27.9435 10.7248 29.2256 9.66401 29.1128C9.21013 29.0666 8.85314 28.8205 8.63895 28.4102C8.49616 28.1435 8.50636 27.4307 8.65425 27.1538C8.99084 26.5179 9.68951 26.2871 10.3066 26.5999Z" fill="white"/>
<path d="M13.8867 25.677C13.2442 25.8975 12.9025 26.3386 12.9025 26.9488C12.9076 27.7129 13.3513 28.0668 14.5191 28.2309C15.3096 28.3437 15.5799 28.5027 15.4779 28.8052C15.4065 29.0001 15.1107 29.1386 14.6925 29.1693C14.2641 29.2001 13.8969 29.1232 13.4788 28.9129C13.3003 28.8257 13.1473 28.7642 13.1371 28.7745C13.1269 28.7847 13.0249 28.9437 12.9076 29.1283L12.6985 29.4616L12.8158 29.5488C12.9841 29.6821 13.4992 29.877 13.8612 29.9488C14.31 30.0411 15.1464 29.9898 15.4983 29.8565C15.8909 29.7027 16.151 29.5027 16.3091 29.236C16.4264 29.0411 16.4468 28.9386 16.4468 28.6411C16.4417 27.8411 15.998 27.4873 14.7486 27.3027C14.0601 27.2001 13.9224 27.1334 13.9224 26.9027C13.9224 26.4411 14.6925 26.3283 15.5901 26.6565L15.9929 26.8052L16.1918 26.4257L16.3907 26.0411L16.2683 25.9488C15.9878 25.7334 15.5646 25.6309 14.8404 25.6103C14.2794 25.595 14.1009 25.6052 13.8867 25.677Z" fill="white"/>
<path d="M22.5053 25.6618C21.5007 25.99 20.9346 27.0003 21.1029 28.1592C21.2202 28.9797 21.674 29.5951 22.3574 29.8567C22.6226 29.9592 22.7603 29.9746 23.306 29.9746C24.0046 29.9695 24.2647 29.9028 24.7492 29.59L24.9889 29.4361L24.7543 29.0823L24.5197 28.7233L24.331 28.8413C23.8058 29.1695 23.0765 29.2618 22.6685 29.0413C22.3982 28.8977 22.1891 28.672 22.1075 28.431L22.0412 28.231L23.5916 28.2156L25.1419 28.2054V27.8054C25.1368 26.831 24.7696 26.1131 24.0913 25.7695C23.8211 25.631 23.7344 25.6156 23.255 25.6054C22.9082 25.5951 22.643 25.6156 22.5053 25.6618ZM23.6018 26.4874C23.8721 26.6054 24.0046 26.749 24.1219 27.0618C24.178 27.2156 24.2239 27.349 24.2239 27.3592C24.2239 27.3746 23.7395 27.3849 23.1479 27.3849H22.0769L22.1075 27.2669C22.1789 27.031 22.2962 26.831 22.4339 26.6977C22.7144 26.4259 23.2295 26.3336 23.6018 26.4874Z" fill="white"/>
<path d="M27.5898 25.6974C27.4623 25.7539 27.2991 25.8616 27.2226 25.9333L27.0798 26.0718V25.8564V25.641H26.5953H26.1108V27.7949V29.9487H26.5953H27.0798V28.5487C27.0798 27.2 27.0849 27.1436 27.1971 26.9231C27.2583 26.7949 27.3909 26.641 27.4878 26.5744C27.6459 26.4667 27.7122 26.4564 28.0947 26.4718L28.523 26.4872L28.6403 26.1026C28.7066 25.8923 28.7627 25.6872 28.7627 25.6513C28.7627 25.5385 27.8652 25.5692 27.5898 25.6974Z" fill="white"/>
<path d="M30.5376 25.6873C29.4666 26.0411 28.8955 26.995 29.0638 28.1437C29.2015 29.0617 29.7522 29.6976 30.6141 29.9283C30.9558 30.0206 31.6697 30.0206 32.0165 29.9283C32.2817 29.8565 32.705 29.636 32.7662 29.5386C32.807 29.4719 32.3888 28.7694 32.3072 28.7694C32.2715 28.7694 32.2154 28.8053 32.1797 28.8463C32.0675 28.9796 31.5779 29.1283 31.2465 29.1283C30.4866 29.1232 30.0174 28.6155 30.0174 27.795C30.0174 27.3027 30.1551 26.9847 30.4917 26.7386C30.9456 26.4053 31.4709 26.3847 32.042 26.6873L32.3582 26.8514L32.5826 26.4668L32.807 26.0822L32.6591 25.9642C32.3735 25.7335 31.991 25.6258 31.3893 25.6104C30.9405 25.595 30.7722 25.6104 30.5376 25.6873Z" fill="white"/>
<path d="M34.7041 25.6615C33.7096 25.9795 33.1487 26.8359 33.2099 27.9333C33.2864 29.1897 34.1176 30 35.3314 30C35.8158 30 36.1269 29.9026 36.4074 29.6615L36.6165 29.4769V29.7128V29.9487H37.101H37.5855V27.8205V25.6923H37.1061H36.6216L36.6063 25.9026L36.591 26.1179L36.3717 25.9333C36.2493 25.8308 36.0351 25.7128 35.8872 25.6667C35.5762 25.5744 34.9846 25.5692 34.7041 25.6615ZM36.0147 26.6051C36.4431 26.8154 36.6624 27.2205 36.6675 27.8103C36.6675 28.2462 36.54 28.5385 36.2187 28.8205C35.7088 29.2769 34.9693 29.2051 34.5052 28.6564C34.2859 28.4 34.2196 28.1897 34.2196 27.7385C34.2196 26.7641 35.1427 26.1846 36.0147 26.6051Z" fill="white"/>
<path d="M40.3137 25.6462C40.227 25.6718 40.0587 25.7744 39.9414 25.8769L39.7273 26.0616V25.8513V25.641H39.2428H38.7583V27.7949V29.9487H39.2428H39.7273V28.5487C39.7273 27.2 39.7324 27.1436 39.8446 26.9231C39.9058 26.7949 40.0383 26.641 40.1352 26.5744C40.2933 26.4667 40.3596 26.4564 40.7421 26.4718L41.1705 26.4872L41.2878 26.1026C41.3541 25.8923 41.4102 25.6872 41.4102 25.6513C41.4102 25.5795 40.5636 25.5692 40.3137 25.6462Z" fill="white"/>
<path d="M14.7115 0.0368271C13.3697 0.168295 11.9588 0.578167 10.6747 1.21231C9.46752 1.80778 8.65248 2.37619 7.73363 3.26167C5.62682 5.28783 4.38118 7.83213 4.07746 10.7322C4.0198 11.3083 4.0544 13.0561 4.13513 13.5974C4.34274 14.9778 4.70413 16.1456 5.27312 17.2863C6.00358 18.7401 6.86476 19.8576 8.12962 20.9906C9.88658 22.5643 12.3317 23.6199 14.7576 23.8519C15.292 23.9022 16.6914 23.9022 17.1143 23.8519C19.3173 23.589 21.0665 22.9239 22.8158 21.6866C23.0388 21.528 23.2272 21.3772 23.2272 21.3579C23.2272 21.3347 23.1349 21.2458 23.0196 21.153C22.6851 20.89 21.9738 20.194 21.6163 19.7726C20.0939 17.99 19.1443 15.8633 18.8252 13.5085C18.7367 12.8743 18.706 11.5364 18.7636 10.9139C19.0481 7.81667 20.4706 4.98236 22.7466 2.97553C23.0003 2.75126 23.2118 2.55019 23.2156 2.53086C23.2272 2.48446 23.1195 2.40326 22.4775 1.97405C20.8435 0.875904 19.0212 0.226295 17.0413 0.032959C16.5761 -0.0134411 15.2074 -0.00957489 14.7115 0.0368271Z" fill="#EC1515"/>
<path d="M23.1118 2.65439C22.3583 3.36974 21.6047 4.14695 21.3433 4.47948C20.5206 5.52736 19.7863 6.86138 19.3749 8.07553C18.6637 10.1752 18.5483 12.4101 19.0443 14.6103C19.6017 17.0966 20.9665 19.3702 22.908 21.0368L23.2579 21.3384L23.7346 20.9208C25.7146 19.173 27.0448 16.8375 27.5484 14.2429C27.7099 13.4039 27.7445 13.0211 27.7406 11.9809C27.7368 10.8905 27.6984 10.4342 27.5138 9.52555C27.1447 7.69273 26.2989 5.8831 25.1379 4.44468C24.5766 3.75254 24.2844 3.45094 23.3963 2.66213L23.2464 2.52679L23.1118 2.65439Z" fill="#EC6B15"/>
<path d="M29.2631 0.0484371C27.2909 0.280439 25.5954 0.906849 23.9807 1.99726C23.3002 2.4574 23.2656 2.48447 23.2656 2.527C23.2656 2.54634 23.3733 2.65074 23.5078 2.75901C24.1153 3.25008 25.0841 4.31343 25.6185 5.0829C26.5258 6.38599 27.2024 7.97521 27.5139 9.52576C27.6984 10.4344 27.7368 10.8907 27.7407 11.9811C27.7445 13.0213 27.7099 13.4041 27.5485 14.2432C27.0487 16.8339 25.7146 19.1732 23.7462 20.9055C23.4925 21.1298 23.281 21.327 23.2733 21.3425C23.2579 21.3811 23.8769 21.8451 24.296 22.1081C26.1567 23.2758 28.2866 23.8906 30.4934 23.8906C31.6813 23.8906 32.3657 23.8133 33.4075 23.5581C37.3636 22.5914 40.5815 19.6024 41.854 15.7125C42.0809 15.0242 42.2231 14.4249 42.3461 13.6438C42.4153 13.1953 42.4269 12.9633 42.4269 11.9618C42.4269 10.9758 42.4153 10.7244 42.3461 10.2798C42.1155 8.79109 41.6503 7.38747 41.0005 6.20425C39.5934 3.64835 37.3828 1.73046 34.6724 0.713512C33.9419 0.438974 33.0769 0.218573 32.208 0.0871029C31.666 0.00203514 29.8513 -0.0172977 29.2631 0.0484371Z" fill="#EC9615"/>
</svg>
