<svg width="24" height="24" viewBox="0 0 24 24" fill="none" xmlns="http://www.w3.org/2000/svg">
<path d="M8.85739 0.070117C8.16595 0.24175 7.56439 0.988352 7.41227 1.86368C7.37079 2.10396 7.33621 2.72184 7.33621 3.23674V4.16356L4.90233 4.20646C2.89715 4.23221 2.40622 4.26654 2.13656 4.3781C1.32066 4.72136 0.6707 5.43364 0.290406 6.41195L0.0414866 7.05557L0.0207433 8.91778L0 10.78L0.159032 10.8315C0.24892 10.8572 2.64823 11.4579 5.49697 12.1616C8.35264 12.8739 10.7519 13.4746 10.8418 13.5004C10.9939 13.5519 11.0009 13.5347 11.0009 12.9426C11.0009 11.8784 11.2567 11.5953 12.1487 11.6639C12.5151 11.6897 12.6258 11.7411 12.7779 11.9214C12.9369 12.1187 12.9646 12.2389 12.9922 12.8482C13.0199 13.4317 13.0406 13.5347 13.1374 13.5004C13.1997 13.4746 15.6128 12.8739 18.503 12.1616C21.3933 11.4494 23.8133 10.8487 23.8825 10.8229C23.9862 10.78 24 10.6255 24 9.21814C24 7.51039 23.917 6.88394 23.599 6.17166C23.1703 5.21052 22.2852 4.44675 21.4002 4.26654C21.172 4.21505 20.0035 4.18072 18.8003 4.18072H16.6016V2.99645C16.6016 1.9495 16.5808 1.77786 16.4356 1.39169C16.3526 1.1514 16.1452 0.816719 15.9793 0.636505C15.4192 0.00146389 15.5298 0.0186272 12.1763 0.00146389C10.5238 -0.00711727 9.03025 0.0272093 8.85739 0.070117ZM15.032 1.47751C15.4607 1.73495 15.5298 1.95808 15.5298 3.10802V4.13781L11.9896 4.16356L8.44252 4.18072V3.17667C8.44252 2.02673 8.53933 1.69205 8.94728 1.47751C9.293 1.28871 14.7277 1.29729 15.032 1.47751Z" fill="#08083B"/>
<path d="M0.283447 15.9546C0.290362 18.3746 0.318019 20.623 0.345677 20.9491C0.511624 22.5024 1.46582 23.6952 2.72424 23.9269C3.29123 24.0299 20.7225 24.0213 21.2964 23.9183C22.3889 23.721 23.267 22.7427 23.5574 21.3868C23.6335 21.0521 23.6542 19.9021 23.6542 16.2549C23.6542 11.8097 23.6473 11.5522 23.5367 11.5951C23.4191 11.638 13.089 14.2211 13.0337 14.2211C13.0198 14.2211 13.006 14.3841 12.9991 14.5815C12.9922 15.5427 12.681 15.8859 11.872 15.8259C11.4364 15.7915 11.3673 15.7572 11.1944 15.5169C11.0285 15.2852 11.0008 15.1737 11.0008 14.736C11.0008 14.4528 10.9939 14.2211 10.9801 14.2211C10.9524 14.2211 0.601511 11.6552 0.442479 11.6037L0.283447 11.5608V15.9546Z" fill="#08083B"/>
</svg>
