<svg width="111" height="111" viewBox="0 0 111 111" fill="none" xmlns="http://www.w3.org/2000/svg">
<path d="M50.4569 0.390046C49.4638 0.953064 49.1502 1.86462 49.124 4.08988C49.124 7.89695 49.6729 8.32592 54.6124 8.32592H58.0099V10.4171V12.5083L60.1791 12.267C62.4267 12.0257 69.8491 12.1866 70.6331 12.4815C71.0252 12.6424 71.0774 12.4547 71.0774 10.4976V8.32592H74.475C76.5396 8.32592 78.1077 8.19186 78.5259 8.00419C79.5713 7.52161 79.9633 6.476 79.9633 4.17031C79.9633 1.86462 79.5713 0.819012 78.5259 0.336425C77.4805 -0.146161 51.3194 -0.0925407 50.4569 0.390046Z" fill="#08083B"/>
<path d="M59.4473 15.8594C51.1364 16.7442 41.9891 20.5781 35.6645 25.8329C21.6822 37.4418 15.436 55.3511 19.0687 73.4213C21.839 87.0678 31.1954 99.5078 43.4788 105.835C56.677 112.645 72.2273 112.725 85.2164 106.05C90.0514 103.556 93.2922 101.116 97.3692 96.9608C102.309 91.8668 105.419 87.0678 107.902 80.6333C111.116 72.3221 111.874 62.1878 109.966 53.099C107.405 40.9271 100.113 30.0957 89.8423 23.2323C81.0348 17.3608 70.1627 14.7066 59.4473 15.8594ZM71.2081 25.0822C84.6676 27.5219 96.0625 37.7099 100.453 51.2491C101.812 55.4315 102.256 58.4611 102.256 63.287C102.256 70.6062 100.636 76.853 97.134 82.939C91.4888 92.6712 82.2893 99.2665 71.2081 101.519C67.9673 102.189 61.12 102.189 57.8792 101.519C53.2533 100.58 48.6797 98.8107 45.0731 96.5318C29.8886 86.9874 23.0935 68.2737 28.6341 51.2223C33.443 36.4498 45.9094 26.2619 61.2768 24.5728C63.1846 24.3583 68.8036 24.6532 71.2081 25.0822Z" fill="#08083B"/>
<path d="M60.3619 28.1652C45.7002 30.0419 33.9133 41.1682 30.7771 56.1284C29.9669 60.0159 29.9669 66.5577 30.7771 70.4452C32.9724 80.9548 39.4539 89.7486 48.575 94.6013C53.9588 97.47 58.1666 98.5156 64.5435 98.5156C70.9205 98.5156 75.1282 97.47 80.512 94.6013C89.8161 89.6414 96.3498 80.5795 98.4406 69.8017C99.0417 66.5845 99.0417 59.9891 98.4406 56.7987C97.0293 49.5331 93.9454 43.5812 88.8491 38.3531C83.7789 33.1519 77.8724 29.9079 70.9989 28.5674C68.3331 28.0311 62.9493 27.8435 60.3619 28.1652ZM65.1446 30.0687C65.4582 30.2564 65.798 30.5245 65.9025 30.6854C66.0071 30.8462 66.1116 32.4817 66.1116 34.3048C66.1116 37.9778 65.8764 38.6212 64.5435 38.6212C63.2629 38.6212 62.8447 37.7901 62.7402 34.9214C62.6357 31.9723 62.9754 30.5245 63.8117 30.0955C64.5958 29.7202 64.4912 29.7202 65.1446 30.0687ZM49.9602 34.3852C50.6135 34.8946 53.3055 39.8545 53.3055 40.5248C53.3055 41.9994 51.5021 42.616 50.509 41.49C49.5681 40.4175 47.5035 36.4496 47.5035 35.7525C47.5035 34.4924 49.0193 33.6613 49.9602 34.3852ZM81.0086 34.5461C81.3483 34.8142 81.6097 35.3236 81.6097 35.6989C81.6097 36.4228 79.4927 40.4444 78.578 41.49C77.611 42.616 75.7816 41.9994 75.7816 40.5784C75.7816 39.8545 78.4473 34.9214 79.1268 34.3852C79.7018 33.9294 80.3291 33.983 81.0086 34.5461ZM65.798 43.1254C66.0332 43.4471 66.1116 45.5651 66.1116 51.6511C66.1116 59.6406 66.1116 59.7746 66.6604 60.1768C69.5876 62.268 68.0979 67.1207 64.5435 67.1207C62.4527 67.1207 60.8846 65.4852 60.8846 63.2868C60.8846 62.0267 61.6164 60.4449 62.322 60.1768C62.6618 60.0427 62.7141 58.8899 62.7141 52.2945C62.7141 47.281 62.8186 44.305 63.0015 43.742C63.472 42.4015 64.9617 42.053 65.798 43.1254ZM40.3686 47.0129C43.1912 48.6483 43.8968 49.265 43.8968 50.0693C43.8968 51.0076 43.1912 51.7583 42.3549 51.7583C41.2833 51.7583 36.37 48.6751 36.1609 47.8976C35.9779 47.0933 36.4484 46.155 37.1802 45.8869C37.8858 45.6188 38.0949 45.6724 40.3686 47.0129ZM92.6909 46.5571C93.4488 47.7636 92.9784 48.3802 90.0774 50.1229C88.6139 51.0345 87.098 51.7583 86.7321 51.7583C85.8174 51.7583 85.1379 50.9272 85.2424 49.962C85.3208 49.1577 86.6799 48.0853 89.6854 46.4499C91.358 45.5383 92.0637 45.5651 92.6909 46.5571ZM40.1334 62.3752C40.7084 63.2332 40.3948 64.3324 39.4539 64.815C38.6437 65.2439 34.3576 65.2708 33.2076 64.8686C31.8486 64.386 31.6134 62.6702 32.7633 61.8927C32.9201 61.7854 34.5405 61.6782 36.37 61.6782C39.663 61.6782 39.7152 61.6782 40.1334 62.3752ZM96.3237 61.8927C96.9248 62.2948 97.2123 63.2332 96.9509 63.9302C96.6112 64.8954 95.1999 65.2439 92.1944 65.1367C90.182 65.0563 89.5809 64.9222 89.1366 64.5201C88.4832 63.9034 88.4309 63.0991 89.0059 62.268C89.3718 61.705 89.5809 61.6782 92.7171 61.6782C94.5465 61.6782 96.1669 61.7854 96.3237 61.8927ZM43.4264 75.271C44.0798 75.8609 44.0275 77.0137 43.3219 77.684C42.2765 78.6223 38.3562 80.7672 37.6506 80.7672C36.9449 80.7672 36.0563 79.8556 36.0563 79.1317C36.0563 78.3542 36.6052 77.8448 39.1925 76.3166C41.8322 74.7616 42.6424 74.5471 43.4264 75.271ZM89.9206 76.3434C91.4364 77.2282 92.6909 78.1665 92.8477 78.4883C93.2136 79.3194 92.7171 80.365 91.8285 80.7403C91.2012 80.9548 90.8092 80.8208 88.7445 79.6143C87.4378 78.8368 86.1049 77.9789 85.7913 77.684C84.6936 76.692 85.2947 74.8153 86.6799 74.8153C87.0196 74.8153 88.4832 75.5123 89.9206 76.3434ZM52.7305 84.896C53.6191 85.5394 53.4361 86.451 51.8419 89.266C49.934 92.671 49.3591 93.0731 48.0785 92.0275C47.216 91.3036 47.3467 90.4457 48.7318 87.9255C50.692 84.4134 51.3453 83.904 52.7305 84.896ZM79.2052 86.0756C80.8256 88.569 81.7665 90.5798 81.6097 91.1696C81.4006 91.9739 80.3552 92.5905 79.5973 92.4029C79.1268 92.2956 78.5257 91.4913 77.3758 89.4805C75.6509 86.5046 75.4418 85.5394 76.3827 84.8691C77.4019 84.1185 78.1599 84.467 79.2052 86.0756ZM65.5366 88.3813C66.0855 88.7566 66.1116 88.9711 66.1116 92.1079C66.1116 93.9311 66.0332 95.6201 65.9548 95.8614C65.7196 96.478 64.6742 96.8266 63.9163 96.5317C62.9754 96.1831 62.6357 94.7622 62.7663 91.6522C62.8447 89.2392 62.9231 88.9175 63.472 88.4617C64.2038 87.8451 64.7526 87.8183 65.5366 88.3813Z" fill="#00B0F2"/>
<path d="M27.5101 25.2966C24.0864 28.8088 24.0342 28.8624 24.0342 30.0688C24.0342 30.7391 24.2171 31.5166 24.4001 31.8115C24.766 32.2941 24.8182 32.2673 25.6284 31.2485C26.7261 29.8544 31.9792 24.4655 33.3121 23.3931C34.3052 22.5619 34.3314 22.5351 33.8348 22.133C33.5473 21.9185 32.7894 21.7308 32.136 21.7308C30.9861 21.7308 30.9338 21.7844 27.5101 25.2966Z" fill="#00B0F2"/>
<path d="M95.2522 22.133C94.7556 22.5351 94.7817 22.5619 95.7749 23.3931C97.1077 24.4655 102.361 29.8544 103.459 31.2485C104.269 32.2673 104.321 32.2941 104.687 31.8115C104.87 31.5166 105.053 30.7391 105.053 30.0688C105.053 28.8624 105.001 28.8088 101.577 25.2966C98.1531 21.7844 98.1009 21.7308 96.9509 21.7308C96.2976 21.7308 95.5396 21.9185 95.2522 22.133Z" fill="#00B0F2"/>
<path d="M7.34504 44.4C6.84608 45 6.89597 46.06 7.44484 46.58C7.87727 46.98 8.07686 47 13 47C17.9231 47 18.1227 46.98 18.5552 46.58C19.104 46.06 19.1539 45 18.655 44.4C18.3389 44.02 18.1061 44 13 44C7.89391 44 7.66105 44.02 7.34504 44.4Z" fill="#00B0F2"/>
<path d="M4.43175 55.6667C4.18997 56.0133 4 56.6267 4 57C4 57.3733 4.18997 57.9867 4.43175 58.3333L4.84622 59H10.9598C16.8833 59 17.0906 58.9733 17.5396 58.44C18.1268 57.72 18.1613 56.3867 17.5914 55.5867C17.1942 55 17.1078 55 11.0116 55H4.84622L4.43175 55.6667Z" fill="#00B0F2"/>
<path d="M0.41459 67.6667C-0.123874 68.4933 -0.140701 69.64 0.380936 70.4133C0.767958 71 0.784784 71 9.04684 71C17.107 71 17.3426 70.9733 17.6623 70.4667C17.9988 69.9333 18.1166 68.4933 17.8642 67.9067C17.5108 67.0533 16.9892 67 8.91223 67H0.818438L0.41459 67.6667Z" fill="#00B0F2"/>
<path d="M7.66762 80.1861C6.97291 80.5479 6.76765 81.9146 7.30447 82.598C7.60446 82.9799 7.8255 83 12.9885 83C18.1514 83 18.3725 82.9799 18.6725 82.598C19.1461 81.995 19.0988 80.9298 18.5777 80.4072C18.1672 80.0052 17.9777 79.9851 13.0832 80.0052C10.3044 80.0052 7.85708 80.0856 7.66762 80.1861Z" fill="#00B0F2"/>
</svg>
