<svg width="44" height="44" viewBox="0 0 44 44" fill="none" xmlns="http://www.w3.org/2000/svg">
<rect width="44" height="44" rx="4" fill="#00B0F2"/>
<g clip-path="url(#clip0_19_656)">
<path fill-rule="evenodd" clip-rule="evenodd" d="M20.5 13.75C16.7721 13.75 13.75 16.7721 13.75 20.5C13.75 24.2279 16.7721 27.25 20.5 27.25C22.0938 27.25 23.5585 26.6976 24.7133 25.7739L28.9697 30.0303C29.2626 30.3232 29.7374 30.3232 30.0303 30.0303C30.3232 29.7374 30.3232 29.2626 30.0303 28.9697L25.7739 24.7133C26.6976 23.5585 27.25 22.0938 27.25 20.5C27.25 16.7721 24.2279 13.75 20.5 13.75ZM15.25 20.5C15.25 17.6005 17.6005 15.25 20.5 15.25C23.3995 15.25 25.75 17.6005 25.75 20.5C25.75 23.3995 23.3995 25.75 20.5 25.75C17.6005 25.75 15.25 23.3995 15.25 20.5Z" fill="white"/>
</g>
<defs>
<clipPath id="clip0_19_656">
<rect width="18" height="18" fill="white" transform="translate(13 13)"/>
</clipPath>
</defs>
</svg>
