<svg width="26" height="26" viewBox="0 0 26 26" fill="none" xmlns="http://www.w3.org/2000/svg">
<path d="M13.0296 0H12.9704C5.80704 0 0 5.80704 0 12.9704V13.0296C0 20.193 5.80704 26 12.9704 26H13.0296C20.193 26 26 20.193 26 13.0296V12.9704C26 5.80704 20.193 0 13.0296 0Z" fill="#00B0F2"/>
<path d="M4.92416 12.5569C4.9606 12.5386 4.99705 12.5213 5.03258 12.5049C5.65017 12.2189 6.27597 11.9511 6.90085 11.6833C6.93455 11.6833 6.99101 11.6441 7.0229 11.6314C7.07117 11.6104 7.11946 11.5904 7.16774 11.5694L7.44557 11.4501C7.63139 11.3709 7.8163 11.2916 8.00212 11.2124C8.37286 11.0539 8.7436 10.8954 9.11433 10.736C9.85581 10.419 10.5982 10.1011 11.3397 9.78407C12.0812 9.46707 12.8236 9.14916 13.565 8.83217C14.3065 8.51517 15.0489 8.19727 15.7904 7.88027C16.5319 7.56328 17.2743 7.24537 18.0157 6.92838C18.1806 6.85732 18.3591 6.75166 18.5359 6.72069C18.6843 6.69427 18.8292 6.64326 18.9785 6.61502C19.2618 6.56128 19.5743 6.53942 19.8457 6.65693C19.9396 6.69792 20.0261 6.7553 20.0981 6.82726C20.4424 7.16794 20.3941 7.72724 20.3212 8.20638C19.8138 11.5458 19.3065 14.8861 18.7982 18.2254C18.729 18.6836 18.6342 19.1864 18.2726 19.4761C17.9665 19.7211 17.5311 19.7485 17.1531 19.6446C16.7751 19.5399 16.4417 19.3203 16.1147 19.1045C14.7583 18.2063 13.4011 17.3082 12.0447 16.41C11.7223 16.1968 11.3634 15.9181 11.367 15.531C11.3688 15.2978 11.5082 15.0901 11.6503 14.9052C12.829 13.3676 14.5297 12.3109 15.7949 10.8444C15.9735 10.6376 16.1138 10.2641 15.8687 10.1448C15.723 10.0737 15.5554 10.1703 15.4224 10.2623C13.7499 11.4237 12.0784 12.586 10.406 13.7474C9.86038 14.1264 9.28833 14.5162 8.63066 14.6091C8.04221 14.6929 7.45013 14.529 6.88081 14.3614C6.4035 14.2211 5.92708 14.0772 5.45249 13.9287C5.20017 13.8504 4.93965 13.7656 4.74472 13.588C4.54978 13.4104 4.43776 13.1116 4.55526 12.8748C4.62905 12.7263 4.77206 12.6325 4.92236 12.556L4.92416 12.5569Z" fill="white"/>
</svg>
