<svg width="36" height="36" viewBox="0 0 36 36" fill="none" xmlns="http://www.w3.org/2000/svg">
<path d="M18.041 0H17.959C8.04051 0 0 8.04052 0 17.959V18.041C0 27.9595 8.04051 36 17.959 36H18.041C27.9595 36 36 27.9595 36 18.041V17.959C36 8.04052 27.9595 0 18.041 0Z" fill="white"/>
<path d="M6.81837 17.3865C6.86882 17.3613 6.9193 17.3373 6.96848 17.3146C7.82362 16.9186 8.6901 16.5478 9.55532 16.177C9.60199 16.177 9.68017 16.1227 9.72431 16.1051C9.79116 16.0761 9.85801 16.0483 9.92486 16.0193L10.3095 15.8541C10.5668 15.7443 10.8229 15.6346 11.0802 15.5249C11.5935 15.3054 12.1068 15.086 12.6201 14.8653C13.6468 14.4263 14.6748 13.9862 15.7014 13.5472C16.7281 13.1083 17.756 12.6681 18.7827 12.2292C19.8093 11.7903 20.8372 11.3501 21.8639 10.9112C22.8906 10.4723 23.9185 10.0321 24.9452 9.59321C25.1734 9.49483 25.4206 9.34853 25.6653 9.30564C25.8709 9.26907 26.0714 9.19844 26.2783 9.15934C26.6705 9.08492 27.1031 9.05465 27.479 9.21736C27.6089 9.27411 27.7287 9.35357 27.8284 9.45321C28.3051 9.92492 28.2383 10.6993 28.1374 11.3628C27.4349 15.9865 26.7323 20.6115 26.0286 25.2353C25.9327 25.8697 25.8015 26.5659 25.3008 26.967C24.877 27.3063 24.2741 27.3441 23.7507 27.2003C23.2273 27.0553 22.7657 26.7513 22.3129 26.4524C20.4349 25.2088 18.5556 23.9652 16.6776 22.7216C16.2311 22.4265 15.7342 22.0405 15.7393 21.5045C15.7418 21.1816 15.9347 20.8941 16.1315 20.638C17.7636 18.509 20.1183 17.046 21.8702 15.0153C22.1174 14.729 22.3117 14.2119 21.9724 14.0467C21.7706 13.9483 21.5385 14.082 21.3543 14.2094C19.0387 15.8175 16.7243 17.4269 14.4086 19.035C13.6531 19.5596 12.8611 20.0995 11.9504 20.2281C11.1357 20.3441 10.3159 20.1171 9.52758 19.8851C8.86668 19.6908 8.20702 19.4915 7.54991 19.286C7.20054 19.1775 6.83982 19.0602 6.56991 18.8142C6.3 18.5683 6.14489 18.1546 6.30759 17.8267C6.40975 17.6211 6.60777 17.4912 6.81588 17.3852L6.81837 17.3865Z" fill="#001F2B"/>
</svg>
