<svg width="26" height="26" viewBox="0 0 26 26" fill="none" xmlns="http://www.w3.org/2000/svg">
<g clip-path="url(#clip0_19_390)">
<rect width="26" height="25.2778" rx="12.6389" transform="matrix(1 0 0 -1 0 26)" fill="white"/>
<path d="M12.1107 0.748079C11.5431 0.785933 10.2521 0.991426 9.7402 1.1158C8.23776 1.48353 6.5183 2.28927 5.26627 3.19777C3.17398 4.71733 1.68823 6.65328 0.764505 9.06512C-0.264946 11.7527 -0.253816 14.9865 0.792328 17.7391C2.39493 21.9354 6.23451 25.0665 10.6639 25.7965C12.2832 26.0669 13.7078 26.0669 15.3104 25.8019C20.5633 24.9367 24.9037 20.7241 25.7941 15.6355C26.2003 13.3048 26.0055 11.0768 25.2098 8.98941C23.7574 5.19861 20.5633 2.32172 16.5568 1.19151C15.2825 0.834602 13.4407 0.650742 12.1107 0.748079ZM15.0321 4.54428C16.3287 4.71733 17.1856 4.95527 18.1706 5.3987C19.3837 5.94488 20.0403 6.61543 20.5856 7.89165C20.9918 8.82718 21.1643 9.55181 21.3201 10.9848C21.5093 12.6991 21.3535 14.7594 20.925 16.0789C20.7692 16.5656 20.3853 17.3497 20.1237 17.7174C19.801 18.1771 19.2112 18.6421 18.549 18.9558C17.0577 19.6696 15.366 20.0049 12.9732 20.0536L11.5821 20.086L11.1091 20.6214C10.8476 20.9188 10.4413 21.3784 10.2076 21.6542C9.62335 22.3356 9.35068 22.46 8.89995 22.2491C8.51599 22.076 8.48817 21.9679 8.4993 20.6971L8.50486 19.5669L8.02631 19.3614C6.3291 18.653 5.55006 17.7823 5.02142 15.9978C4.73206 15.0352 4.6319 14.1321 4.6319 12.5531C4.6319 10.9848 4.73763 10.0115 5.02142 8.90289C5.18836 8.27019 5.58345 7.30221 5.86168 6.86418C6.71306 5.49604 8.41026 4.72814 11.1981 4.44694C11.9883 4.36583 14.1307 4.4199 15.0321 4.54428Z" fill="#8600F3"/>
<path d="M11.5991 5.73943C10.0855 5.85299 9.10614 6.08552 8.20467 6.53436C7.35329 6.96157 6.94708 7.4699 6.52417 8.64877C6.14577 9.71409 5.96771 10.9741 5.97327 12.6072C5.97884 14.4188 6.20142 15.6139 6.72449 16.6305C7.10288 17.3606 7.65934 17.8148 8.61646 18.1771L9.02267 18.334L9.03936 19.9671C9.05049 21.5732 9.06162 21.6867 9.22856 21.6921C9.24525 21.6921 9.8518 21.0378 10.5696 20.2429L11.8829 18.7882L12.929 18.7558C15.1549 18.6855 16.7519 18.3718 17.9761 17.7607C18.655 17.4201 18.9777 17.101 19.306 16.4467C19.7512 15.5706 19.9515 14.6243 20.0461 13.0398C20.1129 11.8285 19.9015 10.0277 19.562 9.00568C19.0278 7.37256 18.3768 6.76149 16.5905 6.2099C15.3274 5.82055 13.1906 5.61506 11.5991 5.73943ZM13.6969 7.6808C14.3202 7.8268 14.7153 7.97822 15.0936 8.22157C16.1732 8.89753 16.9021 9.97907 17.1414 11.2607C17.2917 12.061 17.2638 12.3909 17.0301 12.3909C16.8799 12.3909 16.802 12.2233 16.763 11.8447C16.7074 11.3148 16.4959 10.5252 16.3123 10.1683C15.9673 9.5086 15.383 8.89753 14.7264 8.51358C14.437 8.34053 13.7359 8.12963 13.2406 8.05933C12.7788 7.99444 12.6675 7.94036 12.6675 7.79976C12.6675 7.55101 12.9847 7.51856 13.6969 7.6808ZM10.041 8.1783C10.3025 8.26483 10.9146 8.98946 11.3821 9.76817C11.5657 10.071 11.6102 10.1954 11.6102 10.4117C11.6102 10.6713 11.5991 10.6875 11.2263 11.0444C10.9981 11.2607 10.8256 11.477 10.8089 11.5689C10.7644 11.7474 10.987 12.326 11.2875 12.8127C11.5267 13.2021 12.2056 13.8996 12.5951 14.1538C12.7621 14.262 13.096 14.4188 13.3352 14.5053C13.8861 14.7 13.964 14.6784 14.4203 14.2025C14.7709 13.8402 14.9378 13.7645 15.2495 13.8185C15.511 13.8672 16.5738 14.5648 16.9967 14.9596C17.3139 15.2624 17.3417 15.3056 17.3417 15.5165C17.3417 16.1709 16.3735 17.1497 15.728 17.1497C15.1215 17.1497 12.7955 15.9167 11.6603 14.992C10.4361 13.997 9.60139 12.8614 8.72775 11.0065C8.21024 9.89254 8.17129 9.70868 8.405 9.26525C8.60533 8.88671 9.25638 8.3135 9.63478 8.18371C9.8518 8.108 9.84067 8.108 10.041 8.1783ZM13.7748 9.01109C14.8989 9.2977 15.6946 10.19 15.8894 11.3688C15.9562 11.7582 15.9005 11.9042 15.7002 11.9042C15.5277 11.9042 15.4887 11.8447 15.4108 11.3959C15.3329 10.947 15.0269 10.3252 14.7542 10.0494C14.4648 9.76276 14.0364 9.54104 13.5745 9.4383C13.1071 9.34096 13.0125 9.25984 13.1015 9.06517C13.1794 8.90834 13.3297 8.89212 13.7748 9.01109ZM13.9195 10.2495C14.0753 10.3143 14.2757 10.4604 14.3758 10.5685C14.5483 10.7578 14.782 11.2769 14.782 11.4716C14.782 11.5743 14.6429 11.742 14.5539 11.742C14.4593 11.742 14.2812 11.5257 14.2812 11.4175C14.2812 11.2499 14.0809 10.9038 13.9195 10.7794C13.836 10.7145 13.6802 10.6388 13.5689 10.601C13.4577 10.5685 13.3297 10.5144 13.2963 10.482C13.2184 10.4279 13.1961 10.217 13.2629 10.1575C13.3352 10.0818 13.6524 10.1251 13.9195 10.2495Z" fill="#8600F3"/>
</g>
<defs>
<clipPath id="clip0_19_390">
<rect width="26" height="25.2778" rx="12.6389" transform="matrix(1 0 0 -1 0 26)" fill="white"/>
</clipPath>
</defs>
</svg>
