<svg width="36" height="35" viewBox="0 0 36 35" fill="none" xmlns="http://www.w3.org/2000/svg">
<g clip-path="url(#clip0_93_186)">
<rect width="36" height="35" rx="17.5" transform="matrix(1 0 0 -1 0 35)" fill="#001F2B"/>
<path d="M16.7687 0.0358086C15.9828 0.0882225 14.1953 0.372749 13.4864 0.544964C11.4061 1.05412 9.02534 2.16977 7.29175 3.42768C4.39474 5.53169 2.33755 8.21224 1.05855 11.5517C-0.366848 15.273 -0.351438 19.7506 1.09707 23.5618C3.31606 29.3721 8.63239 33.7074 14.7654 34.7183C17.0075 35.0927 18.98 35.0927 21.199 34.7258C28.4723 33.5277 34.4821 27.6949 35.7149 20.6491C36.2773 17.422 36.0077 14.3371 34.9059 11.4469C32.8949 6.19809 28.4723 2.21469 22.9249 0.649788C21.1604 0.155609 18.6101 -0.0989685 16.7687 0.0358086ZM20.8137 5.29209C22.609 5.53169 23.7955 5.86114 25.1593 6.47513C26.8389 7.23137 27.7481 8.15983 28.5031 9.9269C29.0656 11.2222 29.3045 12.2256 29.5202 14.2098C29.7822 16.5834 29.5664 19.4361 28.9731 21.2631C28.7574 21.937 28.2258 23.0227 27.8636 23.5318C27.4168 24.1683 26.6001 24.8122 25.6832 25.2465C23.6183 26.2348 21.276 26.6991 17.9629 26.7665L16.0367 26.8114L15.3818 27.5527C15.0197 27.9645 14.4572 28.6009 14.1336 28.9828C13.3246 29.9262 12.9471 30.0984 12.323 29.8064C11.7914 29.5668 11.7528 29.4171 11.7683 27.6575L11.776 26.0926L11.1133 25.8081C8.76338 24.8272 7.6847 23.6217 6.95274 21.1508C6.55209 19.818 6.4134 18.5676 6.4134 16.3812C6.4134 14.2098 6.55979 12.862 6.95274 11.3271C7.18389 10.451 7.73093 9.11075 8.11617 8.50426C9.29501 6.6099 11.645 5.54667 15.5051 5.15731C16.5992 5.045 19.5655 5.11987 20.8137 5.29209Z" fill="white"/>
<path d="M16.0603 6.9468C13.9646 7.10403 12.6085 7.426 11.3603 8.04747C10.1815 8.63899 9.61903 9.34282 9.03346 10.9751C8.50953 12.4502 8.26298 14.1948 8.27068 16.456C8.27839 18.9644 8.58658 20.6191 9.31083 22.0268C9.83476 23.0376 10.6052 23.6666 11.9305 24.1682L12.4929 24.3854L12.516 26.6466C12.5315 28.8704 12.5469 29.0277 12.778 29.0352C12.8011 29.0352 13.6409 28.1292 14.6349 27.0285L16.4532 25.0143L17.9017 24.9694C20.9837 24.8721 23.1949 24.4378 24.89 23.5917C25.83 23.12 26.2769 22.6782 26.7315 21.7722C27.3478 20.5592 27.6252 19.2489 27.7562 17.055C27.8487 15.3778 27.5559 12.8844 27.0859 11.4693C26.3462 9.20805 25.4447 8.36195 22.9715 7.59822C21.2225 7.05911 18.2638 6.77458 16.0603 6.9468ZM18.965 9.63484C19.8279 9.837 20.375 10.0467 20.8989 10.3836C22.3936 11.3195 23.403 12.8171 23.7343 14.5916C23.9423 15.6998 23.9038 16.1565 23.5802 16.1565C23.3721 16.1565 23.2643 15.9244 23.2103 15.4003C23.1333 14.6665 22.8405 13.5733 22.5863 13.0791C22.1086 12.1656 21.2995 11.3195 20.3904 10.7879C19.9897 10.5483 19.0189 10.2563 18.3332 10.159C17.6937 10.0691 17.5396 9.99424 17.5396 9.79956C17.5396 9.45514 17.9788 9.41021 18.965 9.63484ZM13.9029 10.3237C14.265 10.4435 15.1126 11.4468 15.7598 12.525C16.014 12.9443 16.0757 13.1166 16.0757 13.4161C16.0757 13.7755 16.0603 13.7979 15.544 14.2921C15.2281 14.5916 14.9893 14.8911 14.9662 15.0184C14.9045 15.2655 15.2127 16.0667 15.6288 16.7406C15.9601 17.2797 16.9001 18.2456 17.4394 18.5975C17.6706 18.7472 18.1329 18.9644 18.4642 19.0842C19.2269 19.3537 19.3348 19.3238 19.9666 18.6649C20.452 18.1632 20.6832 18.0584 21.1146 18.1332C21.4768 18.2006 22.9484 19.1665 23.5339 19.7131C23.9731 20.1324 24.0116 20.1923 24.0116 20.4843C24.0116 21.3903 22.671 22.7456 21.7772 22.7456C20.9374 22.7456 17.7168 21.0384 16.145 19.758C14.45 18.3803 13.2942 16.8079 12.0846 14.2397C11.368 12.6973 11.3141 12.4427 11.6377 11.8287C11.9151 11.3046 12.8165 10.5109 13.3405 10.3312C13.6409 10.2264 13.6255 10.2264 13.9029 10.3237ZM19.0729 11.4768C20.6292 11.8736 21.731 13.1091 22.0007 14.7414C22.0931 15.2805 22.0161 15.4826 21.7387 15.4826C21.4999 15.4826 21.4459 15.4003 21.3381 14.7788C21.2302 14.1573 20.8064 13.2963 20.4289 12.9144C20.0283 12.5176 19.435 12.2106 18.7955 12.0683C18.1483 11.9335 18.0173 11.8212 18.1406 11.5517C18.2484 11.3345 18.4565 11.3121 19.0729 11.4768ZM19.2732 13.1914C19.4889 13.2813 19.7663 13.4835 19.905 13.6332C20.1438 13.8953 20.4674 14.6141 20.4674 14.8836C20.4674 15.0259 20.2748 15.258 20.1515 15.258C20.0205 15.258 19.774 14.9585 19.774 14.8088C19.774 14.5766 19.4966 14.0974 19.2732 13.9252C19.1576 13.8354 18.9419 13.7305 18.7878 13.6781C18.6337 13.6332 18.4565 13.5583 18.4102 13.5134C18.3024 13.4385 18.2716 13.1465 18.364 13.0641C18.4642 12.9593 18.9033 13.0192 19.2732 13.1914Z" fill="white"/>
</g>
<defs>
<clipPath id="clip0_93_186">
<rect width="36" height="35" rx="17.5" transform="matrix(1 0 0 -1 0 35)" fill="white"/>
</clipPath>
</defs>
</svg>
