<svg width="63" height="30" viewBox="0 0 63 30" fill="none" xmlns="http://www.w3.org/2000/svg">
<path d="M0.0352546 5.4582C-0.0503501 5.67599 -0.0100655 5.71064 0.498527 5.84924C5.65998 7.2847 9.66326 10.3437 11.7329 14.4323C11.8638 14.6947 12.0249 15.0362 12.0904 15.1896C12.1559 15.348 12.2163 15.4668 12.2264 15.4569C12.2566 15.4322 10.5999 7.17085 10.4992 6.81446C10.3481 6.28482 10.0208 5.87398 9.58773 5.65619C9.02374 5.379 9.06403 5.379 4.38095 5.379C0.493491 5.379 0.065468 5.3889 0.0352546 5.4582Z" fill="#EC9615"/>
<path d="M40.2943 5.00778C40.2842 5.01768 40.0967 5.03748 39.8738 5.05233C39.4736 5.08698 39.4128 5.09193 39.0126 5.15133C37.8677 5.32458 36.5404 5.78491 35.5728 6.3393C34.0683 7.21048 33.0804 8.4232 32.6498 9.91806C32.5282 10.3536 32.5181 10.413 32.4776 10.9229C32.4573 11.1258 32.437 11.3238 32.4269 11.3585C32.3914 11.4624 32.5029 12.2148 32.6093 12.6058C32.8879 13.6206 33.7035 14.66 34.8839 15.4966C35.046 15.6104 35.1878 15.6995 35.7856 16.0559C35.892 16.1203 36.3175 16.338 36.7329 16.5459C38.2426 17.3033 38.7391 17.6102 39.1545 18.0507C39.4787 18.3873 39.5952 18.6744 39.5952 19.11C39.5952 20.288 38.0045 21.1295 36.0237 20.9959C35.3449 20.9513 34.9852 20.9216 34.8332 20.9018C34.7623 20.8919 34.5951 20.8672 34.4533 20.8474C34.0581 20.7979 33.4755 20.6444 32.8778 20.4365C32.3104 20.2386 32.2141 20.2039 31.4948 19.8723C31.2617 19.7683 31.049 19.699 31.0287 19.7188C31.0084 19.7386 30.978 19.8673 30.9578 20.0059C30.9324 20.2237 30.8767 20.5702 30.8109 20.9018C30.7754 21.0751 30.7298 21.377 30.6994 21.5899C30.6893 21.6988 30.6538 21.9215 30.6234 22.0849C30.593 22.2482 30.5576 22.4313 30.5474 22.4907C30.5373 22.5551 30.517 22.664 30.5018 22.7382C30.4866 22.8174 30.4664 22.9907 30.4512 23.1243C30.436 23.2629 30.3904 23.5104 30.3549 23.6837L30.2891 23.9906L30.6487 24.1242C31.0186 24.2628 31.7227 24.4756 31.9456 24.5152C32.0165 24.5301 32.1179 24.5548 32.1736 24.5697C32.285 24.6093 32.3104 24.6142 32.5282 24.6538C32.6143 24.6687 32.7359 24.6934 32.8068 24.7083C32.8778 24.7231 33.0145 24.7479 33.1108 24.7627C33.207 24.7776 33.3337 24.7974 33.3894 24.8023C33.4451 24.8122 33.6174 24.837 33.7694 24.8568C33.9213 24.8766 34.1037 24.8964 34.1746 24.9063C34.8332 25.0003 36.5202 25.03 37.2902 24.9657C37.7613 24.9261 38.1058 24.8815 38.4807 24.8122C38.5769 24.7974 38.7188 24.7726 38.7897 24.7627C39.0126 24.7281 39.884 24.4905 40.274 24.3568C42.6094 23.55 44.1951 21.9958 44.7422 19.9762C44.7878 19.803 44.8385 19.5802 44.8486 19.4862C44.8638 19.3921 44.8942 19.2139 44.9144 19.0951C44.9702 18.7981 44.9398 17.7983 44.8638 17.4369C44.7371 16.8231 44.4585 16.2044 44.0634 15.65C43.8557 15.3679 43.1262 14.6353 42.7867 14.3828C42.3663 14.0611 41.5811 13.5958 40.8769 13.2493C38.7087 12.1851 37.9842 11.6703 37.7968 11.0615C37.7005 10.7447 37.7005 10.7249 37.7968 10.4081C37.964 9.84876 38.6833 9.31418 39.4686 9.16568C40.0055 9.06173 40.2234 9.05183 41.0643 9.06173C41.9255 9.07658 42.113 9.09143 42.4828 9.16568C42.5537 9.18053 42.6804 9.20528 42.7614 9.22013C43.3187 9.31418 44.5193 9.72501 44.9702 9.96756C44.9854 9.97746 45.0259 9.82401 45.0563 9.62602C45.0867 9.42802 45.1272 9.19538 45.1424 9.11618C45.1576 9.03203 45.1829 8.88848 45.1981 8.79444C45.2133 8.70039 45.2387 8.57664 45.2488 8.5222C45.264 8.4232 45.3045 8.1757 45.3501 7.85396C45.3704 7.69557 45.4413 7.27978 45.492 7.03228C45.5021 6.97288 45.5274 6.83924 45.5477 6.73529C45.5629 6.62639 45.5882 6.48285 45.5983 6.41355C45.6135 6.34425 45.6338 6.20565 45.6439 6.10171C45.6591 6.00271 45.6845 5.90371 45.6946 5.87896C45.7503 5.79481 44.4585 5.39882 43.5973 5.23548C43.4453 5.20578 43.2629 5.16618 43.192 5.15628C43.1211 5.14143 42.9286 5.11668 42.7614 5.10678C42.5942 5.09193 42.4017 5.06718 42.3308 5.05233C42.2042 5.02263 40.3196 4.98303 40.2943 5.00778Z" fill="#0056A3"/>
<path d="M54.4335 5.3492C54.4233 5.3591 54.322 5.3789 54.2106 5.39375C53.704 5.46305 53.1011 5.75014 52.8124 6.05703C52.5033 6.39857 52.4831 6.42827 52.0119 7.46774C51.9511 7.59644 51.9056 7.71029 51.9056 7.73009C51.9056 7.74494 51.86 7.84888 51.8093 7.96768C51.7536 8.08153 51.6472 8.31912 51.5763 8.49732C51.5003 8.67551 51.3939 8.91311 51.3432 9.02695C51.2926 9.1408 51.247 9.24475 51.247 9.26455C51.247 9.2794 51.2014 9.38335 51.1507 9.50214C51.095 9.61599 50.9886 9.85358 50.9177 10.0318C50.8417 10.21 50.7353 10.4476 50.6847 10.5614C50.634 10.6753 50.5884 10.7792 50.5884 10.799C50.5884 10.8139 50.5428 10.9178 50.4871 11.0366C50.4364 11.1505 50.3452 11.3534 50.2946 11.492C50.2389 11.6256 50.1325 11.8682 50.0616 12.0216C49.9906 12.1751 49.9298 12.3137 49.9298 12.3285C49.9298 12.3483 49.8842 12.4523 49.8285 12.5711C49.7779 12.6849 49.6867 12.8879 49.636 13.0265C49.5803 13.1601 49.4739 13.4026 49.403 13.5561C49.3321 13.7095 49.2713 13.8481 49.2713 13.863C49.2713 13.8828 49.2257 13.9867 49.175 14.1055C49.1193 14.2194 48.9572 14.5906 48.8153 14.9322C48.6684 15.2737 48.5215 15.6152 48.486 15.6994C48.4506 15.7786 48.2986 16.1251 48.1568 16.4666C48.0098 16.8082 47.8477 17.1794 47.7971 17.2932C47.7464 17.4071 47.7008 17.511 47.7008 17.5308C47.7008 17.5457 47.6552 17.6496 47.6046 17.7684C47.5488 17.8823 47.4425 18.1199 47.3715 18.2981C47.2955 18.4763 47.1892 18.7139 47.1385 18.8277C47.0878 18.9416 47.0422 19.0455 47.0422 19.0653C47.0422 19.0802 46.9967 19.1841 46.946 19.3029C46.8903 19.4167 46.7839 19.6543 46.713 19.8325C46.637 20.0107 46.5306 20.2483 46.4799 20.3622C46.4293 20.476 46.3837 20.58 46.3837 20.5998C46.3837 20.6146 46.3381 20.7186 46.2874 20.8374C46.2317 20.9512 46.1253 21.1888 46.0544 21.367C45.9784 21.5452 45.872 21.7828 45.8214 21.8966C45.7707 22.0105 45.7251 22.1144 45.7251 22.1342C45.7251 22.1491 45.6795 22.253 45.6289 22.3718C45.5731 22.4857 45.4667 22.7233 45.3958 22.9015C45.3198 23.0797 45.2134 23.3172 45.1628 23.4311C45.1121 23.5449 45.0665 23.6489 45.0665 23.6637C45.0665 23.6786 45.0108 23.8073 44.9449 23.9508C44.8842 24.0944 44.8132 24.2478 44.798 24.2874C44.7828 24.327 44.7372 24.4458 44.6917 24.5448L44.6106 24.7329H47.2905H49.9704L50.021 24.5943C50.1578 24.2429 50.8721 22.3025 50.943 22.0847L51.0291 21.8372L54.3524 21.8224L57.6706 21.8125L57.7517 22.1689C57.7922 22.3669 57.8378 22.5847 57.853 22.654C57.8631 22.7233 57.8986 22.8866 57.929 23.0252C57.9594 23.1588 57.9948 23.3271 58.005 23.3964C58.0151 23.4657 58.0708 23.7182 58.1316 23.9657C58.1873 24.2082 58.2431 24.4755 58.2532 24.5597L58.2734 24.7082L60.6342 24.723C62.0982 24.728 63 24.7181 63 24.6884C63 24.6636 62.9696 24.5003 62.9291 24.327C62.8885 24.1538 62.8429 23.9459 62.8277 23.8667C62.8176 23.7825 62.7568 23.5152 62.7011 23.2727C62.6454 23.0252 62.5896 22.7579 62.5795 22.6787C62.5643 22.5946 62.5339 22.4411 62.5035 22.3322C62.4731 22.2233 62.4377 22.0649 62.4275 21.9857C62.4123 21.9016 62.387 21.7828 62.3718 21.7135C62.3566 21.6442 62.3313 21.5353 62.3211 21.466C62.311 21.3967 62.2755 21.2531 62.2502 21.1443C62.2198 21.0354 62.1844 20.877 62.1742 20.7978C62.159 20.7136 62.0932 20.3919 62.0222 20.08C61.9513 19.7682 61.8804 19.4415 61.8703 19.3623C61.8551 19.2781 61.7943 19.0109 61.7386 18.7683C61.6828 18.5208 61.6271 18.2535 61.617 18.1743C61.6018 18.0902 61.5714 17.9367 61.541 17.8278C61.5106 17.7189 61.4751 17.5605 61.465 17.4813C61.4498 17.3972 61.4245 17.2784 61.4093 17.2091C61.3941 17.1398 61.3687 17.0309 61.3586 16.9616C61.3434 16.8923 61.2421 16.427 61.1306 15.9221C61.0243 15.4172 60.9229 14.9371 60.9077 14.8579C60.8925 14.7738 60.8621 14.6203 60.8318 14.5114C60.8014 14.4025 60.7659 14.2441 60.7558 14.1649C60.7406 14.0808 60.7152 13.962 60.7 13.8927C60.6848 13.8234 60.6595 13.7145 60.6494 13.6452C60.6392 13.5759 60.6038 13.4323 60.5785 13.3234C60.5481 13.2145 60.5126 13.0562 60.5025 12.977C60.4873 12.8928 60.4619 12.774 60.4467 12.7047C60.4315 12.6354 60.4062 12.5265 60.3961 12.4572C60.3809 12.3879 60.2796 11.9226 60.1681 11.4177C60.0617 10.9129 59.9604 10.4327 59.9452 10.3535C59.93 10.2694 59.8996 10.1159 59.8692 10.007C59.8388 9.89813 59.8034 9.73974 59.7932 9.66054C59.778 9.57639 59.7527 9.45759 59.7375 9.3883C59.7223 9.319 59.697 9.2101 59.6868 9.1408C59.6767 9.0715 59.6413 8.92796 59.6159 8.81906C59.5855 8.71016 59.5501 8.55177 59.5399 8.47257C59.5247 8.38842 59.4994 8.26962 59.4842 8.20033C59.469 8.13103 59.4437 8.02213 59.4336 7.95283C59.4184 7.88353 59.317 7.41825 59.2056 6.91336C59.0941 6.40847 58.9928 5.92833 58.9827 5.84913C58.9675 5.76499 58.9371 5.62639 58.9219 5.53729L58.8864 5.3789H56.7435C55.5632 5.3789 54.5652 5.369 54.5297 5.35415C54.4892 5.3393 54.4487 5.33435 54.4335 5.3492ZM55.3453 10.8337C55.3757 10.9772 55.4061 11.1505 55.4213 11.2197C55.4315 11.289 55.4669 11.4326 55.4922 11.5415C55.5226 11.6504 55.5581 11.8038 55.5682 11.888C55.5834 11.9672 55.6088 12.0909 55.624 12.1602C55.6392 12.2295 55.6645 12.3384 55.6746 12.4077C55.6848 12.477 55.7405 12.7295 55.7962 12.977C55.8519 13.2195 55.9127 13.5016 55.9279 13.6006C55.9431 13.6996 55.9684 13.8085 55.9786 13.8481C55.9938 13.8877 56.014 13.9966 56.0292 14.0907C56.0596 14.2788 56.0647 14.3134 56.1812 14.7837C56.2217 14.9619 56.2673 15.1698 56.2775 15.2539C56.2927 15.3331 56.3281 15.5113 56.3585 15.6499C56.3889 15.7835 56.4244 15.9518 56.4345 16.0211C56.4497 16.0904 56.5409 16.5211 56.6422 16.9765C56.7385 17.4368 56.8195 17.8278 56.8195 17.8575C56.8195 17.8823 55.9684 17.9021 54.6614 17.9021C52.6249 17.9021 52.5033 17.8971 52.5388 17.813C52.5895 17.6892 53.2784 15.8776 53.3544 15.6746C53.3899 15.5806 53.5824 15.0658 53.78 14.5362C54.4487 12.779 54.7425 11.9919 54.9299 11.4672C55.1326 10.8931 55.2541 10.5763 55.2744 10.5763C55.2845 10.5763 55.3149 10.6951 55.3453 10.8337Z" fill="#0056A3"/>
<path d="M17.5889 5.51273C17.5585 5.62657 17.3558 6.15126 17.1279 6.71555C17.0873 6.80959 16.9607 7.14618 16.8492 7.45803C16.7327 7.76987 16.5858 8.16091 16.52 8.32425C16.4541 8.4876 16.3072 8.87864 16.1907 9.19048C15.9931 9.72012 15.8259 10.1607 15.6587 10.5764C15.6182 10.6705 15.5169 10.9477 15.4257 11.1952C15.3396 11.4377 15.1927 11.8288 15.1015 12.0614C15.0103 12.2941 14.8381 12.7395 14.7215 13.0514C14.605 13.3632 14.4581 13.7543 14.3923 13.9176C14.3264 14.081 14.144 14.5611 13.987 14.9818C13.8249 15.4026 13.6526 15.858 13.5969 15.9966C13.5412 16.1302 13.4804 16.2985 13.4551 16.3678C13.4348 16.4371 13.298 16.8034 13.1511 17.1845C13.0042 17.5657 12.832 18.0211 12.7661 18.1943C12.6546 18.4913 12.5989 18.5952 12.5888 18.5408C12.5888 18.5309 12.5787 18.4863 12.5685 18.4468C12.5584 18.4072 12.5381 18.3032 12.5229 18.224C12.5077 18.1399 12.4824 18.0211 12.4672 17.9518C12.452 17.8825 12.4317 17.7736 12.4165 17.7043C12.4013 17.635 12.3811 17.5261 12.3659 17.4568C12.3507 17.3875 12.3304 17.2786 12.3152 17.2093C12.0974 16.1154 11.9859 15.7243 11.7124 15.1105C10.5725 12.5366 8.56643 10.2102 6.05878 8.55195C5.73963 8.3391 5.36981 8.10646 5.2381 8.03221L5 7.89362L5.07092 8.13616C5.14185 8.37375 8.53096 20.8573 8.56643 21.0108C8.57656 21.0603 8.79439 21.8473 9.04262 22.768C9.29592 23.6837 9.51882 24.4955 9.53402 24.5598L9.56442 24.6836H12.2646C14.3619 24.6836 14.9748 24.6687 15.0103 24.6192C15.0356 24.5895 15.142 24.3371 15.2535 24.0649C15.3599 23.7926 15.4865 23.4808 15.5372 23.3719C15.5878 23.263 15.7246 22.9412 15.8361 22.6541C15.9526 22.3671 16.0894 22.0453 16.14 21.9364C16.1907 21.8275 16.3123 21.5355 16.4085 21.288C16.5048 21.0454 16.6314 20.7435 16.6871 20.6197C16.7429 20.5009 16.8695 20.199 16.9658 19.9515C17.062 19.709 17.1887 19.407 17.2444 19.2833C17.3001 19.1645 17.4268 18.8576 17.5281 18.6051C17.6294 18.3478 17.7459 18.0607 17.7915 17.9617C17.8371 17.8577 17.8928 17.734 17.9182 17.6795C17.9384 17.6251 18.0549 17.3479 18.1715 17.0608C18.2829 16.7737 18.4096 16.4718 18.445 16.3926C18.4855 16.3084 18.6122 16.0114 18.7236 15.7243C18.8402 15.4372 18.9668 15.1353 19.0023 15.0561C19.0428 14.9719 19.1694 14.6749 19.2809 14.3879C19.3974 14.1008 19.5241 13.7988 19.5595 13.7196C19.6001 13.6355 19.7267 13.3385 19.8382 13.0514C19.9547 12.7643 20.0813 12.4624 20.1168 12.3832C20.1573 12.299 20.284 12.002 20.3954 11.7149C20.5119 11.4278 20.6386 11.1259 20.674 11.0467C20.7146 10.9625 20.8412 10.6655 20.9527 10.3785C21.0692 10.0914 21.206 9.76962 21.2566 9.66072C21.3073 9.55182 21.4289 9.25978 21.5251 9.01229C21.6214 8.76974 21.748 8.4678 21.8037 8.34406C21.8595 8.22526 21.9861 7.92332 22.0824 7.67582C22.1786 7.43328 22.3053 7.13133 22.361 7.00759C22.4167 6.88879 22.5586 6.5423 22.6751 6.24531C22.7967 5.94337 22.9081 5.67607 22.9284 5.65132C22.9486 5.62162 22.979 5.55232 22.9942 5.48798L23.0196 5.37908H20.3194H17.6193L17.5889 5.51273Z" fill="#0056A3"/>
<path d="M25.1522 5.3888C25.137 5.44324 25.1066 5.63629 25.0813 5.82438C25.056 6.01743 25.0205 6.25007 24.9344 6.69061C24.9243 6.74506 24.8989 6.89851 24.8787 7.03711C24.8533 7.17075 24.8331 7.31925 24.823 7.35885C24.8179 7.39845 24.7976 7.54199 24.7824 7.68059C24.7622 7.81424 24.7368 7.96273 24.7267 8.00233C24.7115 8.04193 24.6912 8.16568 24.676 8.27457C24.6608 8.38347 24.6355 8.52702 24.6203 8.59632C24.6102 8.66561 24.5899 8.77451 24.5747 8.84381C24.5595 8.91311 24.5393 9.06655 24.5241 9.1903C24.4987 9.38335 24.4633 9.60609 24.3771 10.0565C24.367 10.111 24.3417 10.2644 24.3214 10.403C24.2961 10.5367 24.2758 10.6852 24.2708 10.7248C24.2606 10.7644 24.2404 10.898 24.2252 11.0218C24.1948 11.2296 24.1239 11.6355 24.0681 11.9127C24.0529 11.9771 24.0327 12.1206 24.0124 12.2345C23.9972 12.3434 23.9769 12.477 23.9668 12.5315C23.9567 12.5859 23.9364 12.7394 23.9161 12.878C23.901 13.0116 23.8756 13.1601 23.8655 13.1997C23.8503 13.2393 23.83 13.363 23.8148 13.4719C23.7996 13.5808 23.7743 13.7244 23.7591 13.7937C23.749 13.863 23.7287 13.9719 23.7135 14.0412C23.6983 14.1105 23.678 14.2639 23.6629 14.3877C23.6375 14.5807 23.6021 14.8035 23.5159 15.2539C23.5058 15.3083 23.4805 15.4618 23.4602 15.6004C23.4349 15.734 23.4146 15.8825 23.4096 15.9221C23.3994 15.9617 23.3792 16.0954 23.364 16.2191C23.3336 16.4221 23.2626 16.8329 23.212 17.0903C23.1765 17.2635 23.1309 17.5655 23.1005 17.7783C23.0904 17.8872 23.0549 18.11 23.0245 18.2733C22.9941 18.4367 22.9587 18.6248 22.9486 18.6941C22.9131 18.9267 22.8776 19.1148 22.8523 19.2385C22.8371 19.3078 22.8168 19.4613 22.8016 19.585C22.7763 19.7781 22.7408 20.0008 22.6547 20.4513C22.6446 20.5057 22.6193 20.6592 22.599 20.7978C22.5737 20.9314 22.5534 21.0799 22.5483 21.1195C22.5382 21.1591 22.5179 21.2927 22.5027 21.4165C22.4724 21.6194 22.4014 22.0303 22.3508 22.2877C22.3153 22.4609 22.2697 22.7629 22.2393 22.9757C22.2191 23.144 22.1785 23.4014 22.0975 23.8172C22.0772 23.9409 22.0114 24.3765 22.0114 24.4112C22.0114 24.4211 21.9911 24.5003 21.9658 24.5844L21.9202 24.7329H24.5038C26.9253 24.7329 27.0824 24.728 27.0874 24.6438C27.0874 24.5993 27.0976 24.5151 27.1077 24.4607C27.1229 24.4062 27.1432 24.2627 27.1584 24.1389C27.1837 23.9459 27.2191 23.7132 27.3053 23.2727C27.3154 23.2182 27.3407 23.0599 27.361 22.9262C27.3863 22.7876 27.4066 22.6441 27.4116 22.6045C27.4218 22.5649 27.442 22.4312 27.4572 22.3075C27.4724 22.1837 27.4978 22.0303 27.513 21.961C27.5636 21.7333 27.589 21.5947 27.6143 21.4165C27.6295 21.3175 27.6497 21.1838 27.6649 21.1195C27.6801 21.0502 27.7004 20.8968 27.7156 20.773C27.7308 20.6493 27.7663 20.4216 27.7967 20.2681C27.822 20.1097 27.8575 19.9216 27.8727 19.8474C27.9132 19.5801 27.9436 19.4118 27.9689 19.288C27.9841 19.2187 28.0044 19.0653 28.0196 18.9416C28.0449 18.7485 28.0804 18.5258 28.1665 18.0753C28.1766 18.0209 28.2019 17.8625 28.2222 17.7288C28.2475 17.5902 28.2678 17.4467 28.2779 17.4071C28.283 17.3675 28.3033 17.219 28.3185 17.0854C28.3387 16.9468 28.364 16.8032 28.3742 16.7636C28.3894 16.724 28.4096 16.6003 28.4248 16.4914C28.44 16.3825 28.4654 16.2389 28.4806 16.1696C28.4907 16.1003 28.511 15.9914 28.5262 15.9221C28.5414 15.8528 28.5616 15.6994 28.5768 15.5756C28.6021 15.3826 28.6376 15.1599 28.7237 14.7094C28.7339 14.655 28.7592 14.4966 28.7795 14.3629C28.8048 14.2243 28.825 14.0808 28.8301 14.0412C28.8402 14.0016 28.8605 13.8679 28.8757 13.7442C28.9061 13.5412 28.977 13.1304 29.0277 12.873C29.0631 12.6998 29.1087 12.3978 29.1391 12.185C29.1493 12.0761 29.1847 11.8583 29.2151 11.7048C29.2405 11.5464 29.2759 11.3583 29.2911 11.2841C29.3316 11.0168 29.362 10.8485 29.3874 10.7248C29.4026 10.6555 29.4228 10.502 29.438 10.3783C29.4634 10.1852 29.4988 9.96248 29.5849 9.51204C29.5951 9.45759 29.6204 9.2992 29.6407 9.16555C29.666 9.02695 29.6863 8.88341 29.6913 8.84381C29.7015 8.80421 29.7217 8.67056 29.7369 8.54682C29.7521 8.42307 29.7774 8.26962 29.7926 8.20033C29.8433 7.97263 29.8686 7.83403 29.894 7.65584C29.9092 7.55684 29.9294 7.42319 29.9446 7.35885C29.9598 7.28955 29.9801 7.1361 29.9953 7.01236C30.0105 6.88861 30.0459 6.66586 30.0713 6.51737C30.1017 6.36887 30.1321 6.17583 30.1473 6.09663C30.1827 5.89368 30.2283 5.62639 30.2536 5.48779L30.2739 5.3789H27.7156C26.3073 5.3789 25.1573 5.38385 25.1522 5.3888Z" fill="#0056A3"/>
</svg>
