<svg width="36" height="36" viewBox="0 0 36 36" fill="none" xmlns="http://www.w3.org/2000/svg">
<path d="M18.041 0H17.959C8.04052 0 0 8.04052 0 17.959V18.041C0 27.9595 8.04052 36 17.959 36H18.041C27.9595 36 36 27.9595 36 18.041V17.959C36 8.04052 27.9595 0 18.041 0Z" fill="white"/>
<path d="M21.5082 23.2653C16.9008 23.2653 13.1524 19.5155 13.1511 14.9082C13.1524 13.7403 14.1034 12.7905 15.2688 12.7905C15.3886 12.7905 15.5071 12.8006 15.6207 12.8208C15.8704 12.8624 16.1075 12.9469 16.3257 13.0743C16.3572 13.0932 16.3787 13.1235 16.3837 13.1588L16.8706 16.2274C16.8769 16.264 16.8655 16.2993 16.8416 16.3258C16.5729 16.6235 16.2298 16.8379 15.8477 16.9451L15.6635 16.9968L15.7329 17.1746C16.361 18.7739 17.6399 20.0516 19.2405 20.6822L19.4183 20.7528L19.47 20.5687C19.5772 20.1865 19.7916 19.8435 20.0893 19.5748C20.1107 19.5546 20.1397 19.5445 20.1687 19.5445C20.1751 19.5445 20.1814 19.5445 20.1889 19.5458L23.2576 20.0327C23.2941 20.039 23.3244 20.0591 23.3433 20.0907C23.4695 20.3089 23.554 20.5472 23.5968 20.797C23.617 20.908 23.6258 21.0253 23.6258 21.1476C23.6258 22.3143 22.6761 23.264 21.5082 23.2653Z" fill="#001F2B"/>
<path d="M29.6786 16.9893C29.4301 14.1818 28.1437 11.5773 26.0563 9.65641C23.9563 7.72417 21.232 6.65967 18.3828 6.65967C12.1295 6.65967 7.04159 11.7476 7.04159 18.0009C7.04159 20.0996 7.6205 22.1441 8.71653 23.925L6.27222 29.3358L14.0983 28.5021C15.4592 29.0596 16.8996 29.3421 18.3815 29.3421C18.7713 29.3421 19.1711 29.3219 19.5722 29.2803C19.9253 29.2424 20.2822 29.1869 20.6329 29.1163C25.8696 28.0581 29.6925 23.4104 29.7227 18.0614V18.0009C29.7227 17.6603 29.7076 17.3198 29.6773 16.9893H29.6786ZM14.3998 26.1271L10.0699 26.5888L11.3627 23.7244L11.1041 23.3776C11.0852 23.3524 11.0663 23.3272 11.0448 23.2981C9.9223 21.7481 9.3295 19.9167 9.3295 18.0021C9.3295 13.0101 13.3907 8.94885 18.3828 8.94885C23.0595 8.94885 27.0237 12.5977 27.4058 17.2555C27.426 17.5052 27.4373 17.7562 27.4373 18.0034C27.4373 18.074 27.4361 18.1434 27.4348 18.2178C27.339 22.3938 24.4217 25.9405 20.3403 26.8435C20.0287 26.9129 19.7096 26.9659 19.3918 26.9999C19.0613 27.0378 18.7221 27.0567 18.3853 27.0567C17.1859 27.0567 16.0205 26.8246 14.9194 26.3655C14.797 26.3163 14.6772 26.2634 14.565 26.2091L14.401 26.1297L14.3998 26.1271Z" fill="#001F2B"/>
</svg>
