<svg width="26" height="26" viewBox="0 0 26 26" fill="none" xmlns="http://www.w3.org/2000/svg">
<path d="M13.0296 0H12.9704C5.80704 0 0 5.80704 0 12.9704V13.0296C0 20.193 5.80704 26 12.9704 26H13.0296C20.193 26 26 20.193 26 13.0296V12.9704C26 5.80704 20.193 0 13.0296 0Z" fill="#0ECD1C"/>
<path d="M15.5337 16.8024C12.2062 16.8024 9.49896 14.0943 9.49805 10.7667C9.49896 9.92322 10.1858 9.2373 11.0275 9.2373C11.114 9.2373 11.1996 9.24459 11.2816 9.25917C11.462 9.28923 11.6332 9.35026 11.7908 9.44226C11.8136 9.45592 11.8291 9.47778 11.8327 9.50329L12.1843 11.7195C12.1889 11.7459 12.1807 11.7714 12.1634 11.7906C11.9693 12.0055 11.7216 12.1604 11.4456 12.2378L11.3126 12.2752L11.3627 12.4036C11.8163 13.5586 12.74 14.4814 13.8959 14.9368L14.0243 14.9879L14.0617 14.8549C14.1391 14.5789 14.294 14.3311 14.5089 14.1371C14.5244 14.1225 14.5454 14.1152 14.5663 14.1152C14.5709 14.1152 14.5754 14.1152 14.5809 14.1161L16.7971 14.4677C16.8236 14.4723 16.8454 14.4869 16.8591 14.5096C16.9502 14.6672 17.0112 14.8394 17.0422 15.0197C17.0568 15.0999 17.0631 15.1846 17.0631 15.273C17.0631 16.1156 16.3772 16.8015 15.5337 16.8024Z" fill="white"/>
<path d="M21.4344 12.2701C21.2549 10.2425 20.3258 8.36144 18.8183 6.97413C17.3016 5.57862 15.334 4.80981 13.2763 4.80981C8.76004 4.80981 5.08545 8.48441 5.08545 13.0007C5.08545 14.5164 5.50354 15.993 6.29512 17.2792L4.52979 21.187L10.182 20.5849C11.1648 20.9875 12.2051 21.1916 13.2754 21.1916C13.5569 21.1916 13.8456 21.177 14.1353 21.1469C14.3904 21.1196 14.6481 21.0795 14.9014 21.0285C18.6835 20.2643 21.4444 16.9076 21.4663 13.0444V13.0007C21.4663 12.7547 21.4553 12.5088 21.4335 12.2701H21.4344ZM10.3997 18.8697L7.27253 19.203L8.20621 17.1344L8.01947 16.8839C8.00581 16.8657 7.99215 16.8474 7.97666 16.8265C7.16596 15.707 6.73782 14.3843 6.73782 13.0016C6.73782 9.39623 9.67094 6.46311 13.2763 6.46311C16.6539 6.46311 19.5169 9.09836 19.7929 12.4623C19.8075 12.6427 19.8157 12.824 19.8157 13.0025C19.8157 13.0535 19.8148 13.1036 19.8139 13.1574C19.7447 16.1734 17.6377 18.7348 14.69 19.387C14.465 19.4371 14.2346 19.4754 14.005 19.5C13.7664 19.5273 13.5213 19.541 13.2781 19.541C12.4119 19.541 11.5702 19.3734 10.775 19.0418C10.6866 19.0063 10.6001 18.968 10.519 18.9289L10.4006 18.8715L10.3997 18.8697Z" fill="white"/>
</svg>
