<svg width="100" height="100" viewBox="0 0 100 100" fill="none" xmlns="http://www.w3.org/2000/svg">
<rect width="100" height="100" rx="50" fill="#00B0F2"/>
<path d="M32.0042 29.1478C26.0175 33.7391 26.7818 42.0928 34.0422 51.4667C37.1629 55.4841 45.4423 63.7101 49.4546 66.771C53.7853 70.087 58.4982 72 62.3832 72C67.7966 72 72 68.6841 72 64.4116C72 62.6899 71.4268 62.1797 66.5229 59.3101C63.5295 57.5246 60.4089 56.058 59.7083 56.058C58.944 56.058 57.3518 56.6319 56.1418 57.3971C54.868 58.1623 53.4032 58.5449 52.639 58.3536C50.8557 57.9072 41.4299 48.2783 41.4299 46.8754C41.4299 46.3652 42.0031 44.9623 42.7037 43.8145C43.4043 42.6667 43.9774 41.0725 43.9774 40.3072C43.9774 39.6058 42.5126 36.4812 40.7294 33.4841C37.7997 28.3826 37.3539 28 35.507 28C34.3606 28 32.8321 28.5101 32.0042 29.1478Z" fill="white"/>
</svg>
