<svg width="100" height="100" viewBox="0 0 100 100" fill="none" xmlns="http://www.w3.org/2000/svg">
<circle cx="50" cy="50" r="50" fill="#00B0F2"/>
<path d="M29.9477 25.9886C30.014 25.9678 30.126 25.9539 30.2828 25.9422C30.4461 25.93 30.6739 25.9194 30.982 25.9101C31.5985 25.8916 32.5431 25.8781 33.9507 25.8686C36.7662 25.8498 41.439 25.8471 49.0552 25.8525H49.0553L67.656 25.874L67.6896 25.8741L67.72 25.8885L68.3804 26.2011L68.3815 26.2017C69.3235 26.6575 70.2505 27.5539 70.7171 28.4681L71.0909 29.1897L71.1076 29.2221L71.1077 29.2585L71.1407 52.4081V52.4082C71.1517 63.9393 71.1572 69.7304 71.1324 72.6655C71.1201 74.1314 71.1001 74.8898 71.0691 75.2956C71.0537 75.4967 71.0349 75.6226 71.0086 75.7081C70.9947 75.753 70.9779 75.7901 70.9562 75.8227C70.9348 75.8549 70.9121 75.8772 70.8975 75.8915C70.7188 76.0666 70.4565 76.15 70.1762 76.15C70.1421 76.15 70.0978 76.1409 70.0594 76.1321C70.0153 76.1221 69.9588 76.1075 69.8912 76.0889C69.7559 76.0516 69.571 75.9967 69.3411 75.9258C68.8812 75.7841 68.2373 75.5772 67.4425 75.3163C65.8527 74.7945 63.6563 74.0557 61.1136 73.1876L61.1133 73.1875L52.5331 70.2391L43.9529 73.1875L43.9527 73.1876C41.3659 74.0718 39.1667 74.8107 37.5836 75.3285C36.7922 75.5874 36.1542 75.7913 35.6984 75.9305C35.4707 76.0001 35.2874 76.0539 35.1529 76.0904C35.0857 76.1086 35.0294 76.1228 34.985 76.1327C34.946 76.1414 34.902 76.15 34.868 76.15C34.5877 76.15 34.3254 76.0666 34.1466 75.8915C34.1109 75.8565 34.0703 75.8128 34.0386 75.7286C34.0105 75.6542 33.991 75.5526 33.9752 75.4021C33.9434 75.0993 33.9228 74.5518 33.909 73.5167C33.8815 71.4428 33.8815 67.3853 33.8815 59.3447V59.3413V43.2733L30.7171 43.2424L27.4042 43.2101L27.3335 43.2094L27.289 43.1543L27.0819 42.898C27.0816 42.8976 27.0812 42.8972 27.0809 42.8968C27.0509 42.8611 27.0193 42.8196 26.9919 42.7613C26.9648 42.7037 26.9446 42.636 26.9285 42.5492C26.8971 42.3789 26.8781 42.1133 26.8664 41.6622C26.8429 40.7564 26.8485 39.0631 26.8595 35.7923L26.8595 35.7921L26.8925 29.0423L26.8927 29.0072L26.9084 28.9759L27.2055 28.3828L27.2058 28.3824C27.7834 27.2396 28.8041 26.3362 29.9477 25.9886ZM29.9477 25.9886C29.9474 25.9887 29.9471 25.9888 29.9469 25.9889L29.9922 26.1318L29.9486 25.9883C29.9483 25.9884 29.948 25.9885 29.9477 25.9886ZM32.4945 28.0906L32.4938 28.0903C31.785 27.7635 30.9947 27.7639 30.2979 28.0899L30.2967 28.0905C29.9758 28.2372 29.7537 28.3791 29.5768 28.5561C29.4 28.733 29.2603 28.953 29.1159 29.2674L29.1157 29.2679C29.0638 29.3798 29.0271 29.469 28.9981 29.6265C28.9682 29.7895 28.9465 30.0272 28.9314 30.4341C28.9012 31.2474 28.8985 32.7074 28.8985 35.534V41.2388H31.39H33.8815V35.5664L33.8815 35.2662C33.8816 32.2989 33.8816 30.8375 33.8078 30.0202C33.7699 29.6004 33.7134 29.3649 33.6345 29.1879C33.5617 29.0247 33.4675 28.9041 33.3266 28.7239C33.3134 28.707 33.2998 28.6896 33.2858 28.6716L33.2843 28.6696C33.2201 28.5843 33.0988 28.4731 32.9494 28.3634C32.8018 28.2549 32.6373 28.1555 32.4945 28.0906ZM68.9738 73.8097C68.9738 73.8097 68.974 73.8093 68.9744 73.8083L68.9738 73.8097ZM60.3543 70.7484C64.0962 72.0119 67.9913 73.3422 68.9939 73.7109C69.0021 73.6507 69.0105 73.5623 69.0184 73.4345C69.0439 73.0205 69.0618 72.2411 69.0742 70.8003C69.0989 67.9209 69.1017 62.4147 69.1017 51.9447C69.1017 40.9785 69.0989 35.4699 69.0687 32.6419C69.0535 31.2267 69.0315 30.4872 69 30.0718C68.9842 29.8643 68.9664 29.7433 68.9476 29.6619C68.9296 29.5842 68.9101 29.5401 68.884 29.4825C68.6025 28.8699 68.1119 28.3881 67.4815 28.0896L66.9619 27.8453H50.9482H35.1666L35.3156 28.0922L35.3158 28.0925C35.3391 28.1314 35.3619 28.1679 35.3841 28.2036C35.5084 28.4027 35.6152 28.5739 35.6934 28.9604C35.7826 29.4007 35.8386 30.1312 35.875 31.5596C35.9431 34.2274 35.9429 39.3705 35.9426 49.7059C35.9425 50.4601 35.9425 51.242 35.9425 52.0525C35.9425 62.4309 35.9453 67.9101 35.97 70.7855C35.9824 72.2243 36.0003 73.0074 36.0258 73.4257C36.0339 73.5585 36.0426 73.6498 36.0511 73.7117C37.1391 73.3183 41.053 71.9814 44.7848 70.7201C46.731 70.0624 48.6288 69.4248 50.0525 68.9516C50.7644 68.715 51.358 68.5194 51.78 68.383C51.9909 68.3147 52.1596 68.2611 52.2788 68.2245C52.3383 68.2062 52.3865 68.1918 52.4218 68.1819C52.4393 68.177 52.4549 68.1729 52.4678 68.1698L52.4689 68.1696C52.4762 68.1678 52.4994 68.1622 52.5221 68.1622C52.5448 68.1622 52.5683 68.1679 52.5756 68.1696L52.5767 68.1699C52.5897 68.173 52.6054 68.1772 52.6232 68.1822C52.6589 68.1922 52.7077 68.2067 52.7681 68.2253C52.8892 68.2625 53.0604 68.3169 53.2745 68.386C53.7029 68.5244 54.3055 68.7227 55.0272 68.9622C56.4707 69.4413 58.3923 70.0859 60.3543 70.7484ZM36.0711 73.8093C36.0711 73.8093 36.0709 73.8088 36.0705 73.8081L36.0711 73.8093Z" fill="white" stroke="white" stroke-width="0.3"/>
<path d="M64.6535 51.2763H54.5692C54.2424 51.4342 53.76 51.6568 53.1219 51.944C51.5657 52.6476 50.4375 53.2076 49.7372 53.624C47.5273 54.9307 46.4224 56.4097 46.4224 58.0611C46.4224 59.4108 47.0294 60.495 48.2432 61.3134C49.3326 62.0601 50.632 62.4335 52.1415 62.4335C54.7871 62.4335 57.1136 61.4499 59.1211 59.4826C60.833 57.817 61.9301 55.9072 62.4125 53.7533H63.2762V63.9197H62.4125C61.8523 62.7565 61.0586 62.175 60.0315 62.175C59.5491 62.175 58.9344 62.3186 58.1874 62.6058C55.8842 63.4961 53.83 63.9412 52.0248 63.9412C49.0836 63.9412 46.5625 63.1442 44.4616 61.5504C42.2051 59.8416 41.0768 57.659 41.0768 55.0025C41.0768 53.6528 41.3959 52.4107 42.0339 51.2763H39.9097V49.6824H43.2011C43.4656 49.3952 43.7535 49.1152 44.0648 48.8424C44.9518 48.0814 46.2201 47.2629 47.8697 46.387H39.9097V44.7931H51.1844C53.441 43.7592 54.896 43.0269 55.5496 42.5961C57.3237 41.433 58.2108 40.1909 58.2108 38.8699C58.2108 37.6493 57.6661 36.6801 56.5767 35.9621C55.6119 35.3159 54.4369 34.9929 53.0519 34.9929C50.7798 34.9929 48.749 35.797 46.9593 37.4052C45.3564 38.8412 44.3682 40.4566 43.9947 42.2515H43.0377L43.2944 33.3774H43.9947C44.306 34.7129 44.8429 35.3806 45.6054 35.3806C45.9322 35.3806 46.6948 35.1436 47.8931 34.6698C49.247 34.1241 50.1107 33.8082 50.4842 33.7221C51.4646 33.4923 52.4605 33.3774 53.4721 33.3774C56.1955 33.3774 58.4831 34.1457 60.335 35.6821C62.2803 37.2616 63.2529 39.2935 63.2529 41.7776C63.2529 42.8546 63.0428 43.8597 62.6226 44.7931H64.6535V46.387H61.6656C61.0742 47.1624 60.2961 47.9019 59.3312 48.6055C58.8488 48.9501 58.2886 49.3091 57.6505 49.6824H64.6535V51.2763Z" fill="white"/>
</svg>
