<svg width="110" height="110" viewBox="0 0 110 110" fill="none" xmlns="http://www.w3.org/2000/svg">
<path d="M40.9641 0.463318C38.4892 1.32825 36.4784 3.01376 35.3294 5.25372L34.8432 6.18519L19.9058 6.25172L4.94627 6.31825L3.95191 6.82835C2.42724 7.58239 1.47707 8.4695 0.747879 9.77799L0.0849748 10.9756L0.0186844 57.8151C-0.0255092 104.211 -0.0255092 104.655 0.416427 105.83C0.968847 107.316 2.33885 108.78 3.81933 109.467L4.94627 109.999H45.6265C90.1073 109.999 87.9198 110.066 91.8972 108.713C101.222 105.52 108.006 97.6243 109.685 87.9547C110.105 85.4486 110.105 81.3457 109.685 78.8175C108.448 71.6319 104.249 65.1338 98.1948 61.0974C95.5653 59.3232 91.9856 57.7707 89.5549 57.305L88.8036 57.1719V55.5308V53.8896H90.4388C91.7204 53.8896 92.1844 53.8009 92.5822 53.4683C93.1125 53.0469 93.1125 53.0247 93.1125 47.9682V42.8894L92.5159 41.9801C91.8751 41.0043 90.3946 40.1394 89.4002 40.1394H88.8257L88.7594 25.8791C88.6931 12.8163 88.6489 11.5522 88.2733 10.5986C87.7209 9.13483 86.3509 7.6711 84.8704 6.93924L83.6109 6.31825L68.6955 6.25172L53.7802 6.18519L53.2499 5.18719C52.0567 2.92506 49.9354 1.19518 47.4605 0.418961C45.6044 -0.157661 42.7318 -0.135483 40.9641 0.463318ZM46.9744 4.21136C47.5489 4.45532 48.3665 4.98759 48.7642 5.38679C49.5155 6.09647 50.5762 7.93723 50.5762 8.49168C50.5762 8.66911 50.8413 9.06831 51.1507 9.40097L51.7473 9.97759H56.4539H61.1826V14.524V19.0705H44.2786H27.3745V14.524V9.97759H32.0811C37.4507 9.97759 37.517 9.95541 38.0915 8.22555C39.351 4.41096 43.3505 2.61456 46.9744 4.21136ZM23.6181 18.8265C23.6181 20.9778 23.8832 22.0645 24.5019 22.3971C24.7671 22.5302 32.1032 22.6189 44.3449 22.6189C63.1492 22.6189 63.8121 22.5968 64.2983 22.1976C64.7844 21.7984 64.8286 21.5766 64.8949 19.3144L64.9833 16.8527H71.5902H78.1972V28.4517V40.0729L77.026 40.339C75.7002 40.6273 74.5733 41.5588 74.0872 42.7342C73.8662 43.2665 73.7778 44.708 73.7778 48.1234C73.7778 52.8029 73.7778 52.8029 74.3302 53.3352C74.7943 53.8231 75.0594 53.8896 76.5399 53.8896H78.1972V55.553C78.1972 57.1719 78.1972 57.2163 77.6005 57.3494C76.2747 57.6155 72.9602 58.8575 71.4797 59.5893C69.7341 60.4764 67.9663 61.6297 66.5301 62.8495L65.5578 63.6479H55.2165C45.4497 63.6479 44.8531 63.67 44.367 64.0692C43.682 64.6237 43.6599 65.91 44.3449 66.5975C44.831 67.0854 44.8752 67.0854 53.5592 67.152L62.2875 67.2185L61.4036 68.527C60.2325 70.2569 58.6194 73.5835 58.067 75.4465L57.6029 76.9324L51.217 76.9989C44.9636 77.0654 44.831 77.0654 44.3449 77.5533C43.6599 78.2409 43.682 79.5272 44.367 80.0816C44.831 80.4808 45.3392 80.503 50.9297 80.503H56.9621V83.7188V86.9346H51.0181C47.7699 86.9346 44.9194 87.0011 44.7205 87.0676C44.3228 87.2229 43.7262 88.2874 43.7262 88.8197C43.7262 89.0193 44.0134 89.485 44.367 89.8398L45.0078 90.483H51.4158H57.8018L58.4205 92.1907C59.1276 94.2311 60.0557 96.1162 61.1605 97.8017C61.6025 98.467 62.0444 99.1545 62.1328 99.2876C62.2654 99.5094 57.0505 99.5759 36.3237 99.5759H10.36V58.2143V16.8527H16.989H23.6181V18.8265ZM88.0744 44.575C88.9804 45.1294 89.2898 46.1718 89.2014 48.4561L89.1351 50.2303L83.2352 50.2968L77.3133 50.3412V47.2363V44.1314H82.3514C86.9254 44.1314 87.4336 44.1758 88.0744 44.575ZM84.6052 55.2647V56.6619L83.1689 56.684L81.7327 56.7062V55.2868V53.8896H83.1689H84.6052V55.2647ZM88.9583 60.9643C93.223 62.0732 96.7806 64.158 99.7636 67.2407C103.675 71.277 105.663 75.5795 106.282 81.2127C107.034 88.0213 104.227 95.4065 99.0787 100.219C89.2898 109.356 73.8441 108.225 65.4915 97.7351C63.7901 95.6061 62.0665 92.2572 61.2489 89.485C60.7186 87.6664 60.6523 87.1563 60.6523 83.497C60.6302 79.9929 60.6965 79.2832 61.1384 77.6199C63.5249 68.8596 70.5296 62.3172 79.3683 60.6317C81.7327 60.1881 86.6602 60.3434 88.9583 60.9643Z" fill="#08083B"/>
<path d="M88.0744 44.575C88.9804 45.1294 89.2898 46.1718 89.2014 48.4561L89.1351 50.2303L83.2352 50.2968L77.3133 50.3412V47.2363V44.1314H82.3514C86.9254 44.1314 87.4336 44.1758 88.0744 44.575Z" fill="#00B0F2"/>
<path d="M46.9744 4.21136C47.5489 4.45532 48.3665 4.98759 48.7642 5.38679C49.5155 6.09647 50.5762 7.93723 50.5762 8.49168C50.5762 8.66911 50.8413 9.06831 51.1507 9.40097L51.7473 9.97759H56.4539H61.1826V14.524V19.0705H44.2786H27.3745V14.524V9.97759H32.0811C37.4507 9.97759 37.517 9.95541 38.0915 8.22555C39.351 4.41096 43.3505 2.61456 46.9744 4.21136Z" fill="#00B0F2"/>
<path d="M43.0858 6.78369C42.7985 6.98331 42.445 7.49344 42.2682 7.89267C42.003 8.53588 42.003 8.75767 42.2682 9.40088C42.909 10.9534 44.5221 11.3305 45.7595 10.2215C46.3561 9.68921 46.4887 9.42306 46.4887 8.64677C46.4887 7.87049 46.3561 7.60433 45.7595 7.07202C44.9419 6.3401 43.9034 6.2292 43.0858 6.78369Z" fill="#08083B"/>
<path d="M18.0329 28.7177C16.7734 29.1613 15.5802 30.5806 15.2708 32C15.0941 32.7541 15.0278 34.8166 15.0941 37.8106C15.1825 43.0224 15.2266 43.222 16.7955 44.6414C17.2816 45.0849 18.0108 45.5063 18.4086 45.5728C18.8063 45.6394 21.48 45.6837 24.3526 45.6394L29.5675 45.5728L30.4513 44.9519C30.9375 44.6192 31.5562 43.9317 31.8655 43.3994C32.3517 42.5567 32.3959 42.1796 32.4622 39.2078L32.5505 35.9477L34.7823 33.9073C37.677 31.2682 37.8096 31.1129 37.8096 30.3367C37.8096 29.4052 37.4781 28.9173 36.7047 28.629C35.7988 28.3185 35.5336 28.4516 33.7438 30.0262C32.3517 31.2682 32.2191 31.3125 31.9981 30.9133C31.512 30.0262 30.142 28.873 29.3023 28.629C27.9544 28.252 19.1378 28.3185 18.0329 28.7177ZM28.7057 33.3529C28.772 34.3952 28.7499 34.4396 27.6009 35.4819L26.4297 36.5465L24.7504 34.9053C22.8721 33.0867 22.2313 32.8871 21.1486 33.7299C20.6846 34.0847 20.5741 34.3731 20.5741 35.1049C20.5741 35.9699 20.6846 36.1473 23.071 38.5203C25.9215 41.3812 26.2529 41.5143 27.8218 40.3389L28.7499 39.6514V40.6272C28.7499 41.1595 28.6394 41.7139 28.4847 41.8691C28.1091 42.2462 19.4471 42.2462 19.0715 41.8691C18.7842 41.5808 18.6737 32.5767 18.961 32.2883C19.0494 32.2218 21.2591 32.1775 23.8665 32.1996L28.6394 32.2662L28.7057 33.3529Z" fill="#00B0F2"/>
<path d="M44.588 30.6693C44.146 31.002 43.7262 31.8004 43.7262 32.2662C43.7262 32.4658 44.0135 32.9316 44.367 33.2865L45.0078 33.9297H56.9622C65.359 33.9297 69.0491 33.8631 69.4469 33.6857C70.2424 33.3087 70.5959 32.3328 70.2424 31.4899C70.0877 31.1129 69.7783 30.7137 69.5574 30.6028C68.9386 30.2479 45.0299 30.3144 44.588 30.6693Z" fill="#08083B"/>
<path d="M44.831 40.4276C43.7041 41.0043 43.4831 42.4903 44.4333 43.2888C44.8531 43.6658 45.7812 43.688 57.2052 43.688H69.5573L69.9993 43.1113C70.618 42.335 70.5738 41.6253 69.933 40.8712L69.4027 40.2502L57.382 40.2058C48.035 40.1614 45.2729 40.2058 44.831 40.4276Z" fill="#08083B"/>
<path d="M18.254 51.9381C17.1933 52.3151 16.199 53.1801 15.6465 54.1781C15.1825 55.0652 15.1604 55.3535 15.1604 60.4322V65.7549L15.7791 66.7972C16.1769 67.4847 16.7514 68.0614 17.4364 68.4606L18.4749 69.0815H23.7782H29.0814L30.1199 68.4606C30.8049 68.0614 31.3795 67.4847 31.7772 66.7972C32.3738 65.7992 32.3959 65.5996 32.4622 62.4947L32.5506 59.2568L34.4509 57.5269C37.7433 54.5551 37.8096 54.4664 37.8096 53.5793C37.8096 52.5369 37.1688 51.8937 36.1524 51.8937C35.5337 51.8937 35.1138 52.1599 33.788 53.3131L32.197 54.7325L31.9098 54.1337C31.4678 53.2688 30.2083 52.2264 29.2361 51.9381C28.1312 51.6054 19.182 51.6054 18.254 51.9381ZM28.529 55.664C28.7941 55.9301 28.9709 56.3958 28.9709 56.8616C28.9709 57.4826 28.772 57.8152 27.8219 58.7467C27.1811 59.3677 26.5403 59.8778 26.4298 59.8778C26.2972 59.8778 25.5017 59.1681 24.662 58.3253C23.3141 56.9503 23.0269 56.7729 22.2977 56.7729C21.679 56.7729 21.3696 56.9059 21.0382 57.3495C20.1543 58.4806 20.3531 58.9019 23.2257 61.7407C25.7448 64.2468 25.8994 64.3577 26.5844 64.2246C26.9822 64.1581 27.6009 63.781 27.9765 63.4262C28.3522 63.0492 28.7278 62.7609 28.8162 62.7609C29.0593 62.7609 28.993 64.5129 28.7499 65.0008C28.529 65.4 28.2417 65.4222 23.7561 65.4222H19.0273L18.7843 64.8234C18.6517 64.4464 18.5854 62.5613 18.6296 60.033C18.6959 56.1962 18.7401 55.8192 19.1157 55.5309C19.4693 55.287 20.4857 55.2204 23.8223 55.2204C27.7998 55.2204 28.1091 55.2426 28.529 55.664Z" fill="#00B0F2"/>
<path d="M44.367 54.3109C44.0135 54.6657 43.7262 55.1315 43.7262 55.3311C43.7262 55.8634 44.3228 56.928 44.7206 57.0833C44.9194 57.1498 50.532 57.2164 57.2052 57.2164C70.6622 57.2164 70.0877 57.2829 70.3749 55.7304C70.4854 55.1315 70.397 54.9097 69.8446 54.333L69.1817 53.6677H57.0948H45.0078L44.367 54.3109Z" fill="#08083B"/>
<path d="M18.6738 75.1583C17.4806 75.4688 16.3978 76.2894 15.757 77.3539L15.1604 78.3963V83.7189C15.1604 88.9751 15.1604 89.0416 15.7128 90.0396C16.3315 91.1263 17.3259 91.9026 18.5633 92.2574C19.6019 92.5457 27.9544 92.5457 28.993 92.2574C30.2304 91.9026 31.2248 91.1263 31.8435 90.0396C32.3517 89.1303 32.3959 88.7755 32.4622 85.8037L32.5506 82.5435L34.9812 80.3701C36.307 79.1725 37.5003 78.0193 37.6108 77.7975C38.2295 76.6221 37.3898 75.1805 36.0861 75.1805C35.5337 75.1805 35.0475 75.491 33.788 76.6221L32.197 78.0636L31.8877 77.4648C31.4016 76.5333 30.9375 76.0676 29.9653 75.5575C29.1477 75.114 28.7057 75.0696 24.2201 75.0252C21.5464 75.0031 19.0494 75.0696 18.6738 75.1583ZM28.7499 79.1503C28.8604 79.3943 28.9709 79.9265 28.9709 80.3257C28.9709 80.9467 28.7499 81.2572 27.6672 82.2109L26.3856 83.3641L24.7504 81.7008C23.3141 80.2592 23.0269 80.0596 22.2977 80.0596C21.3254 80.0596 20.5741 80.858 20.5741 81.9225C20.5741 82.4992 20.9498 82.9871 23.0932 85.094C26.0099 87.9993 26.3856 88.1323 27.844 86.8238C28.308 86.4025 28.7499 86.0476 28.8383 86.0476C28.9046 86.0476 28.9709 86.4912 28.9709 87.0456C28.9709 87.7553 28.8383 88.1767 28.529 88.4872C28.1091 88.9086 27.7998 88.9307 23.8665 88.9307C21.3917 88.9307 19.4914 88.842 19.2262 88.709C18.8285 88.4872 18.8064 88.1989 18.8064 83.7411C18.8064 81.1463 18.8727 78.9507 18.9611 78.8842C19.0273 78.7955 21.2149 78.7289 23.8003 78.7289C28.2417 78.7289 28.529 78.7511 28.7499 79.1503Z" fill="#00B0F2"/>
<path d="M79.5231 63.9582C73.2476 65.3554 68.2537 69.3252 65.6242 74.9805C61.8014 83.2085 64.0553 93.122 71.0379 98.6886C77.8216 104.122 87.2128 104.566 94.3279 99.7753C102.968 93.9647 105.619 82.6319 100.493 73.4724C99.3218 71.4099 95.7642 67.7062 93.8418 66.5751C91.8752 65.4219 89.2899 64.3795 87.4337 64.0025C85.4229 63.5811 81.2908 63.559 79.5231 63.9582ZM81.7991 68.0611C81.8874 68.5046 82.1747 68.8373 82.6166 69.0812C83.6994 69.6579 84.8926 69.0591 85.1578 67.8393C85.3124 67.1296 85.1357 67.1296 87.8094 67.7949C92.9358 69.0591 97.6867 73.916 99.0567 79.3052C99.5428 81.1681 99.5207 81.6117 98.9683 81.6117C98.7031 81.6117 98.2612 81.8556 97.9739 82.1661C96.9796 83.142 97.4215 84.7609 98.7694 85.0493C99.4323 85.2045 99.4544 85.2267 99.2997 86.2247C99.2113 86.7791 98.902 87.9324 98.5926 88.7751C96.8028 93.7651 92.5381 97.7128 87.4558 99.0213C85.8207 99.4426 85.2683 99.4426 85.2683 98.9991C85.2683 98.4446 84.0308 97.3579 83.39 97.3579C82.705 97.3579 81.7328 98.2672 81.7328 98.9104C81.7328 99.5314 80.871 99.5092 78.7055 98.7995C73.6674 97.1805 69.7563 93.3437 68.1874 88.4868C67.8781 87.5775 67.5908 86.4465 67.5245 85.9807C67.414 85.2932 67.4582 85.1601 67.7897 85.1601C68.0107 85.1601 68.4526 84.9605 68.784 84.6944C69.8889 83.8073 69.2481 81.6117 67.8781 81.6117C67.3919 81.6117 67.3698 81.5452 67.5024 80.7689C68.4968 75.2023 72.2532 70.4563 77.3355 68.3937C78.7276 67.8171 81.2687 67.1739 81.5339 67.3292C81.6223 67.3735 81.7328 67.7062 81.7991 68.0611Z" fill="#00B0F2"/>
<path d="M91.0135 73.5614C90.8367 73.6279 89.4225 74.9364 87.8757 76.4667L85.0915 79.2389L83.4343 79.2611C81.9317 79.2833 81.6886 79.3498 80.9152 79.9708C78.6393 81.7893 78.7056 85.2713 81.0699 86.8459C84.0972 88.8641 88.0967 86.358 87.6106 82.7873L87.478 81.7228L90.3506 78.8397C92.6044 76.5776 93.2232 75.8457 93.2232 75.3578C93.2232 74.4707 93.0022 74.0936 92.3172 73.7388C91.6543 73.384 91.5438 73.3618 91.0135 73.5614Z" fill="#08083B"/>
<path d="M60.936 101.315C61.7644 101.315 62.436 100.643 62.436 99.8149C62.436 98.9865 61.7644 98.3149 60.936 98.3149V101.315ZM9.16663 99.8149H7.66663C7.66663 100.643 8.3382 101.315 9.16663 101.315V99.8149ZM9.16663 16.2964V14.7964C8.3382 14.7964 7.66663 15.468 7.66663 16.2964H9.16663ZM60.936 98.3149H9.16663V101.315H60.936V98.3149ZM10.6666 99.8149V16.2964H7.66663V99.8149H10.6666ZM9.16663 17.7964H23.7081V14.7964H9.16663V17.7964Z" fill="white"/>
<path d="M65.1852 16.2964H79.2177V40.0702" stroke="white" stroke-width="3" stroke-linejoin="round"/>
</svg>
