<svg width="100" height="110" viewBox="0 0 100 110" fill="none" xmlns="http://www.w3.org/2000/svg">
<path d="M48.8429 0.227556C48.7782 0.377975 48.6704 0.786253 48.5626 1.13007C48.347 1.8177 48.3039 1.86067 46.5359 2.52681L45.3069 2.99956L44.5954 2.56979C43.6251 1.9896 43.4742 1.9896 42.5686 2.78467C41.7062 3.53676 41.62 4.09546 42.2237 4.97648C42.6333 5.59965 42.6118 5.59965 41.9434 7.08235C41.4259 8.24272 41.1456 8.60802 40.736 8.69397C39.3345 8.99481 39.2267 9.12374 39.2267 10.3701C39.2267 11.6379 39.3129 11.7668 40.4988 12.1106C41.0378 12.2825 41.2965 12.4974 41.4259 12.9702C41.5337 13.3355 41.7709 13.9801 41.9649 14.4099C42.2883 15.1835 42.2883 15.2694 41.7924 16.1934L41.275 17.1389L42.1374 18.0199C43.1077 19.0084 43.3233 19.0514 44.2935 18.4497L45.005 18.0199L45.9753 18.5142C46.4927 18.7935 47.1396 19.0729 47.3767 19.1373C47.657 19.2233 47.8726 19.5026 47.9589 19.8679C48.2392 21.2002 48.5626 21.5655 49.5328 21.63C50.7402 21.7159 51.1499 21.4366 51.4086 20.3836C51.6242 19.5026 51.6889 19.4596 53.1335 18.9439L54.6212 18.4067L55.5483 18.9009L56.4755 19.3952L57.3379 18.5571C58.3082 17.6116 58.3728 17.3108 57.7907 16.4513C57.4026 15.8281 57.4026 15.8281 58.0494 14.3454C58.6747 12.9487 58.7609 12.8412 59.6881 12.5834L60.6799 12.304V10.9288V9.55351L59.9252 9.36011C58.955 9.12374 58.7825 8.93034 58.2003 7.34021L57.726 6.00793L58.1788 5.27732C58.7609 4.31034 58.7609 4.2029 57.9632 3.30039C57.2301 2.46235 56.7342 2.37639 55.8286 2.89211C55.2681 3.23593 55.1818 3.21444 53.6941 2.63425C52.228 2.03258 52.1633 1.96811 51.883 1.04411L51.6027 0.077137L50.2659 0.0126724C49.3172 -0.030304 48.9076 0.0341606 48.8429 0.227556ZM51.193 6.00793C53.2198 6.52365 54.8153 8.58653 54.8153 10.7139C54.8153 14.9041 49.7916 17.0529 46.7083 14.1735C44.0563 11.7453 45.0697 7.14681 48.4763 6.09388C49.7269 5.72858 50.0287 5.70709 51.193 6.00793Z" fill="#08083B"/>
<path d="M31.3573 9.33897C27.7566 10.0911 24.9968 11.8101 23.2935 14.3458C21.8058 16.5806 20.814 19.6534 21.3099 20.5774C21.8058 21.4799 23.2073 21.5873 23.8325 20.7923C23.9619 20.6204 24.1991 20.0187 24.3284 19.4385C25.3203 15.3772 29.115 12.2399 33.0391 12.2184C34.0309 12.2184 34.6993 11.6167 34.6993 10.7142C34.6993 9.72576 34.0309 9.21004 32.8235 9.23153C32.2413 9.25302 31.5945 9.29599 31.3573 9.33897Z" fill="#00B0F2"/>
<path d="M65.1214 9.61815C64.1296 10.6066 64.9489 12.2182 66.4798 12.2182C67.4069 12.2182 69.1102 12.7125 70.2745 13.2927C72.8618 14.582 74.2848 16.4944 75.212 19.9111C75.6432 21.5012 77.1525 21.931 77.9502 20.7061C78.2521 20.2334 78.2736 19.997 78.058 18.8796C77.0231 13.658 72.6031 9.76857 67.1266 9.29583C65.7467 9.16689 65.5526 9.18838 65.1214 9.61815Z" fill="#00B0F2"/>
<path d="M21.0726 25.9706C19.477 26.2499 17.7737 27.131 16.5879 28.3343C13.289 31.6005 13.2675 37.0371 16.5448 40.3033C19.3908 43.1398 24.1127 43.5481 27.3899 41.2703C29.8694 39.5298 31.1631 36.9082 30.9906 33.8353C30.775 29.7955 27.9074 26.6152 23.9186 25.9921C23.1424 25.8632 22.4309 25.7772 22.3015 25.7772C22.1937 25.7987 21.6331 25.8846 21.0726 25.9706Z" fill="#08083B"/>
<path d="M47.3983 26.0562C44.5307 27.1521 42.7627 28.9357 41.8787 31.6647C41.5121 32.7606 41.5121 35.5111 41.8787 36.607C42.6333 38.9493 44.1641 40.7113 46.2771 41.6998C48.6919 42.8387 51.3008 42.8387 53.6941 41.7213C55.4405 40.9047 56.7773 39.5724 57.6397 37.7889C58.265 36.4996 58.3081 36.2202 58.3081 34.1359C58.3081 32.116 58.2434 31.7507 57.7044 30.5688C56.9282 28.9142 55.268 27.2596 53.5647 26.4645C52.4651 25.9703 51.9476 25.8628 50.2228 25.8199C48.9075 25.7769 47.8942 25.8628 47.3983 26.0562Z" fill="#00B0F2"/>
<path d="M75.7942 25.9709C73.3147 26.4006 70.8999 28.2916 69.7571 30.6983C69.1319 31.9876 69.0887 32.267 69.0887 34.3513C69.0887 36.3497 69.1534 36.758 69.6709 37.8324C71.2017 41.0772 74.1987 42.8607 77.9072 42.6888C84.6989 42.4095 88.2996 34.5017 84.1599 29.0652C82.3487 26.723 78.899 25.4337 75.7942 25.9709Z" fill="#08083B"/>
<path d="M17.6659 45.9539C14.712 46.3192 11.4563 47.5655 9.23554 49.1557C7.68315 50.2946 2.20666 55.5807 1.51671 56.6336C-0.682511 59.9214 -0.466901 64.4339 2.01261 67.4423C2.27134 67.7431 4.449 69.8275 6.88539 72.0838L11.327 76.1666L9.12774 92.4977C7.33817 105.756 6.9932 108.915 7.18725 109.345L7.42442 109.882L11.4348 109.946C14.8198 109.989 15.4882 109.946 15.7254 109.667C15.8763 109.474 16.7603 103.822 17.8168 96.0863C19.0027 87.4694 19.7789 82.5486 19.9945 82.0759C21.0294 79.97 23.5736 79.8626 25.0397 81.861C25.3416 82.2693 25.8159 85.3421 27.2605 95.7854C28.2739 103.156 29.201 109.366 29.3304 109.581C29.4813 109.903 29.7832 109.989 30.5809 109.989H31.6158L31.6374 108.85C31.659 108.249 32.3705 102.404 33.2545 95.8929L34.85 84.0313L34.3325 80.3138C34.0522 78.2509 33.8797 76.3815 33.9444 76.1236C34.0091 75.7798 33.5563 75.2426 31.7021 73.588C27.9505 70.2358 26.6568 68.8175 25.7944 67.0125C24.1342 63.5314 24.1989 60.3082 25.9884 56.3758C26.2256 55.8601 27.8427 54.055 30.1281 51.7343L33.8582 47.9523L32.2842 47.3077C29.6322 46.2118 27.9074 45.9109 23.3795 45.8465C21.1372 45.8035 18.5499 45.8465 17.6659 45.9539ZM13.4615 61.447C13.1381 63.7463 12.8578 65.6373 12.8362 65.6588C12.7931 65.7017 12.0816 65.0141 11.2407 64.1331C9.12774 61.9842 9.1493 61.9198 11.7797 59.2552C12.9225 58.0948 13.8927 57.1708 13.9358 57.2138C14.0005 57.2568 13.7633 59.1693 13.4615 61.447Z" fill="#08083B"/>
<path d="M45.1128 45.9549C42.0296 46.3417 38.6661 47.7814 36.1003 49.8228C35.3888 50.3815 33.4699 52.208 31.8313 53.8841C28.6187 57.1503 27.9934 58.1173 27.5622 60.481C27.131 62.7588 27.7778 65.4448 29.1793 67.2713C29.5889 67.7871 31.8959 70.0218 34.3539 72.2351C38.3642 75.8882 38.7739 76.3179 38.6877 76.8551C38.3858 78.4238 34.4833 108.228 34.4833 108.808C34.4833 109.947 34.6558 109.99 38.9464 109.99C42.7842 109.99 42.892 109.969 43.1939 109.517C43.3664 109.217 44.1641 104.038 45.2422 96.1302C46.2124 89.039 47.1611 82.8289 47.3336 82.3347C47.9158 80.7231 49.4035 80.0354 50.9774 80.6371C52.7239 81.3247 52.6376 80.9164 54.729 96.0443C56.1089 106.058 56.6911 109.646 56.9282 109.797C57.4026 110.098 64.9489 110.055 65.2724 109.732C65.4233 109.582 65.5311 109.217 65.5311 108.873C65.5311 108.357 61.6285 78.7676 61.3267 76.9626C61.2189 76.3179 61.3698 76.1245 65.8114 72.1062C68.334 69.807 70.6626 67.5292 70.986 67.0564C72.2797 65.2299 72.8187 62.7373 72.4306 60.481C72.0641 58.2462 71.3094 57.0644 68.2478 53.9271C64.7764 50.3815 62.7928 48.7913 60.4858 47.6739C57.5104 46.2342 55.9364 45.9334 50.9774 45.8474C48.6057 45.8045 45.9537 45.8474 45.1128 45.9549ZM40.9516 61.0182C40.7144 62.8447 40.4557 64.6497 40.3694 65.0365L40.24 65.7671L38.968 64.4993C37.3293 62.9092 37.0059 62.3075 37.3078 61.491C37.588 60.6959 41.2534 57.0214 41.3397 57.4297C41.3828 57.5801 41.2103 59.2132 40.9516 61.0182ZM62.7066 61.4265C62.9869 62.2431 62.5557 63.0381 61.0464 64.5208L59.7312 65.7886L59.6234 65.058C59.3431 63.4679 58.6316 58.0743 58.6316 57.5586C58.6316 57.1073 58.8687 57.2578 60.5721 58.9553C61.6285 60.0083 62.5988 61.1257 62.7066 61.4265Z" fill="#00B0F2"/>
<path d="M73.5087 45.8894C71.8485 46.0184 69.369 46.62 67.7088 47.2862L66.1349 47.9523L69.9296 51.7343C72.021 53.8186 73.7243 55.6666 73.7243 55.8385C73.7243 56.0105 73.8753 56.3543 74.0478 56.5691C74.8024 57.5576 75.3198 59.7709 75.3198 61.9627C75.3414 64.4769 74.8455 66.2174 73.5303 68.2373C72.8403 69.3118 69.5846 72.535 66.7817 74.9632C66.178 75.4574 65.9839 75.7798 66.0702 76.1021C66.1349 76.3599 65.9408 78.2079 65.6605 80.2279L65.1431 83.8809L66.7386 95.8499C67.6226 102.425 68.3341 108.313 68.3341 108.893V109.989H69.4121C70.3393 109.989 70.5333 109.925 70.7058 109.495C70.8352 109.237 71.7407 103.049 72.7541 95.721C74.7808 81.0659 74.7161 81.3238 76.3117 80.6791C77.3897 80.2493 77.6916 80.2493 78.5971 80.6791C80.1711 81.4312 80.0848 81.0444 82.1331 95.8069C83.2543 104.015 84.0952 109.452 84.2677 109.645C84.5048 109.946 85.1732 109.989 88.472 109.989C91.2319 109.989 92.4824 109.903 92.6549 109.731C92.8058 109.581 92.9136 109.13 92.9136 108.7C92.9136 108.098 89.0973 78.8526 88.7523 76.7467C88.6661 76.3385 89.5285 75.4789 93.3664 71.9548C96.3202 69.2473 98.2823 67.3133 98.6488 66.6687C100.331 63.8322 100.438 60.7594 98.9938 57.8799C98.347 56.5906 92.6118 50.6813 90.6497 49.2846C87.9546 47.3721 85.1948 46.3407 81.8097 45.9539C79.9986 45.7605 75.7295 45.7175 73.5087 45.8894ZM90.1969 61.9627C90.1969 62.6289 89.9813 62.9297 88.7092 64.219C87.8899 65.0356 87.1999 65.6802 87.1784 65.6587C87.0921 65.5943 86.0141 57.794 86.0141 57.3642C86.0141 57.1708 86.9412 57.9444 88.1055 59.1048C89.9598 60.9743 90.1969 61.2751 90.1969 61.9627Z" fill="#08083B"/>
</svg>
