<svg width="100" height="100" viewBox="0 0 100 100" fill="none" xmlns="http://www.w3.org/2000/svg">
<rect width="100" height="100" rx="50" fill="#00B0F2"/>
<path d="M39.8985 25.2744C38.4531 25.6144 36.6625 26.2067 36.6625 26.3383C36.6625 26.4041 36.8351 27.1281 37.0508 27.9617C37.2989 28.894 37.4176 29.574 37.3744 29.7495C37.3205 29.9689 37.0508 30.1663 36.0153 30.7038C35.3034 31.0657 34.2463 31.6909 33.6638 32.0748C33.0921 32.4587 32.4988 32.7768 32.3478 32.7768C32.1536 32.7768 31.7653 32.4587 30.87 31.5483L29.6619 30.3308L29.0147 30.9012C28.1841 31.6361 26.3072 33.6433 26.3072 33.7968C26.3072 33.8627 26.8465 34.4769 27.5045 35.1569C28.9176 36.6047 28.896 36.4622 27.8929 37.9648C27.5261 38.5242 26.9436 39.5443 26.6092 40.2353C25.7894 41.8915 25.865 41.8696 23.837 41.3212C22.9741 41.0908 22.2514 40.9153 22.2406 40.9373C22.0249 41.1566 20.9785 45.1272 21.0433 45.4672C21.0648 45.5879 21.4532 45.7414 22.4132 46.0047C24.6676 46.6079 24.6137 46.5531 24.4627 48.2532C24.4087 48.8893 24.398 49.9752 24.4411 50.7101C24.549 52.3005 24.5274 52.487 24.3117 52.7393C24.2146 52.8489 23.5027 53.1012 22.575 53.3535L21.0001 53.7703L21.0756 54.2639C21.1727 54.9549 21.5179 56.3259 21.8954 57.5215L22.2082 58.5196L23.8263 58.0809C25.153 57.7189 25.4874 57.6641 25.7032 57.7628C25.8865 57.8396 26.167 58.2673 26.5769 59.079C26.9005 59.7371 27.5153 60.823 27.936 61.4701C28.5293 62.4134 28.6803 62.7205 28.6264 62.9399C28.594 63.0934 28.0439 63.7405 27.4182 64.3877L26.2749 65.5613L26.5877 65.9781C26.976 66.5046 29.0363 68.5886 29.3922 68.8299L29.6727 69.0054L31.5172 67.1298L33.3618 65.2542L33.0382 65.0129C32.8656 64.8703 32.2184 64.267 31.6143 63.6638C24.6353 56.7646 23.8155 45.6646 29.705 37.7345C34.7425 30.9451 43.4042 28.2249 51.3757 30.9231C54.7088 32.0529 57.8261 34.2136 60.0698 36.9557L60.5768 37.5809L62.4429 35.6834L64.2982 33.7859L63.5 32.8755C63.0685 32.3709 62.3027 31.6032 61.8065 31.1535L60.9112 30.3418L59.703 31.5593C58.7538 32.5026 58.4194 32.7768 58.1929 32.7768C58.0203 32.7768 57.5133 32.5135 56.9093 32.0967C56.3591 31.7238 55.3668 31.1315 54.6872 30.7805C54.0076 30.4295 53.382 30.0786 53.3065 30.0127C53.08 29.8263 53.1339 29.3327 53.5546 27.7533C53.7595 26.9416 53.9213 26.2725 53.8998 26.2506C53.6948 26.0532 49.4233 24.9234 49.3046 25.0331C49.2938 25.055 49.0889 25.7789 48.8623 26.6345C48.6358 27.49 48.3662 28.2688 48.2799 28.3565C48.1288 28.5101 47.6974 28.532 45.2919 28.543C42.606 28.554 42.4658 28.543 42.2716 28.3346C42.1638 28.2139 41.8941 27.4352 41.6676 26.5467C41.4518 25.6912 41.2145 24.9892 41.1498 25.0002C41.0851 25.0002 40.5242 25.1208 39.8985 25.2744Z" fill="white"/>
<path d="M43.1433 32.1167C37.0935 32.9676 31.8244 36.6934 29.1052 42.0436C26.3471 47.4841 26.5682 54.2525 29.6777 59.4481C32.3578 63.9217 36.6902 67.0029 41.8292 68.0987C43.4035 68.4339 46.2007 68.55 47.7099 68.3566C49.6224 68.0987 49.4923 68.2277 49.0239 67.1189C48.7247 66.397 48.5685 66.1778 48.4254 66.2423C48.3214 66.2809 47.2935 66.3454 46.1486 66.3712C42.9481 66.4743 40.7494 65.9844 38.0302 64.605C29.0402 60.0153 26.4121 48.5026 32.5009 40.4579C34.9468 37.222 38.6027 35.0045 42.7009 34.2439C44.1451 33.9731 46.9813 33.9731 48.4254 34.2439C53.5385 35.185 57.8058 38.3436 60.1477 42.8816C60.512 43.5907 60.8502 44.1709 60.9023 44.158C61.904 44.0806 62.8668 43.9259 62.8668 43.8486C62.8668 43.797 62.4895 43.0106 62.0211 42.0952C59.4841 37.0673 55.0216 33.6379 49.4012 32.3745C48.0742 32.0651 44.4963 31.9233 43.1433 32.1167Z" fill="white"/>
<path d="M42.6365 36.2418C41.2834 36.5254 39.3189 37.2474 39.3189 37.4537C39.3189 37.531 39.475 37.8276 39.6441 38.1112C40.0605 38.7687 40.0605 39.2586 39.6441 39.6582C39.0977 40.2126 38.4992 40.0063 37.9398 39.0652C37.7446 38.7171 37.5365 38.4335 37.4714 38.4335C37.4194 38.4335 36.951 38.7816 36.4176 39.1941C35.5199 39.9161 34.7653 40.7025 33.9326 41.8112L33.5814 42.2882L34.1148 42.559C34.401 42.7008 34.7653 42.9457 34.8954 43.0747C35.2207 43.397 35.2337 44.1189 34.9344 44.3897C34.4921 44.7764 34.1798 44.7764 33.3992 44.3639C32.9959 44.1576 32.6446 43.9771 32.6186 43.9771C32.6056 43.9771 32.4625 44.2607 32.3194 44.5959C31.877 45.6144 31.3826 47.4322 31.3046 48.3734L31.2135 49.2629H32.0201C32.6967 49.2629 32.8788 49.3145 33.139 49.5852C33.3212 49.7528 33.4643 50.0493 33.4643 50.2298C33.4643 50.4103 33.3212 50.7068 33.139 50.8744C32.8788 51.1452 32.6967 51.1967 32.0201 51.1967H31.2135L31.3046 52.0863C31.4087 53.2982 32.3844 56.4825 32.6316 56.4825C32.6706 56.4825 32.9959 56.302 33.3732 56.0958C34.1928 55.6316 34.362 55.6188 34.8173 55.9797C35.0645 56.1731 35.1556 56.3665 35.1556 56.6888C35.1556 57.1916 34.8824 57.5139 34.1148 57.9007L33.5814 58.1714L34.0107 58.7644C34.7783 59.8345 37.1202 62.0262 37.4844 62.0262C37.5365 62.0262 37.7446 61.7296 37.9398 61.3687C38.4472 60.4533 39.0847 60.2342 39.6441 60.8014C40.0605 61.2011 40.0475 61.6781 39.6441 62.3485C39.462 62.6321 39.3189 62.9286 39.3189 63.0189C39.3189 63.3154 42.2722 64.2178 43.9115 64.4112L44.6531 64.5015V63.6506C44.6531 62.6708 44.9133 62.284 45.5508 62.284C46.2403 62.284 46.5135 62.6579 46.5786 63.6248L46.6306 64.5015L47.3072 64.4112C47.6715 64.3597 47.9837 64.3081 47.9967 64.2952C48.0097 64.2823 47.9447 63.8053 47.8406 63.2509C47.5934 61.8715 47.5934 58.9965 47.8406 57.5655C48.7773 52.3055 52.3421 47.703 57.299 45.3953C57.9105 45.1116 58.483 44.8796 58.548 44.8796C58.6261 44.8796 58.7172 44.828 58.7692 44.7635C58.8473 44.6217 58.574 43.9513 58.4439 44.0029C58.3919 44.0287 58.0406 44.2092 57.6503 44.4155C56.9868 44.7635 56.9087 44.7764 56.5575 44.6088C56.1151 44.4026 55.8939 43.9127 56.024 43.4099C56.0761 43.1778 56.3233 42.9586 56.8177 42.675C57.208 42.4558 57.5332 42.2625 57.5332 42.2367C57.5332 42.2109 57.1819 41.7597 56.7656 41.2311C55.8029 40.0321 53.7472 38.2401 53.5781 38.4593C53.5521 38.4851 53.3699 38.7816 53.1748 39.1168C52.6544 40.0192 51.8217 40.2126 51.3534 39.5551C51.0671 39.1426 51.1192 38.7171 51.5485 38.0209L51.9388 37.3892L51.1972 37.054C50.3386 36.6801 48.4391 36.1774 47.3722 36.0484L46.6306 35.9582L46.5786 36.822C46.5135 37.8018 46.2403 38.1756 45.5508 38.1756C44.9133 38.1756 44.6531 37.7889 44.6531 36.822V35.984L44.2368 35.9969C44.0026 35.9969 43.287 36.1129 42.6365 36.2418ZM49.4539 44.1834C49.61 44.3768 49.7271 44.6346 49.7271 44.7764C49.7271 45.073 46.4225 50.7842 46.1102 51.0162C45.9931 51.1194 45.759 51.1967 45.5898 51.1967C45.2906 51.1967 37.1332 46.5942 36.6258 46.1301C36.0013 45.5629 36.5477 44.3768 37.3543 44.5315C37.5495 44.5702 39.3969 45.5757 41.4526 46.7489C43.5082 47.935 45.2125 48.8761 45.2255 48.8504C45.2516 48.8375 45.837 47.819 46.5396 46.62C47.2421 45.4082 47.9317 44.2994 48.0748 44.1318C48.4521 43.7193 49.1026 43.7451 49.4539 44.1834Z" fill="white"/>
<path d="M62.4123 45.924C60.3566 46.1819 57.7416 47.1746 55.9592 48.3735C54.8793 49.0955 53.253 50.6425 52.4724 51.6997C50.4168 54.4457 49.5061 57.4238 49.6362 60.995C49.7143 63.2898 50.0916 64.8368 51.0283 66.7449C54.9704 74.7896 65.1704 77.4841 72.6383 72.4561C76.5414 69.839 79.0003 65.2107 79.0003 60.4922C79.0003 57.4883 78.2327 54.897 76.6194 52.4346C73.549 47.7805 67.9936 45.2407 62.4123 45.924ZM67.8766 48.0383C70.0102 48.6572 71.6235 49.5854 73.2888 51.1582C77.8684 55.5029 78.61 62.4002 75.0582 67.6344C74.2776 68.7818 72.6903 70.3418 71.5064 71.1282C67.2521 73.9387 61.5926 74.0032 57.3383 71.2958C55.4518 70.0968 53.6694 68.163 52.7196 66.2808C48.9857 58.9064 52.9278 50.1526 60.9811 47.961C63.0107 47.4195 65.7949 47.4453 67.8766 48.0383Z" fill="white"/>
<path d="M61.9042 49.7272C58.3784 50.5007 55.36 53.0791 53.981 56.4956C53.5776 57.4883 53.2394 59.2803 53.2394 60.4148C53.2394 65.3912 56.8172 69.8905 61.696 71.0508C63.0361 71.3602 65.2348 71.3989 66.5619 71.1153C70.582 70.2644 73.6915 67.4023 74.9144 63.38C75.2267 62.3615 75.2657 62.0005 75.2657 60.4148C75.2657 58.829 75.2267 58.4681 74.9144 57.4496C73.8086 53.8269 71.2195 51.1711 67.6808 50.0108C66.5879 49.6627 66.2366 49.6111 64.6233 49.5725C63.3093 49.5338 62.5417 49.5854 61.9042 49.7272ZM72.0002 54.652C72.9889 55.6447 73.1451 55.851 73.1451 56.2248C73.1451 56.6374 72.7547 57.0499 67.7718 61.9876C63.1402 66.5901 62.3596 67.3121 62.0213 67.3121C61.696 67.3121 61.1756 66.8609 58.5476 64.2567C54.8396 60.5953 54.9697 60.866 56.3618 59.3963C57.4157 58.3005 57.9231 58.0039 58.4305 58.1715C58.6256 58.236 59.5103 59.0224 60.395 59.8991L62.0213 61.5106L66.0545 57.514C69.5022 54.1105 70.1527 53.5175 70.478 53.5175C70.7772 53.5175 71.0894 53.7495 72.0002 54.652Z" fill="white"/>
<path d="M66.3793 59.8993C62.9576 63.277 62.3462 63.8314 62.0209 63.8314C61.6956 63.8314 61.3444 63.5478 59.9132 62.1296C58.4041 60.6341 58.1699 60.4537 57.9877 60.6084C57.8056 60.7631 58.0137 61.0209 59.9002 62.8903L62.0209 64.9917L66.4053 60.647C69.788 57.2951 70.7638 56.2637 70.6467 56.1348C70.5686 56.0445 70.4776 55.9672 70.4255 55.9672C70.3865 55.9672 68.5651 57.7334 66.3793 59.8993Z" fill="white"/>
</svg>
